<?xml version="1.0" encoding="utf-8"?>
<!-- Generator: Adobe Illustrator 16.0.4, SVG Export Plug-In . SVG Version: 6.00 Build 0)  -->
<!DOCTYPE svg PUBLIC "-//W3C//DTD SVG 1.1//EN" "http://www.w3.org/Graphics/SVG/1.1/DTD/svg11.dtd">
<svg version="1.1"
	 id="svg9432" inkscape:version="0.92.3 (2405546, 2018-03-11)" sodipodi:docname="A-K2a-III_Grauwacke.svg" xmlns:sodipodi="http://sodipodi.sourceforge.net/DTD/sodipodi-0.dtd" xmlns:cc="http://creativecommons.org/ns#" xmlns:rdf="http://www.w3.org/1999/02/22-rdf-syntax-ns#" xmlns:inkscape="http://www.inkscape.org/namespaces/inkscape" xmlns:dc="http://purl.org/dc/elements/1.1/" xmlns:svg="http://www.w3.org/2000/svg"
	 xmlns="http://www.w3.org/2000/svg" xmlns:xlink="http://www.w3.org/1999/xlink" x="0px" y="0px" width="58.839px"
	 height="56.855px" viewBox="0 0 58.839 56.855" enable-background="new 0 0 58.839 56.855" xml:space="preserve">
<sodipodi:namedview  id="base" inkscape:window-width="1680" inkscape:window-height="989" inkscape:document-units="px" inkscape:guide-bbox="true" fit-margin-right="0" inkscape:window-y="-9" inkscape:snap-global="false" inkscape:window-maximized="1" inkscape:grid-bbox="true" inkscape:current-layer="layer1" inkscape:pageshadow="2" fit-margin-bottom="0" inkscape:pageopacity="0.0" inkscape:window-x="1671" borderopacity="1.0" pagecolor="#ffffff" showgrid="true" showguides="true" inkscape:cx="33.045877" fit-margin-top="0" inkscape:zoom="7.848108" fit-margin-left="0" bordercolor="#666666" inkscape:cy="28.738358">
	</sodipodi:namedview>
<sodipodi:namedview  id="base" inkscape:window-width="1680" inkscape:window-height="989" inkscape:document-units="px" inkscape:guide-bbox="true" fit-margin-right="0" inkscape:window-y="-9" inkscape:snap-global="false" inkscape:window-maximized="1" inkscape:grid-bbox="true" inkscape:current-layer="layer1" inkscape:pageshadow="2" fit-margin-bottom="0" inkscape:pageopacity="0.0" inkscape:window-x="1671" borderopacity="1.0" pagecolor="#ffffff" showgrid="true" showguides="true" inkscape:cx="33.045877" fit-margin-top="0" inkscape:zoom="7.848108" fit-margin-left="0" bordercolor="#666666" inkscape:cy="28.738358">
	</sodipodi:namedview>
<sodipodi:namedview  id="base" inkscape:window-width="1680" inkscape:window-height="989" inkscape:document-units="px" inkscape:guide-bbox="true" fit-margin-right="0" inkscape:window-y="-9" inkscape:snap-global="false" inkscape:window-maximized="1" inkscape:grid-bbox="true" inkscape:current-layer="layer1" inkscape:pageshadow="2" fit-margin-bottom="0" inkscape:pageopacity="0.0" inkscape:window-x="1671" borderopacity="1.0" pagecolor="#ffffff" showgrid="true" showguides="true" inkscape:cx="33.045877" fit-margin-top="0" inkscape:zoom="7.848108" fit-margin-left="0" bordercolor="#666666" inkscape:cy="28.738358">
	</sodipodi:namedview>
<rect x="0" y="0" fill="#5B268F" stroke="#5B268F" stroke-width="3" stroke-miterlimit="10" width="58.839" height="56.855"/>
<rect x="16.42" y="6.261" fill="#FFFFFF" stroke="#5B268F" stroke-miterlimit="10" width="25.5" height="17.167"/>
<rect x="19.254" y="14.594" fill="#5B268F" width="19.832" height="9.5"/>
<path fill="none" stroke="#FFFFFF" stroke-width="3.1854" stroke-miterlimit="10" d="M27.014,19c0,0,3.751,2.243,3.785,3.677
	c0.033,1.512-3.844,3.161-3.749,4.67c0.09,1.428,4.049,2.485,4.069,3.918c0.023,1.504-4.165,2.752-4.148,4.256
	c0.016,1.38,3.82,2.438,3.893,3.816c0.042,0.815,0.042,3.756,0.042,3.756"/>
<polygon fill="#FFFFFF" stroke="#FFFFFF" stroke-width="0.4528" stroke-miterlimit="10" points="30.445,42.217 34.804,42.217 
	32.625,46.99 30.445,51.763 28.266,46.99 26.086,42.217 "/>
<g>
	<path fill="#FFFFFF" stroke="#FFFFFF" stroke-width="0.766" stroke-miterlimit="10" d="M16.282,32.301
		c-0.936-0.092-3.054,0.183-3.649,0.706c-0.507,0.438-0.17,1.991,0.49,2.225c0.666,0.232,2.461,0.954,3.329,0.818
		c0.48-0.069,1.142-0.685,1.49-0.938c0.406-0.297,1.354-0.884,1.494-1.285c0.104-0.29-0.018-0.97-0.338-1.173
		c-0.369-0.232-1.502-0.036-1.987-0.113C16.891,32.498,16.506,32.329,16.282,32.301z"/>
	<path fill="#FFFFFF" stroke="#FFFFFF" stroke-width="0.8273" stroke-miterlimit="10" d="M48.005,32.554
		c-1.012-0.105-2.463,0.326-3.115,0.884c-0.539,0.473,0.723,1.899,1.443,2.153s1.762,1.279,2.693,1.138
		c0.521-0.078,0.631-0.947,1.01-1.222c0.439-0.325,2.062-0.75,2.213-1.18c0.111-0.318-0.01-1.053-0.359-1.271
		c-0.402-0.247-1.803,0.422-2.334,0.339C48.908,33.289,48.666,32.627,48.005,32.554z"/>
	<polygon fill="#FFFFFF" stroke="#FFFFFF" stroke-width="0.8273" stroke-miterlimit="10" points="48.615,43.133 46.484,44.963 
		49.197,46.368 52.33,46.461 52.398,45.041 53.539,43.26 52.371,42.271 50.556,43.353 	"/>
	<polygon fill="#FFFFFF" stroke="#FFFFFF" stroke-width="0.8044" stroke-miterlimit="10" points="11.082,38.805 7.253,39.547 
		7.773,41.884 11.261,42.745 12.018,41.474 14.405,40.408 14.048,39.172 11.958,39.052 	"/>
	<path fill="#FFFFFF" stroke="#FFFFFF" stroke-width="0.5615" stroke-miterlimit="10" d="M42.271,25.946
		c-0.695,0.31-2.004,1.264-2.137,1.737c-0.107,0.401,0.955,1.023,1.541,0.875c0.576-0.141,2.207-0.486,2.727-0.883
		c0.301-0.218,0.42-0.762,0.531-1.023c0.119-0.296,0.449-0.94,0.338-1.186c-0.088-0.184-0.539-0.467-0.869-0.439
		c-0.385,0.035-1.055,0.565-1.434,0.714C42.802,25.803,42.433,25.867,42.271,25.946z"/>
	<path fill="#FFFFFF" stroke="#FFFFFF" stroke-width="0.5615" stroke-miterlimit="10" d="M46.623,52.137
		c-0.75-0.232-2.605-0.48-3.238-0.29c-0.541,0.163-0.672,1.131-0.178,1.392c0.486,0.27,1.807,1.016,2.545,1.116
		c0.434,0.044,1.15-0.185,1.504-0.269c0.43-0.092,1.371-0.255,1.6-0.465c0.16-0.15,0.24-0.56,0.031-0.742
		c-0.25-0.206-1.24-0.306-1.631-0.445C47.085,52.37,46.802,52.193,46.623,52.137z"/>
	<polygon fill="#FFFFFF" stroke="#FFFFFF" stroke-width="0.5615" stroke-miterlimit="10" points="11.381,27.795 8.73,26.453 
		7.633,27.618 9.135,29.455 10.63,29.723 12.347,29.85 12.882,29.208 11.748,28.261 	"/>
	<polygon fill="#FFFFFF" stroke="#FFFFFF" stroke-width="0.5615" stroke-miterlimit="10" points="12.998,51.154 9.76,50.867 
		9.579,52.258 12.136,53.365 13.633,53.104 15.225,52.639 15.26,51.899 13.633,51.446 	"/>
</g>
</svg>
