<?xml version="1.0" encoding="utf-8"?>
<!-- Generator: Adobe Illustrator 16.0.4, SVG Export Plug-In . SVG Version: 6.00 Build 0)  -->
<!DOCTYPE svg PUBLIC "-//W3C//DTD SVG 1.1//EN" "http://www.w3.org/Graphics/SVG/1.1/DTD/svg11.dtd">
<svg version="1.1" id="Ebene_2" xmlns="http://www.w3.org/2000/svg" xmlns:xlink="http://www.w3.org/1999/xlink" x="0px" y="0px"
	 width="58.839px" height="56.855px" viewBox="0 0 58.839 56.855" enable-background="new 0 0 58.839 56.855" xml:space="preserve">
<rect y="0" fill="#FFFFFF" stroke="#0EAD25" stroke-width="2" stroke-miterlimit="10" width="58.839" height="56.855"/>
<g>
	<path fill="none" stroke="#0EAD25" stroke-width="2.5" stroke-miterlimit="10" d="M17.815,14.8
		c-4.591,4.206-4.603,11.652-0.025,16.647"/>
	<path fill="none" stroke="#0EAD25" stroke-width="2.5" stroke-miterlimit="10" d="M12.29,10.637
		c-6.887,6.311-6.903,17.477-0.039,24.972"/>
</g>
<g>
	<path fill="none" stroke="#0EAD25" stroke-width="2.5" stroke-miterlimit="10" d="M42.242,14.8
		c4.592,4.206,4.602,11.652,0.025,16.647"/>
	<path fill="none" stroke="#0EAD25" stroke-width="2.5" stroke-miterlimit="10" d="M47.767,10.637
		c6.887,6.311,6.902,17.477,0.037,24.972"/>
</g>
<g>
	<path fill="#0EAD25" d="M39.877,39.552v-6.611c0-4.656-3.237-8.547-7.581-9.569c-0.027-1.224-1.022-2.207-2.25-2.207
		c-1.229,0-2.23,0.987-2.255,2.207c-4.344,1.022-7.581,4.914-7.581,9.569v6.611c-1.637,0-2.962,1.325-2.962,2.961v2.09h25.592v-2.09
		C42.839,40.878,41.514,39.552,39.877,39.552z"/>
	<path fill="#0EAD25" d="M30.046,48.528c1.961,0,3.602-1.321,4.118-3.12h-8.242C26.439,47.207,28.081,48.528,30.046,48.528z"/>
</g>
</svg>
