<?xml version="1.0" encoding="utf-8"?>
<!-- Generator: Adobe Illustrator 16.0.4, SVG Export Plug-In . SVG Version: 6.00 Build 0)  -->
<!DOCTYPE svg PUBLIC "-//W3C//DTD SVG 1.1//EN" "http://www.w3.org/Graphics/SVG/1.1/DTD/svg11.dtd">
<svg version="1.1" id="Ebene_2" xmlns="http://www.w3.org/2000/svg" xmlns:xlink="http://www.w3.org/1999/xlink" x="0px" y="0px"
	 width="58.839px" height="56.855px" viewBox="0 0 58.839 56.855" enable-background="new 0 0 58.839 56.855" xml:space="preserve">
<rect x="0.419" y="0" fill="#FFFFFF" stroke="#E60000" stroke-width="2" stroke-miterlimit="10" width="58.42" height="56.855"/>
<path fill="#E60000" d="M36.512,56.855l6.104-15.524l2.497-13.504v-12.15l3.607-6.751L52.317,0h6.522v56.855H36.512L36.512,56.855z"
	/>
<path fill="#E60000" d="M32.66,16.385l4.326-12.537l8.983,9.907L32.66,16.385z"/>
<path fill="#E60000" d="M30.673,34.146l0.816-13.195l11.331,7.292l-12.147,5.901V34.146z"/>
<path fill="#E60000" d="M26.07,53.27l-1.954-13.077l12.606,4.895L26.07,53.27z"/>
<path fill="#E60000" d="M7.801,31.47l-0.778-0.327l-0.912,0.923l-0.455,1.449v0.795l0.845,1.25l1.105,0.726l0.649,0.135l-1.3,0.461
	l-1.559,0.266l-0.065,1.313l0.455,0.527l0.649,0.66l1.625,0.201l-0.192,0.986l-0.913,0.857l0.264,0.592l1.232,0.262l0.519-0.327
	l0.455-0.139l0.583,0.066c0,0,0.44-0.017,0.587,0c0.281,0.036,1.23-0.188,1.23-0.188s-0.249,4.019-0.318,5.203
	c-0.029,0.396-0.091,1.183-0.13,1.583c-0.074,0.693-0.213,2.082-0.324,2.767c-0.113,0.649-0.3,1.976-0.588,2.576
	c-0.239,0.489-1.363,1.709-1.363,1.709l-1.756,0.658l-1.124,0.371l12.493,0.028l-1.819-1.053l-1.429-1.453
	c0,0-0.49-0.815-0.588-1.118c-0.106-0.334-0.162-1.041-0.195-1.38c-0.048-0.583-0.367-1.538-0.387-2.105
	c-0.024-0.637-0.197-2.086-0.257-2.715c-0.09-0.819-0.065-3.293-0.065-3.293l-0.196-1.583l1.428,1.053l1.886,0.665l1.237-1.453
	l0.844-1.388l-0.784-1.448l-0.779-1.714l0.714-1.98l0.13-2.701l-0.195-2.371l-0.454-1.584l-1.82-0.661l-1.498,0.857l-2.4,0.261
	l-1.492-1.048L8.84,28.507l-0.192,1.914L7.801,31.47z"/>
</svg>
