<?xml version="1.0" encoding="utf-8"?>
<!-- Generator: Adobe Illustrator 16.0.4, SVG Export Plug-In . SVG Version: 6.00 Build 0)  -->
<!DOCTYPE svg PUBLIC "-//W3C//DTD SVG 1.1//EN" "http://www.w3.org/Graphics/SVG/1.1/DTD/svg11.dtd">
<svg version="1.1"
	 id="svg9432" sodipodi:docname="A-K2a-III_Grauwacke.svg" inkscape:version="0.92.3 (2405546, 2018-03-11)" xmlns:sodipodi="http://sodipodi.sourceforge.net/DTD/sodipodi-0.dtd" xmlns:svg="http://www.w3.org/2000/svg" xmlns:dc="http://purl.org/dc/elements/1.1/" xmlns:cc="http://creativecommons.org/ns#" xmlns:rdf="http://www.w3.org/1999/02/22-rdf-syntax-ns#" xmlns:inkscape="http://www.inkscape.org/namespaces/inkscape"
	 xmlns="http://www.w3.org/2000/svg" xmlns:xlink="http://www.w3.org/1999/xlink" x="0px" y="0px" width="58.839px"
	 height="56.855px" viewBox="0 0 58.839 56.855" enable-background="new 0 0 58.839 56.855" xml:space="preserve">
<rect y="0" fill="#FFFFFF" stroke="#0F6B9A" stroke-width="3" stroke-miterlimit="10" width="58.839" height="56.855"/>
<path fill="#B8F0FF" stroke="#0F6B9A" stroke-width="2" stroke-miterlimit="10" d="M47.056,52.592c1.919,0,3.162-0.936,3.837-1.748
	c0.346-0.414,0.473-1.561,0.523-2.1c0.074-0.785,0.157-2.434-0.175-3.148c-0.404-0.871-1.981-2.113-2.791-2.625
	c-0.712-0.449-3.14-1.225-3.14-1.225s1.12-0.424,1.396-0.701c0.275-0.277,0.626-1.014,0.696-1.398
	c0.079-0.432,0.008-1.348-0.174-1.75c-0.343-0.762-1.575-1.982-2.268-2.449c-0.929-0.625-4.186-1.574-4.186-1.574
	s1.143-3.506,1.221-4.723c0.069-1.056,0.361-3.152-0.037-4.131c-0.436-1.069-1.909-2.932-2.791-3.674
	c-1.241-1.043-1.682-2.016-4.765-3.183c-1.563-0.592-5.953-0.79-7.619-0.666c-0.95,0.07-2.851,0.55-3.663,1.05
	c-1.42,0.874-5.02,4.831-5.02,4.831s-1.897-1.219-2.616-1.4c-0.804-0.201-2.531-0.271-3.314,0c-0.733,0.255-1.55,0.996-1.744,1.75
	c-0.225,0.873,0.491,2.535,0.697,3.499l1.127,2.87l30.5,22L47.056,52.592z"/>
<sodipodi:namedview  fit-margin-left="0" pagecolor="#ffffff" showguides="true" inkscape:cx="33.045877" fit-margin-top="0" inkscape:cy="28.738358" inkscape:zoom="7.848108" borderopacity="1.0" showgrid="true" bordercolor="#666666" id="base" fit-margin-bottom="0" inkscape:pageshadow="2" fit-margin-right="0" inkscape:document-units="px" inkscape:window-y="-9" inkscape:window-x="1671" inkscape:grid-bbox="true" inkscape:pageopacity="0.0" inkscape:snap-global="false" inkscape:current-layer="layer1" inkscape:window-maximized="1" inkscape:window-height="989" inkscape:window-width="1680" inkscape:guide-bbox="true">
	</sodipodi:namedview>
<sodipodi:namedview  fit-margin-left="0" pagecolor="#ffffff" showguides="true" inkscape:cx="33.045877" fit-margin-top="0" inkscape:cy="28.738358" inkscape:zoom="7.848108" borderopacity="1.0" showgrid="true" bordercolor="#666666" id="base" fit-margin-bottom="0" inkscape:pageshadow="2" fit-margin-right="0" inkscape:document-units="px" inkscape:window-y="-9" inkscape:window-x="1671" inkscape:grid-bbox="true" inkscape:pageopacity="0.0" inkscape:snap-global="false" inkscape:current-layer="layer1" inkscape:window-maximized="1" inkscape:window-height="989" inkscape:window-width="1680" inkscape:guide-bbox="true">
	</sodipodi:namedview>
<sodipodi:namedview  fit-margin-left="0" pagecolor="#ffffff" showguides="true" inkscape:cx="33.045877" fit-margin-top="0" inkscape:cy="28.738358" inkscape:zoom="7.848108" borderopacity="1.0" showgrid="true" bordercolor="#666666" id="base" fit-margin-bottom="0" inkscape:pageshadow="2" fit-margin-right="0" inkscape:document-units="px" inkscape:window-y="-9" inkscape:window-x="1671" inkscape:grid-bbox="true" inkscape:pageopacity="0.0" inkscape:snap-global="false" inkscape:current-layer="layer1" inkscape:window-maximized="1" inkscape:window-height="989" inkscape:window-width="1680" inkscape:guide-bbox="true">
	</sodipodi:namedview>
<g id="Ebene_2">
	<polygon fill="#0F6B9A" stroke="#0F6B9A" stroke-width="2" stroke-miterlimit="10" points="0,56.855 0,21.761 49.419,56.855 	"/>
</g>
<g>
	<g>
		<path fill="#0F6B9A" d="M12.253,36.177c0,0,1.849,0.055,4.622,0.137c2.771,0.071,6.47,0.135,10.14-0.073
			c1.833-0.112,3.661-0.266,5.348-0.536c0.849-0.107,1.65-0.295,2.417-0.432c0.752-0.191,1.475-0.333,2.115-0.539
			c0.642-0.201,1.238-0.362,1.737-0.572c0.503-0.2,0.956-0.343,1.297-0.523c0.696-0.328,1.094-0.516,1.094-0.516l0.865,1.803
			c0,0-0.451,0.178-1.241,0.487c-0.391,0.171-0.887,0.294-1.444,0.473c-0.556,0.188-1.199,0.318-1.894,0.484
			c-0.694,0.171-1.459,0.27-2.258,0.415c-0.806,0.09-1.65,0.226-2.529,0.277c-1.753,0.161-3.623,0.19-5.484,0.179
			c-3.725-0.042-7.418-0.356-10.181-0.614C14.094,36.357,12.253,36.177,12.253,36.177z"/>
	</g>
	<g>
		<path fill="#0F6B9A" d="M15.253,39.844c0,0,0.488,0.072,1.341,0.199c0.427,0.066,0.949,0.103,1.544,0.168
			c0.593,0.072,1.272,0.09,2.007,0.143c1.473,0.078,3.193,0.108,5.034,0.066c1.84-0.042,3.8-0.151,5.749-0.344
			c1.948-0.197,3.888-0.456,5.675-0.818c0.897-0.163,1.751-0.368,2.555-0.577c0.812-0.182,1.539-0.461,2.229-0.659
			c0.666-0.252,1.276-0.484,1.798-0.713c0.5-0.26,0.949-0.47,1.294-0.666c0.644-0.436,1.011-0.685,1.011-0.685l1.193,1.605
			c0,0-0.467,0.275-1.284,0.757c-0.416,0.205-0.932,0.41-1.516,0.665c-0.592,0.215-1.266,0.426-1.998,0.648
			c-0.741,0.165-1.534,0.409-2.387,0.545c-0.85,0.164-1.745,0.319-2.676,0.429c-1.857,0.255-3.845,0.393-5.828,0.467
			c-1.984,0.069-3.967,0.055-5.822-0.021c-1.855-0.075-3.581-0.216-5.054-0.388c-0.736-0.101-1.411-0.16-2.005-0.271
			c-0.594-0.104-1.114-0.173-1.535-0.266C15.735,39.948,15.253,39.844,15.253,39.844z"/>
	</g>
	<g>
		<path fill="#0F6B9A" d="M23.669,44.011c0,0,0.391,0.147,1.087,0.365c0.693,0.222,1.698,0.496,2.918,0.749
			c2.437,0.516,5.75,0.896,9.05,0.873c3.293-0.005,6.591-0.453,8.801-1.271c1.102-0.408,1.9-0.9,2.335-1.297
			c0.212-0.201,0.368-0.361,0.441-0.48c0.084-0.114,0.129-0.176,0.129-0.176l1.645,1.139c0,0-0.086,0.102-0.246,0.292
			c-0.155,0.197-0.417,0.437-0.758,0.708c-0.689,0.534-1.748,1.054-3.025,1.42c-2.562,0.727-5.988,0.906-9.353,0.664
			c-3.369-0.229-6.681-0.866-9.094-1.569c-1.208-0.347-2.194-0.696-2.873-0.972C24.047,44.187,23.669,44.011,23.669,44.011z"/>
	</g>
	<g>
		<polygon fill="#0F6B9A" points="20.051,30.972 25.737,31.812 25.505,32.785 		"/>
	</g>
	<g>
		<polygon fill="#0F6B9A" points="15.585,30.677 25.354,33.238 25.054,34.191 		"/>
	</g>
	<g>
		<polygon fill="#0F6B9A" points="15.168,31.26 25.142,34.751 24.767,35.678 		"/>
	</g>
</g>
</svg>
