<?xml version="1.0" encoding="utf-8"?>
<!-- Generator: Adobe Illustrator 16.0.4, SVG Export Plug-In . SVG Version: 6.00 Build 0)  -->
<!DOCTYPE svg PUBLIC "-//W3C//DTD SVG 1.1//EN" "http://www.w3.org/Graphics/SVG/1.1/DTD/svg11.dtd">
<svg version="1.1" id="Ebene_1" xmlns="http://www.w3.org/2000/svg" xmlns:xlink="http://www.w3.org/1999/xlink" x="0px" y="0px"
	 width="56.689px" height="56.689px" viewBox="0 0 56.689 56.689" enable-background="new 0 0 56.689 56.689" xml:space="preserve">
<rect x="0" y="-0.002" fill="#FFFFFF" stroke="#D50000" stroke-width="4" stroke-miterlimit="10" width="56.692" height="56.692"/>
<polygon fill="#D50000" stroke="#F96E12" stroke-width="0.5" stroke-miterlimit="10" points="31.225,56.69 31.225,34.216 
	24.692,16.943 42.817,9.304 47.433,0.004 56.693,0.004 56.693,56.69 "/>
<polygon fill="#FFFFFF" points="29.544,36.008 29.23,34.929 56.693,24.471 56.693,25.646 "/>
<polygon fill="#D50000" points="23.962,47.724 15.986,53.094 4.665,36.278 12.637,30.929 "/>
<path fill="none" stroke="#FFFFFF" stroke-miterlimit="10" d="M49.717,27.794"/>
<path fill="none" stroke="#FFFFFF" stroke-miterlimit="10" d="M41.634,6.869"/>
<path fill="none" stroke="#FFFFFF" stroke-miterlimit="10" d="M35.545,11.186c6.062,12.823,8.033,15.736,8.19,45.504"/>
<polygon fill="#FFFFFF" points="41.975,30.837 29.787,35.433 19.488,14.729 35.655,11.186 40.527,22.361 "/>
<polygon fill="#D50000" points="36.747,32.257 26.692,33.386 24.592,14.736 34.638,13.622 "/>
<path fill="none" stroke="#FFFFFF" stroke-miterlimit="10" d="M35.434,33.773c1.217,3.874,0.886,13.617,0.663,22.917"/>
</svg>
