<?xml version="1.0" encoding="utf-8"?>
<!-- Generator: Adobe Illustrator 16.0.4, SVG Export Plug-In . SVG Version: 6.00 Build 0)  -->
<!DOCTYPE svg PUBLIC "-//W3C//DTD SVG 1.1//EN" "http://www.w3.org/Graphics/SVG/1.1/DTD/svg11.dtd">
<svg version="1.1"
	 id="svg9432" sodipodi:docname="A-K2a-III_Grauwacke.svg" inkscape:version="0.92.3 (2405546, 2018-03-11)" xmlns:svg="http://www.w3.org/2000/svg" xmlns:rdf="http://www.w3.org/1999/02/22-rdf-syntax-ns#" xmlns:inkscape="http://www.inkscape.org/namespaces/inkscape" xmlns:dc="http://purl.org/dc/elements/1.1/" xmlns:cc="http://creativecommons.org/ns#" xmlns:sodipodi="http://sodipodi.sourceforge.net/DTD/sodipodi-0.dtd"
	 xmlns="http://www.w3.org/2000/svg" xmlns:xlink="http://www.w3.org/1999/xlink" x="0px" y="0px" width="58.839px"
	 height="56.855px" viewBox="0 0 58.839 56.855" enable-background="new 0 0 58.839 56.855" xml:space="preserve">
<sodipodi:namedview  inkscape:cy="28.738358" showguides="true" inkscape:zoom="7.848108" pagecolor="#ffffff" id="base" bordercolor="#666666" showgrid="true" fit-margin-top="0" inkscape:cx="33.045877" fit-margin-left="0" borderopacity="1.0" inkscape:window-x="1671" inkscape:window-y="-9" inkscape:document-units="px" inkscape:pageopacity="0.0" fit-margin-right="0" inkscape:grid-bbox="true" inkscape:pageshadow="2" fit-margin-bottom="0" inkscape:guide-bbox="true" inkscape:window-width="1680" inkscape:window-height="989" inkscape:window-maximized="1" inkscape:current-layer="layer1" inkscape:snap-global="false">
	</sodipodi:namedview>
<sodipodi:namedview  inkscape:cy="28.738358" showguides="true" inkscape:zoom="7.848108" pagecolor="#ffffff" id="base" bordercolor="#666666" showgrid="true" fit-margin-top="0" inkscape:cx="33.045877" fit-margin-left="0" borderopacity="1.0" inkscape:window-x="1671" inkscape:window-y="-9" inkscape:document-units="px" inkscape:pageopacity="0.0" fit-margin-right="0" inkscape:grid-bbox="true" inkscape:pageshadow="2" fit-margin-bottom="0" inkscape:guide-bbox="true" inkscape:window-width="1680" inkscape:window-height="989" inkscape:window-maximized="1" inkscape:current-layer="layer1" inkscape:snap-global="false">
	</sodipodi:namedview>
<sodipodi:namedview  inkscape:cy="28.738358" showguides="true" inkscape:zoom="7.848108" pagecolor="#ffffff" id="base" bordercolor="#666666" showgrid="true" fit-margin-top="0" inkscape:cx="33.045877" fit-margin-left="0" borderopacity="1.0" inkscape:window-x="1671" inkscape:window-y="-9" inkscape:document-units="px" inkscape:pageopacity="0.0" fit-margin-right="0" inkscape:grid-bbox="true" inkscape:pageshadow="2" fit-margin-bottom="0" inkscape:guide-bbox="true" inkscape:window-width="1680" inkscape:window-height="989" inkscape:window-maximized="1" inkscape:current-layer="layer1" inkscape:snap-global="false">
	</sodipodi:namedview>
<rect x="0" y="0" fill="#5B268F" stroke="#5B268F" stroke-width="3" stroke-miterlimit="10" width="58.839" height="56.855"/>
<g>
	<rect x="16.42" y="6.261" fill="#FFFFFF" stroke="#5B268F" stroke-miterlimit="10" width="25.5" height="17.167"/>
	<rect x="19.254" y="14.594" fill="#5B268F" width="19.832" height="9.5"/>
	<path fill="none" stroke="#FFFFFF" stroke-width="3.1854" stroke-miterlimit="10" d="M27.014,19c0,0,3.751,2.243,3.785,3.677
		c0.033,1.512-3.844,3.161-3.749,4.67c0.09,1.428,4.049,2.485,4.069,3.918c0.023,1.504-4.165,2.752-4.148,4.256
		c0.016,1.38,3.82,2.438,3.893,3.816c0.042,0.815,0.042,3.756,0.042,3.756"/>
	<polygon fill="#FFFFFF" stroke="#FFFFFF" stroke-width="0.4528" stroke-miterlimit="10" points="30.445,42.217 34.804,42.217 
		32.625,46.99 30.445,51.763 28.266,46.99 26.086,42.217 	"/>
</g>
<g>
	<path fill="#FFFFFF" d="M44.658,44.55l-0.08-0.8c-0.239-2.359,0.88-4.279,2.32-6.438c1.039-1.521,1.439-2.6,1.439-3.839
		c0-1.16-0.84-2.16-2.479-2.16c-0.8,0-1.72,0.12-2.52,0.68l-0.96-4.759c0.92-0.6,2.919-1.24,4.959-1.24
		c5.839,0,7.279,3.8,7.279,6.438c0,2.68-1.48,5-2.92,6.959c-1.04,1.44-1.76,2.721-1.84,4.199l-0.04,0.96H44.658z M47.337,53.749
		c-1.92,0-3.399-1.561-3.399-3.64c0-2.239,1.64-3.68,3.399-3.72c1.96,0,3.439,1.48,3.439,3.72c0,2.079-1.319,3.64-3.399,3.64H47.337
		z"/>
</g>
</svg>
