<?xml version="1.0" encoding="utf-8"?>
<!-- Generator: Adobe Illustrator 16.0.4, SVG Export Plug-In . SVG Version: 6.00 Build 0)  -->
<!DOCTYPE svg PUBLIC "-//W3C//DTD SVG 1.1//EN" "http://www.w3.org/Graphics/SVG/1.1/DTD/svg11.dtd">
<svg version="1.1"
	 id="svg9432" inkscape:version="0.92.3 (2405546, 2018-03-11)" sodipodi:docname="A-K2a-III_Grauwacke.svg" xmlns:rdf="http://www.w3.org/1999/02/22-rdf-syntax-ns#" xmlns:cc="http://creativecommons.org/ns#" xmlns:inkscape="http://www.inkscape.org/namespaces/inkscape" xmlns:sodipodi="http://sodipodi.sourceforge.net/DTD/sodipodi-0.dtd" xmlns:svg="http://www.w3.org/2000/svg" xmlns:dc="http://purl.org/dc/elements/1.1/"
	 xmlns="http://www.w3.org/2000/svg" xmlns:xlink="http://www.w3.org/1999/xlink" x="0px" y="0px" width="58.839px"
	 height="56.855px" viewBox="0 0 58.839 56.855" enable-background="new 0 0 58.839 56.855" xml:space="preserve">
<sodipodi:namedview  inkscape:window-x="1671" inkscape:document-units="px" inkscape:current-layer="layer1" fit-margin-right="0" inkscape:window-height="989" inkscape:pageopacity="0.0" inkscape:guide-bbox="true" fit-margin-bottom="0" inkscape:window-y="-9" inkscape:pageshadow="2" inkscape:snap-global="false" inkscape:window-maximized="1" inkscape:grid-bbox="true" inkscape:window-width="1680" showguides="true" inkscape:cx="33.045877" fit-margin-top="0" fit-margin-left="0" pagecolor="#ffffff" id="base" showgrid="true" borderopacity="1.0" inkscape:zoom="7.848108" bordercolor="#666666" inkscape:cy="28.738358">
	</sodipodi:namedview>
<sodipodi:namedview  inkscape:window-x="1671" inkscape:document-units="px" inkscape:current-layer="layer1" fit-margin-right="0" inkscape:window-height="989" inkscape:pageopacity="0.0" inkscape:guide-bbox="true" fit-margin-bottom="0" inkscape:window-y="-9" inkscape:pageshadow="2" inkscape:snap-global="false" inkscape:window-maximized="1" inkscape:grid-bbox="true" inkscape:window-width="1680" showguides="true" inkscape:cx="33.045877" fit-margin-top="0" fit-margin-left="0" pagecolor="#ffffff" id="base" showgrid="true" borderopacity="1.0" inkscape:zoom="7.848108" bordercolor="#666666" inkscape:cy="28.738358">
	</sodipodi:namedview>
<sodipodi:namedview  inkscape:window-x="1671" inkscape:document-units="px" inkscape:current-layer="layer1" fit-margin-right="0" inkscape:window-height="989" inkscape:pageopacity="0.0" inkscape:guide-bbox="true" fit-margin-bottom="0" inkscape:window-y="-9" inkscape:pageshadow="2" inkscape:snap-global="false" inkscape:window-maximized="1" inkscape:grid-bbox="true" inkscape:window-width="1680" showguides="true" inkscape:cx="33.045877" fit-margin-top="0" fit-margin-left="0" pagecolor="#ffffff" id="base" showgrid="true" borderopacity="1.0" inkscape:zoom="7.848108" bordercolor="#666666" inkscape:cy="28.738358">
	</sodipodi:namedview>
<rect x="1.419" y="1.371" fill="#5B268F" stroke="#5B268F" stroke-width="3" stroke-miterlimit="10" width="56.287" height="54.389"/>
<polygon fill="#FFFFFF" stroke="#5B268F" stroke-miterlimit="10" points="54.586,53.761 4.586,53.761 4.586,20.595 54.586,38.595 
	"/>
<g>
	<g>
		<line fill="none" stroke="#FFFFFF" stroke-width="3" stroke-miterlimit="10" x1="19.312" y1="11.591" x2="42.419" y2="20.76"/>
		<g>
			<polygon fill="#FFFFFF" points="36.574,24.297 40.732,20.09 40.589,14.177 50.577,23.996 			"/>
		</g>
	</g>
</g>
<path fill="#5B268F" stroke="#5B268F" stroke-width="0.25" stroke-miterlimit="10" d="M18.918,30.092
	c0.447-0.032,1.39-0.252,1.613-0.567c0.172-0.243-0.064-0.911-0.207-1.196c-0.187-0.366-0.719-1.163-1.161-1.281
	c-0.34-0.091-0.947,0.282-1.238,0.414c-0.24,0.11-0.83,0.296-0.886,0.528c-0.049,0.203,0.427,0.581,0.467,0.793
	c0.051,0.263-0.365,0.784-0.191,1.015C17.544,30.101,18.523,30.117,18.918,30.092z"/>
<path fill="#5B268F" stroke="#5B268F" stroke-width="0.25" stroke-miterlimit="10" d="M41.467,37.014
	c0.37-0.254,1.072-0.919,1.105-1.305c0.025-0.297-0.516-0.754-0.782-0.928c-0.347-0.221-1.208-0.64-1.649-0.519
	c-0.339,0.094-0.674,0.722-0.858,0.982c-0.151,0.217-0.567,0.675-0.499,0.904c0.061,0.199,0.663,0.284,0.804,0.448
	c0.177,0.202,0.081,0.861,0.349,0.973C40.287,37.717,41.139,37.236,41.467,37.014z"/>
<path fill="#5B268F" stroke="#5B268F" stroke-width="0.25" stroke-miterlimit="10" d="M29.19,33.471
	c0.173,0.364,0.667,1.088,1.007,1.171c0.261,0.067,0.745-0.352,0.938-0.565c0.248-0.277,0.744-0.987,0.7-1.398
	c-0.036-0.316-0.55-0.705-0.757-0.908c-0.172-0.165-0.521-0.601-0.734-0.571c-0.189,0.023-0.352,0.55-0.516,0.652
	c-0.206,0.13-0.782-0.05-0.92,0.175C28.731,32.316,29.038,33.146,29.19,33.471z"/>
<path fill="#FFFFFF" stroke="#FFFFFF" stroke-width="0.25" stroke-miterlimit="10" d="M48.024,37.637
	c0.173,0.364,0.666,1.088,1.007,1.171c0.261,0.067,0.745-0.352,0.938-0.565c0.248-0.277,0.744-0.987,0.7-1.398
	c-0.036-0.316-0.55-0.705-0.757-0.908c-0.172-0.165-0.521-0.601-0.734-0.571c-0.189,0.023-0.352,0.55-0.516,0.652
	c-0.205,0.13-0.781-0.05-0.92,0.175C47.564,36.482,47.871,37.312,48.024,37.637z"/>
<path fill="#FFFFFF" stroke="#FFFFFF" stroke-width="0.25" stroke-miterlimit="10" d="M25.024,29.304
	c0.173,0.363,0.666,1.088,1.007,1.17c0.261,0.068,0.745-0.352,0.938-0.564c0.248-0.277,0.744-0.988,0.7-1.399
	c-0.036-0.316-0.55-0.705-0.757-0.908c-0.172-0.165-0.521-0.601-0.734-0.571c-0.189,0.023-0.352,0.55-0.516,0.652
	c-0.205,0.13-0.781-0.05-0.92,0.175C24.564,28.149,24.871,28.978,25.024,29.304z"/>
<path fill="#FFFFFF" stroke="#FFFFFF" stroke-width="0.25" stroke-miterlimit="10" d="M13.857,25.304
	c0.173,0.364,0.666,1.088,1.007,1.171c0.261,0.067,0.745-0.352,0.938-0.565c0.248-0.277,0.744-0.987,0.7-1.398
	c-0.036-0.316-0.55-0.705-0.757-0.908c-0.172-0.165-0.521-0.601-0.734-0.571c-0.189,0.023-0.352,0.55-0.516,0.652
	c-0.205,0.13-0.781-0.05-0.92,0.175C13.397,24.149,13.704,24.979,13.857,25.304z"/>
</svg>
