<?xml version="1.0" encoding="utf-8"?>
<!-- Generator: Adobe Illustrator 16.0.4, SVG Export Plug-In . SVG Version: 6.00 Build 0)  -->
<!DOCTYPE svg PUBLIC "-//W3C//DTD SVG 1.1//EN" "http://www.w3.org/Graphics/SVG/1.1/DTD/svg11.dtd">
<svg version="1.1"
	 id="svg9432" sodipodi:docname="A-K2a-III_Grauwacke.svg" inkscape:version="0.92.3 (2405546, 2018-03-11)" xmlns:dc="http://purl.org/dc/elements/1.1/" xmlns:inkscape="http://www.inkscape.org/namespaces/inkscape" xmlns:svg="http://www.w3.org/2000/svg" xmlns:sodipodi="http://sodipodi.sourceforge.net/DTD/sodipodi-0.dtd" xmlns:cc="http://creativecommons.org/ns#" xmlns:rdf="http://www.w3.org/1999/02/22-rdf-syntax-ns#"
	 xmlns="http://www.w3.org/2000/svg" xmlns:xlink="http://www.w3.org/1999/xlink" x="0px" y="0px" width="58.839px"
	 height="56.855px" viewBox="0 0 58.839 56.855" enable-background="new 0 0 58.839 56.855" xml:space="preserve">
<sodipodi:namedview  borderopacity="1.0" fit-margin-left="0" showgrid="true" inkscape:cx="33.045877" fit-margin-top="0" inkscape:cy="28.738358" showguides="true" pagecolor="#ffffff" id="base" bordercolor="#666666" inkscape:zoom="7.848108" inkscape:snap-global="false" inkscape:current-layer="layer1" inkscape:window-maximized="1" inkscape:window-height="989" inkscape:window-width="1680" inkscape:guide-bbox="true" fit-margin-bottom="0" inkscape:pageshadow="2" inkscape:grid-bbox="true" fit-margin-right="0" inkscape:pageopacity="0.0" inkscape:document-units="px" inkscape:window-y="-9" inkscape:window-x="1671">
	</sodipodi:namedview>
<sodipodi:namedview  borderopacity="1.0" fit-margin-left="0" showgrid="true" inkscape:cx="33.045877" fit-margin-top="0" inkscape:cy="28.738358" showguides="true" pagecolor="#ffffff" id="base" bordercolor="#666666" inkscape:zoom="7.848108" inkscape:snap-global="false" inkscape:current-layer="layer1" inkscape:window-maximized="1" inkscape:window-height="989" inkscape:window-width="1680" inkscape:guide-bbox="true" fit-margin-bottom="0" inkscape:pageshadow="2" inkscape:grid-bbox="true" fit-margin-right="0" inkscape:pageopacity="0.0" inkscape:document-units="px" inkscape:window-y="-9" inkscape:window-x="1671">
	</sodipodi:namedview>
<sodipodi:namedview  borderopacity="1.0" fit-margin-left="0" showgrid="true" inkscape:cx="33.045877" fit-margin-top="0" inkscape:cy="28.738358" showguides="true" pagecolor="#ffffff" id="base" bordercolor="#666666" inkscape:zoom="7.848108" inkscape:snap-global="false" inkscape:current-layer="layer1" inkscape:window-maximized="1" inkscape:window-height="989" inkscape:window-width="1680" inkscape:guide-bbox="true" fit-margin-bottom="0" inkscape:pageshadow="2" inkscape:grid-bbox="true" fit-margin-right="0" inkscape:pageopacity="0.0" inkscape:document-units="px" inkscape:window-y="-9" inkscape:window-x="1671">
	</sodipodi:namedview>
<path fill="#ED2672" stroke="#FFFFFF" stroke-width="0.75" stroke-miterlimit="10" d="M19.835,7.977c0,0-0.029,0.251-0.114,0.657
	c-0.055,0.202-0.082,0.452-0.1,0.693c-0.007,0.119-0.016,0.245-0.024,0.378c-0.001,0.138-0.15,0.184-0.195,0.307
	c-0.571,0.837-1.033,2.173-1.023,3.562c-0.001,0.346,0.021,0.691,0.074,1.03c0.042,0.338,0.124,0.667,0.206,0.981
	c0.182,0.627,0.423,1.192,0.684,1.647c0.034,0.133,0.181,0.19,0.173,0.335c0.001,0.144,0.003,0.28,0.004,0.408
	c0.004,0.263,0.015,0.5,0.034,0.696c0.026,0.417,0.041,0.655,0.041,0.655s-0.234-0.05-0.637-0.189
	c-0.203-0.069-0.45-0.161-0.698-0.308c-0.131-0.072-0.27-0.149-0.417-0.229c-0.166-0.075-0.145-0.271-0.25-0.399
	c-0.324-0.571-0.63-1.28-0.858-2.072c-0.106-0.397-0.206-0.813-0.262-1.243c-0.066-0.43-0.095-0.87-0.094-1.313
	c0.005-0.441,0.026-0.886,0.099-1.317c0.058-0.434,0.161-0.853,0.28-1.254c0.254-0.795,0.584-1.516,0.963-2.073
	c0.117-0.124,0.119-0.318,0.27-0.401c0.162-0.076,0.315-0.147,0.459-0.214c0.279-0.136,0.522-0.205,0.725-0.233
	C19.583,8.003,19.835,7.977,19.835,7.977z"/>
<path fill="#ED2672" stroke="#FFFFFF" stroke-width="0.75" stroke-miterlimit="10" d="M10.83,2.559c0,0-0.142,0.361-0.422,0.96
	c-0.158,0.293-0.293,0.671-0.43,1.063C9.909,4.776,9.836,4.981,9.76,5.198C9.698,5.425,9.49,5.566,9.38,5.788
	c-0.288,0.398-0.519,0.878-0.772,1.38C8.365,7.674,8.157,8.234,7.971,8.818C7.891,9.115,7.808,9.417,7.725,9.722
	c-0.069,0.309-0.108,0.629-0.167,0.947c-0.067,0.317-0.086,0.644-0.106,0.972c-0.014,0.328-0.066,0.656-0.042,0.986l0.025,0.989
	c0.039,0.327,0.078,0.653,0.116,0.976c0.082,0.645,0.235,1.272,0.394,1.871c0.186,0.593,0.355,1.17,0.599,1.688
	c0.202,0.534,0.462,1.008,0.7,1.445c0.059,0.109,0.112,0.22,0.179,0.318c0.071,0.096,0.143,0.188,0.163,0.31
	c0.061,0.233,0.118,0.455,0.172,0.663c0.105,0.426,0.218,0.796,0.326,1.096c0.201,0.613,0.312,0.993,0.312,0.993
	s-0.333-0.173-0.907-0.527c-0.292-0.175-0.641-0.398-0.99-0.709c-0.184-0.152-0.379-0.314-0.584-0.485
	c-0.229-0.162-0.257-0.46-0.419-0.691c-0.27-0.496-0.562-1.033-0.794-1.64c-0.273-0.588-0.471-1.243-0.68-1.918
	c-0.182-0.681-0.354-1.396-0.449-2.132c-0.043-0.369-0.087-0.741-0.131-1.115l-0.031-1.133c-0.025-0.378,0.029-0.756,0.047-1.133
	c0.023-0.377,0.048-0.752,0.123-1.119c0.065-0.368,0.113-0.736,0.194-1.093c0.096-0.354,0.19-0.704,0.284-1.048
	c0.215-0.678,0.458-1.329,0.741-1.918c0.293-0.586,0.567-1.143,0.9-1.611c0.182-0.222,0.244-0.513,0.456-0.685
	C8.384,3.861,8.603,3.71,8.807,3.569c0.398-0.287,0.749-0.482,1.055-0.604C10.466,2.695,10.83,2.559,10.83,2.559z"/>
<path fill="#ED2672" stroke="#FFFFFF" stroke-width="0.75" stroke-miterlimit="10" d="M15.524,5.143c0,0-0.098,0.318-0.303,0.843
	c-0.118,0.258-0.211,0.586-0.302,0.92c-0.045,0.165-0.092,0.339-0.143,0.523c-0.039,0.192-0.224,0.297-0.308,0.48
	c-0.235,0.324-0.422,0.714-0.628,1.123c-0.197,0.411-0.367,0.867-0.519,1.343c-0.141,0.481-0.268,0.983-0.336,1.509
	c-0.09,0.519-0.112,1.06-0.12,1.596l0.021,0.806c0.032,0.267,0.064,0.533,0.095,0.796c0.067,0.526,0.192,1.038,0.321,1.526
	c0.281,0.974,0.658,1.852,1.061,2.558c0.049,0.089,0.091,0.18,0.148,0.259c0.062,0.077,0.12,0.152,0.128,0.255
	c0.038,0.199,0.074,0.388,0.107,0.565c0.066,0.363,0.14,0.681,0.213,0.941c0.134,0.53,0.207,0.862,0.207,0.862
	s-0.294-0.125-0.803-0.396c-0.257-0.134-0.567-0.306-0.877-0.553c-0.163-0.121-0.336-0.25-0.52-0.386
	c-0.204-0.128-0.213-0.387-0.354-0.578c-0.467-0.822-0.908-1.843-1.236-2.983c-0.152-0.571-0.296-1.17-0.376-1.788
	c-0.036-0.31-0.073-0.622-0.11-0.936l-0.026-0.95c0.008-0.633,0.037-1.272,0.142-1.89c0.083-0.623,0.231-1.223,0.401-1.798
	c0.18-0.569,0.385-1.116,0.622-1.611c0.246-0.493,0.477-0.96,0.756-1.354c0.157-0.184,0.196-0.438,0.384-0.575
	c0.204-0.126,0.396-0.247,0.578-0.359c0.353-0.228,0.662-0.375,0.928-0.46C15.204,5.236,15.524,5.143,15.524,5.143z"/>
<polygon fill="#ED2672" stroke="#FFFFFF" stroke-miterlimit="10" points="24.419,18.511 24.419,7.094 38.294,7.094 38.294,18.427 
	35.586,18.427 40.336,56.855 22.503,56.855 27.086,18.511 "/>
</svg>
