<?xml version="1.0" encoding="utf-8"?>
<!-- Generator: Adobe Illustrator 16.0.4, SVG Export Plug-In . SVG Version: 6.00 Build 0)  -->
<!DOCTYPE svg PUBLIC "-//W3C//DTD SVG 1.1//EN" "http://www.w3.org/Graphics/SVG/1.1/DTD/svg11.dtd">
<svg version="1.1"
	 id="svg9432" inkscape:version="0.92.3 (2405546, 2018-03-11)" xmlns:cc="http://creativecommons.org/ns#" xmlns:rdf="http://www.w3.org/1999/02/22-rdf-syntax-ns#" xmlns:sodipodi="http://sodipodi.sourceforge.net/DTD/sodipodi-0.dtd" xmlns:inkscape="http://www.inkscape.org/namespaces/inkscape" xmlns:svg="http://www.w3.org/2000/svg" xmlns:dc="http://purl.org/dc/elements/1.1/" sodipodi:docname="A-K2a-III_Grauwacke.svg"
	 xmlns="http://www.w3.org/2000/svg" xmlns:xlink="http://www.w3.org/1999/xlink" x="0px" y="0px" width="58.839px"
	 height="56.855px" viewBox="0 0 58.839 56.855" enable-background="new 0 0 58.839 56.855" xml:space="preserve">
<rect x="6.169" y="0" fill="#FFFFFF" stroke="#A30505" stroke-width="2" stroke-miterlimit="10" width="42" height="56.855"/>
<sodipodi:namedview  inkscape:zoom="7.848108" showguides="true" inkscape:cy="28.738358" pagecolor="#ffffff" inkscape:cx="33.045877" bordercolor="#666666" borderopacity="1.0" showgrid="true" fit-margin-left="0" fit-margin-top="0" inkscape:grid-bbox="true" inkscape:window-height="989" inkscape:window-width="1680" inkscape:current-layer="layer1" inkscape:window-maximized="1" inkscape:guide-bbox="true" inkscape:pageshadow="2" fit-margin-bottom="0" inkscape:pageopacity="0.0" fit-margin-right="0" inkscape:window-y="-9" inkscape:document-units="px" inkscape:window-x="1671" inkscape:snap-global="false" id="base">
	</sodipodi:namedview>
<sodipodi:namedview  inkscape:zoom="7.848108" showguides="true" inkscape:cy="28.738358" pagecolor="#ffffff" inkscape:cx="33.045877" bordercolor="#666666" borderopacity="1.0" showgrid="true" fit-margin-left="0" fit-margin-top="0" inkscape:grid-bbox="true" inkscape:window-height="989" inkscape:window-width="1680" inkscape:current-layer="layer1" inkscape:window-maximized="1" inkscape:guide-bbox="true" inkscape:pageshadow="2" fit-margin-bottom="0" inkscape:pageopacity="0.0" fit-margin-right="0" inkscape:window-y="-9" inkscape:document-units="px" inkscape:window-x="1671" inkscape:snap-global="false" id="base">
	</sodipodi:namedview>
<sodipodi:namedview  inkscape:zoom="7.848108" showguides="true" inkscape:cy="28.738358" pagecolor="#ffffff" inkscape:cx="33.045877" bordercolor="#666666" borderopacity="1.0" showgrid="true" fit-margin-left="0" fit-margin-top="0" inkscape:grid-bbox="true" inkscape:window-height="989" inkscape:window-width="1680" inkscape:current-layer="layer1" inkscape:window-maximized="1" inkscape:guide-bbox="true" inkscape:pageshadow="2" fit-margin-bottom="0" inkscape:pageopacity="0.0" fit-margin-right="0" inkscape:window-y="-9" inkscape:document-units="px" inkscape:window-x="1671" inkscape:snap-global="false" id="base">
	</sodipodi:namedview>
<rect x="32.639" y="7.444" transform="matrix(0.9793 0.2023 -0.2023 0.9793 3.8638 -7.028)" fill="#A30505" width="7.363" height="15.895"/>
<g>
	<g>
		<path fill="#A30505" d="M25.627,10.655c0,0-0.093,0.19-0.273,0.492c-0.1,0.146-0.191,0.339-0.276,0.531
			c-0.042,0.094-0.086,0.195-0.132,0.301c-0.042,0.112-0.172,0.13-0.244,0.225c-0.697,0.605-1.413,1.674-1.725,2.894
			c-0.333,1.217-0.243,2.514,0,3.429c0.004,0.123,0.103,0.211,0.077,0.333c-0.021,0.122-0.04,0.238-0.058,0.347
			c-0.038,0.223-0.064,0.424-0.077,0.591c-0.042,0.351-0.065,0.551-0.065,0.551s-0.171-0.106-0.456-0.328
			c-0.144-0.11-0.317-0.25-0.479-0.436c-0.086-0.093-0.178-0.192-0.275-0.296c-0.113-0.103-0.063-0.261-0.121-0.394
			c-0.293-1.106-0.405-2.682,0.004-4.18c0.381-1.502,1.278-2.847,2.163-3.618c0.124-0.081,0.177-0.235,0.316-0.279
			c0.147-0.035,0.286-0.067,0.417-0.098c0.255-0.065,0.468-0.085,0.642-0.078C25.416,10.638,25.627,10.655,25.627,10.655z"/>
	</g>
	<g>
		<path fill="#A30505" d="M19.119,3.964c0,0-0.214,0.259-0.606,0.682c-0.209,0.203-0.422,0.48-0.644,0.775
			c-0.11,0.144-0.228,0.298-0.352,0.46C17.402,6.054,17.2,6.144,17.05,6.307c-0.341,0.281-0.652,0.645-0.988,1.023
			c-0.327,0.384-0.636,0.824-0.932,1.289c-0.138,0.24-0.279,0.483-0.421,0.73c-0.131,0.252-0.239,0.521-0.362,0.785
			c-0.131,0.261-0.223,0.54-0.314,0.821c-0.087,0.281-0.208,0.554-0.262,0.847l-0.204,0.865c-0.041,0.293-0.082,0.584-0.122,0.874
			c-0.077,0.579-0.087,1.158-0.086,1.714c0.026,1.115,0.181,2.153,0.411,3.016c0.028,0.225,0.147,0.413,0.155,0.623
			c0.01,0.213,0.02,0.415,0.029,0.604c0.012,0.386,0.044,0.724,0.083,1.001c0.058,0.574,0.091,0.902,0.091,0.902
			s-0.228-0.233-0.612-0.679c-0.196-0.221-0.428-0.498-0.639-0.847c-0.113-0.174-0.234-0.358-0.362-0.553
			c-0.146-0.192-0.118-0.449-0.199-0.683c-0.254-0.96-0.428-2.114-0.457-3.358c-0.001-0.62,0.012-1.267,0.096-1.914
			c0.046-0.324,0.092-0.65,0.138-0.978l0.228-0.97c0.063-0.328,0.194-0.637,0.293-0.953c0.104-0.315,0.209-0.628,0.354-0.924
			c0.138-0.298,0.261-0.6,0.41-0.886c0.161-0.279,0.319-0.555,0.476-0.827c0.334-0.528,0.687-1.026,1.058-1.464
			c0.38-0.433,0.737-0.844,1.125-1.167c0.201-0.152,0.329-0.372,0.54-0.48c0.224-0.091,0.437-0.177,0.636-0.258
			c0.391-0.167,0.726-0.272,1.009-0.321C18.787,4.017,19.119,3.964,19.119,3.964z"/>
	</g>
	<g>
		<path fill="#A30505" d="M22.566,7.245c0,0-0.167,0.232-0.478,0.608c-0.167,0.181-0.332,0.426-0.501,0.681
			c-0.083,0.125-0.173,0.258-0.267,0.398c-0.087,0.148-0.26,0.211-0.38,0.348c-0.279,0.229-0.532,0.526-0.806,0.835
			c-0.267,0.313-0.52,0.672-0.761,1.052c-0.234,0.387-0.459,0.796-0.639,1.238c-0.198,0.432-0.341,0.898-0.471,1.363l-0.167,0.707
			l-0.1,0.715c-0.062,0.474-0.071,0.948-0.07,1.402c0.021,0.912,0.148,1.761,0.336,2.468c0.02,0.185,0.13,0.334,0.125,0.51
			c-0.001,0.178-0.003,0.346-0.004,0.504c-0.007,0.323,0.002,0.608,0.021,0.842c0.025,0.475,0.03,0.767,0.03,0.767
			s-0.206-0.184-0.552-0.542c-0.176-0.178-0.385-0.402-0.577-0.688c-0.103-0.143-0.213-0.294-0.328-0.454
			c-0.133-0.158-0.098-0.376-0.169-0.571c-0.213-0.803-0.358-1.769-0.382-2.81c-0.001-0.519,0.01-1.061,0.081-1.603
			c0.039-0.271,0.077-0.544,0.116-0.819l0.191-0.812c0.148-0.535,0.315-1.071,0.543-1.572c0.209-0.51,0.469-0.985,0.742-1.435
			c0.28-0.442,0.576-0.86,0.887-1.227c0.319-0.363,0.618-0.708,0.944-0.979c0.17-0.125,0.271-0.318,0.453-0.402
			c0.194-0.069,0.378-0.135,0.551-0.196c0.339-0.128,0.626-0.2,0.867-0.227C22.281,7.271,22.566,7.245,22.566,7.245z"/>
	</g>
</g>
<rect x="35.566" y="17.496" fill="#A30505" width="3.096" height="39.359"/>
</svg>
