<?xml version="1.0" encoding="utf-8"?>
<!-- Generator: Adobe Illustrator 16.0.4, SVG Export Plug-In . SVG Version: 6.00 Build 0)  -->
<!DOCTYPE svg PUBLIC "-//W3C//DTD SVG 1.1//EN" "http://www.w3.org/Graphics/SVG/1.1/DTD/svg11.dtd">
<svg version="1.1" id="Ebene_2" xmlns="http://www.w3.org/2000/svg" xmlns:xlink="http://www.w3.org/1999/xlink" x="0px" y="0px"
	 width="58.839px" height="56.855px" viewBox="0 0 58.839 56.855" enable-background="new 0 0 58.839 56.855" xml:space="preserve">
<rect y="0" fill="#B8F0FF" stroke="#B8F0FF" stroke-width="0.25" stroke-miterlimit="10" width="58.839" height="56.855"/>
<g>
	<g>
		<g>
			<g>
				<polyline fill="#00739B" points="18.331,34.161 18.581,34.675 18.323,37.876 18.068,34.675 18.319,34.161 				"/>
				<polyline fill="#00739B" points="18.319,33.051 18.068,32.537 18.327,29.334 18.581,32.537 18.331,33.051 				"/>
			</g>
			<polygon fill="#00739B" points="18.23,33.843 17.968,33.968 18.093,33.706 17.819,33.608 18.089,33.512 17.965,33.25 
				18.227,33.373 18.323,33.101 18.42,33.371 18.682,33.246 18.557,33.508 18.831,33.605 18.56,33.701 18.685,33.963 18.423,33.841 
				18.327,34.112 			"/>
		</g>
		<g>
			<polyline fill="#00739B" points="17.771,33.608 17.255,33.86 14.052,33.605 17.255,33.35 17.771,33.6 			"/>
			<polyline fill="#00739B" points="18.878,33.6 19.395,33.35 22.598,33.605 19.395,33.86 18.878,33.608 			"/>
		</g>
		<g>
			<polyline fill="#00739B" points="17.928,33.979 17.73,34.515 15.249,36.552 17.376,34.148 17.924,33.97 			"/>
			<polyline fill="#00739B" points="18.722,33.202 18.919,32.666 21.401,30.627 19.274,33.033 18.726,33.21 			"/>
		</g>
		<g>
			<polyline fill="#00739B" points="17.944,33.233 17.4,33.052 15.301,30.619 17.759,32.685 17.948,33.226 			"/>
			<polyline fill="#00739B" points="18.738,34.008 19.282,34.188 21.381,36.623 18.919,34.552 18.729,34.011 			"/>
		</g>
	</g>
	<g>
		<g>
			<g>
				<polyline fill="#00739B" points="10.536,48.489 10.997,48.825 12.276,51.771 10.548,49.064 10.528,48.492 				"/>
				<polyline fill="#00739B" points="10.008,47.513 9.544,47.177 8.268,44.229 9.994,46.937 10.014,47.509 				"/>
			</g>
			<polygon fill="#00739B" points="10.298,48.255 10.127,48.487 10.113,48.198 9.825,48.243 10.022,48.025 9.787,47.856 
				10.077,47.842 10.032,47.557 10.246,47.751 10.417,47.517 10.433,47.806 10.717,47.763 10.524,47.976 10.757,48.147 
				10.467,48.162 10.512,48.448 			"/>
		</g>
		<g>
			<polyline fill="#00739B" points="9.783,48.264 9.448,48.726 6.501,50.004 9.208,48.277 9.778,48.257 			"/>
			<polyline fill="#00739B" points="10.759,47.735 11.094,47.273 14.043,45.994 11.333,47.723 10.763,47.743 			"/>
		</g>
		<g>
			<polyline fill="#00739B" points="10.096,48.516 10.177,49.082 8.936,52.046 9.69,48.924 10.089,48.512 			"/>
			<polyline fill="#00739B" points="10.431,47.462 10.353,46.893 11.594,43.927 10.84,47.051 10.441,47.462 			"/>
		</g>
		<g>
			<polyline fill="#00739B" points="9.761,47.851 9.194,47.946 6.199,46.784 9.341,47.455 9.762,47.844 			"/>
			<polyline fill="#00739B" points="10.824,48.162 11.388,48.067 14.384,49.229 11.243,48.557 10.822,48.171 			"/>
		</g>
	</g>
	<g>
		<g>
			<g>
				<polyline fill="#00739B" points="28.833,16.5 28.673,17.048 26.334,19.248 28.294,16.705 28.827,16.493 				"/>
				<polyline fill="#00739B" points="29.572,15.672 29.731,15.122 32.075,12.922 30.11,15.464 29.579,15.677 				"/>
			</g>
			<polygon fill="#00739B" points="28.971,16.195 28.696,16.115 28.964,16.002 28.825,15.746 29.092,15.859 29.175,15.581 
				29.287,15.847 29.54,15.71 29.431,15.976 29.708,16.059 29.441,16.172 29.579,16.425 29.312,16.314 29.228,16.593 29.117,16.324 
				28.865,16.463 			"/>
		</g>
		<g>
			<polyline fill="#00739B" points="28.789,15.714 28.24,15.555 26.042,13.216 28.583,15.178 28.794,15.708 			"/>
			<polyline fill="#00739B" points="29.617,16.455 30.164,16.615 32.366,18.955 29.822,16.991 29.61,16.459 			"/>
		</g>
		<g>
			<polyline fill="#00739B" points="28.658,16.097 28.154,16.361 24.943,16.199 28.137,15.851 28.659,16.086 			"/>
			<polyline fill="#00739B" points="29.767,16.052 30.273,15.789 33.484,15.948 30.289,16.298 29.767,16.063 			"/>
		</g>
		<g>
			<polyline fill="#00739B" points="29.169,15.552 28.889,15.053 28.969,11.84 29.4,15.025 29.179,15.551 			"/>
			<polyline fill="#00739B" points="29.238,16.659 29.517,17.16 29.437,20.371 29.008,17.189 29.231,16.661 			"/>
		</g>
	</g>
	<g>
		<g>
			<g>
				<polyline fill="#00739B" points="43.856,29.353 44.405,29.512 46.604,31.851 44.062,29.89 43.85,29.359 				"/>
				<polyline fill="#00739B" points="43.028,28.614 42.478,28.454 40.279,26.112 42.821,28.075 43.035,28.608 				"/>
			</g>
			<polygon fill="#00739B" points="43.552,29.215 43.472,29.49 43.358,29.222 43.103,29.361 43.215,29.094 42.937,29.01 
				43.204,28.9 43.066,28.646 43.333,28.755 43.416,28.479 43.528,28.744 43.781,28.608 43.67,28.873 43.949,28.958 43.68,29.068 
				43.82,29.32 			"/>
		</g>
		<g>
			<polyline fill="#00739B" points="43.071,29.398 42.912,29.945 40.573,32.146 42.535,29.603 43.064,29.39 			"/>
			<polyline fill="#00739B" points="43.812,28.57 43.971,28.021 46.311,25.819 44.348,28.364 43.815,28.575 			"/>
		</g>
		<g>
			<polyline fill="#00739B" points="43.453,29.528 43.717,30.032 43.556,33.244 43.208,30.049 43.443,29.525 			"/>
			<polyline fill="#00739B" points="43.409,28.418 43.145,27.912 43.304,24.701 43.655,27.896 43.418,28.418 			"/>
		</g>
		<g>
			<polyline fill="#00739B" points="42.91,29.016 42.41,29.297 39.197,29.217 42.381,28.785 42.907,29.007 			"/>
			<polyline fill="#00739B" points="44.015,28.948 44.517,28.668 47.728,28.748 44.544,29.177 44.018,28.954 			"/>
		</g>
	</g>
	<g>
		<g>
			<g>
				<polyline fill="#00739B" points="11.104,11.789 11.418,11.31 14.295,9.885 11.678,11.748 11.109,11.797 				"/>
				<polyline fill="#00739B" points="10.156,12.365 9.845,12.844 6.963,14.271 9.583,12.405 10.153,12.357 				"/>
			</g>
			<polygon fill="#00739B" points="10.884,12.039 11.124,12.198 10.836,12.226 10.895,12.51 10.671,12.324 10.511,12.569 
				10.481,12.282 10.2,12.341 10.38,12.117 10.14,11.956 10.427,11.926 10.37,11.644 10.593,11.827 10.754,11.585 10.783,11.874 
				11.064,11.817 			"/>
		</g>
		<g>
			<polyline fill="#00739B" points="10.919,12.552 11.398,12.865 12.821,15.745 10.96,13.127 10.912,12.556 			"/>
			<polyline fill="#00739B" points="10.342,11.603 9.865,11.291 8.439,8.412 10.302,11.03 10.349,11.6 			"/>
		</g>
		<g>
			<polyline fill="#00739B" points="11.155,12.226 11.716,12.119 14.74,13.207 11.583,12.611 11.152,12.236 			"/>
			<polyline fill="#00739B" points="10.082,11.946 9.521,12.051 6.495,10.963 9.653,11.559 10.084,11.934 			"/>
		</g>
		<g>
			<polyline fill="#00739B" points="10.508,12.598 10.632,13.159 9.62,16.209 10.132,13.036 10.498,12.594 			"/>
			<polyline fill="#00739B" points="10.766,11.519 10.641,10.959 11.653,7.908 11.137,11.077 10.771,11.519 			"/>
		</g>
	</g>
	<g>
		<g>
			<g>
				<polyline fill="#00739B" points="47.783,49.101 47.9,49.662 46.872,52.704 47.408,49.535 47.775,49.097 				"/>
				<polyline fill="#00739B" points="48.048,48.022 47.928,47.462 48.959,44.418 48.423,47.587 48.052,48.025 				"/>
			</g>
			<polygon fill="#00739B" points="47.762,48.766 47.481,48.823 47.666,48.602 47.42,48.441 47.709,48.412 47.654,48.128 
				47.875,48.311 48.032,48.069 48.065,48.355 48.347,48.3 48.165,48.523 48.408,48.682 48.118,48.711 48.178,48.997 47.953,48.813 
				47.794,49.052 			"/>
		</g>
		<g>
			<polyline fill="#00739B" points="47.375,48.428 46.816,48.548 43.774,47.518 46.941,48.054 47.375,48.421 			"/>
			<polyline fill="#00739B" points="48.456,48.69 49.011,48.573 52.057,49.603 48.891,49.069 48.452,48.698 			"/>
		</g>
		<g>
			<polyline fill="#00739B" points="47.44,48.828 47.118,49.3 44.213,50.669 46.865,48.855 47.435,48.817 			"/>
			<polyline fill="#00739B" points="48.395,48.267 48.717,47.796 51.626,46.425 48.971,48.235 48.404,48.275 			"/>
		</g>
		<g>
			<polyline fill="#00739B" points="47.634,48.106 47.151,47.798 45.708,44.925 47.59,47.53 47.641,48.102 			"/>
			<polyline fill="#00739B" points="48.213,49.052 48.698,49.359 50.139,52.232 48.262,49.625 48.21,49.052 			"/>
		</g>
	</g>
	<g>
		<g>
			<g>
				<polyline fill="#00739B" points="47.36,11.865 47.201,12.412 44.862,14.613 46.822,12.07 47.354,11.858 				"/>
				<polyline fill="#00739B" points="48.099,11.036 48.258,10.487 50.602,8.286 48.637,10.829 48.106,11.042 				"/>
			</g>
			<polygon fill="#00739B" points="47.499,11.56 47.223,11.48 47.492,11.366 47.352,11.111 47.62,11.223 47.703,10.946 
				47.814,11.212 48.067,11.075 47.958,11.341 48.235,11.424 47.968,11.536 48.106,11.79 47.839,11.679 47.755,11.957 
				47.644,11.689 47.392,11.828 			"/>
		</g>
		<g>
			<polyline fill="#00739B" points="47.316,11.079 46.767,10.92 44.569,8.58 47.11,10.543 47.322,11.073 			"/>
			<polyline fill="#00739B" points="48.144,11.82 48.691,11.979 50.893,14.32 48.349,12.356 48.137,11.824 			"/>
		</g>
		<g>
			<polyline fill="#00739B" points="47.185,11.462 46.681,11.725 43.47,11.564 46.665,11.216 47.186,11.451 			"/>
			<polyline fill="#00739B" points="48.294,11.417 48.8,11.154 52.011,11.312 48.816,11.663 48.294,11.427 			"/>
		</g>
		<g>
			<polyline fill="#00739B" points="47.697,10.917 47.417,10.418 47.497,7.205 47.927,10.39 47.707,10.915 			"/>
			<polyline fill="#00739B" points="47.765,12.024 48.044,12.525 47.964,15.736 47.536,12.553 47.758,12.026 			"/>
		</g>
	</g>
	<g>
		<g>
			<g>
				<polyline fill="#00739B" points="31.709,40.385 32.258,40.545 34.458,42.883 31.916,40.922 31.704,40.39 				"/>
				<polyline fill="#00739B" points="30.881,39.645 30.332,39.486 28.132,37.143 30.674,39.107 30.888,39.639 				"/>
			</g>
			<polygon fill="#00739B" points="31.406,40.246 31.326,40.521 31.211,40.254 30.957,40.392 31.069,40.125 30.791,40.043 
				31.057,39.931 30.919,39.677 31.186,39.787 31.269,39.51 31.381,39.776 31.634,39.639 31.524,39.905 31.802,39.99 31.534,40.099 
				31.673,40.351 			"/>
		</g>
		<g>
			<polyline fill="#00739B" points="30.924,40.429 30.765,40.976 28.426,43.177 30.388,40.635 30.917,40.422 			"/>
			<polyline fill="#00739B" points="31.666,39.601 31.825,39.052 34.165,36.851 32.202,39.396 31.668,39.607 			"/>
		</g>
		<g>
			<polyline fill="#00739B" points="31.306,40.56 31.571,41.064 31.41,44.275 31.061,41.08 31.296,40.556 			"/>
			<polyline fill="#00739B" points="31.262,39.45 30.999,38.944 31.158,35.733 31.508,38.927 31.272,39.45 			"/>
		</g>
		<g>
			<polyline fill="#00739B" points="30.763,40.049 30.263,40.328 27.05,40.248 30.235,39.816 30.76,40.039 			"/>
			<polyline fill="#00739B" points="31.869,39.98 32.371,39.699 35.582,39.78 32.398,40.209 31.872,39.986 			"/>
		</g>
	</g>
</g>
</svg>
