<?xml version="1.0" encoding="utf-8"?>
<!-- Generator: Adobe Illustrator 16.0.4, SVG Export Plug-In . SVG Version: 6.00 Build 0)  -->
<!DOCTYPE svg PUBLIC "-//W3C//DTD SVG 1.1//EN" "http://www.w3.org/Graphics/SVG/1.1/DTD/svg11.dtd">
<svg version="1.1"
	 id="svg9432" xmlns:rdf="http://www.w3.org/1999/02/22-rdf-syntax-ns#" xmlns:inkscape="http://www.inkscape.org/namespaces/inkscape" xmlns:sodipodi="http://sodipodi.sourceforge.net/DTD/sodipodi-0.dtd" xmlns:dc="http://purl.org/dc/elements/1.1/" xmlns:cc="http://creativecommons.org/ns#" xmlns:svg="http://www.w3.org/2000/svg" sodipodi:docname="A-K2a-III_Grauwacke.svg" inkscape:version="0.92.3 (2405546, 2018-03-11)"
	 xmlns="http://www.w3.org/2000/svg" xmlns:xlink="http://www.w3.org/1999/xlink" x="0px" y="0px" width="58.839px"
	 height="56.855px" viewBox="0 0 58.839 56.855" enable-background="new 0 0 58.839 56.855" xml:space="preserve">
<sodipodi:namedview  inkscape:cy="28.738358" showguides="true" fit-margin-top="0" inkscape:cx="33.045877" borderopacity="1.0" fit-margin-left="0" pagecolor="#ffffff" inkscape:zoom="7.848108" bordercolor="#666666" showgrid="true" inkscape:window-maximized="1" inkscape:window-height="989" fit-margin-bottom="0" inkscape:window-width="1680" inkscape:document-units="px" inkscape:snap-global="false" inkscape:window-x="1671" inkscape:guide-bbox="true" inkscape:current-layer="layer1" inkscape:window-y="-9" inkscape:pageshadow="2" fit-margin-right="0" inkscape:grid-bbox="true" inkscape:pageopacity="0.0" id="base">
	</sodipodi:namedview>
<sodipodi:namedview  inkscape:cy="28.738358" showguides="true" fit-margin-top="0" inkscape:cx="33.045877" borderopacity="1.0" fit-margin-left="0" pagecolor="#ffffff" inkscape:zoom="7.848108" bordercolor="#666666" showgrid="true" inkscape:window-maximized="1" inkscape:window-height="989" fit-margin-bottom="0" inkscape:window-width="1680" inkscape:document-units="px" inkscape:snap-global="false" inkscape:window-x="1671" inkscape:guide-bbox="true" inkscape:current-layer="layer1" inkscape:window-y="-9" inkscape:pageshadow="2" fit-margin-right="0" inkscape:grid-bbox="true" inkscape:pageopacity="0.0" id="base">
	</sodipodi:namedview>
<sodipodi:namedview  inkscape:cy="28.738358" showguides="true" fit-margin-top="0" inkscape:cx="33.045877" borderopacity="1.0" fit-margin-left="0" pagecolor="#ffffff" inkscape:zoom="7.848108" bordercolor="#666666" showgrid="true" inkscape:window-maximized="1" inkscape:window-height="989" fit-margin-bottom="0" inkscape:window-width="1680" inkscape:document-units="px" inkscape:snap-global="false" inkscape:window-x="1671" inkscape:guide-bbox="true" inkscape:current-layer="layer1" inkscape:window-y="-9" inkscape:pageshadow="2" fit-margin-right="0" inkscape:grid-bbox="true" inkscape:pageopacity="0.0" id="base">
	</sodipodi:namedview>
<rect y="0" fill="#8F8D0E" stroke="#8F8D0E" stroke-width="1.2" stroke-miterlimit="10" width="58.839" height="56.855"/>
<g>
	<line fill="#E60000" x1="29.316" y1="21.273" x2="29.316" y2="52.255"/>
	<g>
		<line fill="none" stroke="#FFFFFF" stroke-width="4" stroke-miterlimit="10" x1="29.316" y1="21.273" x2="29.316" y2="43.843"/>
		<g>
			<polygon fill="#FFFFFF" points="39.035,42.539 19.597,42.539 29.314,52.255 			"/>
		</g>
	</g>
</g>
<g>
	<path fill="#FFFFFF" d="M50.411,20.099c0,0-0.764-0.229-2.012-0.729c-0.307-0.129-0.647-0.272-1.018-0.428
		c-0.363-0.117-0.756-0.244-1.175-0.379c-0.812-0.276-1.664-0.599-2.687-0.86c-0.484-0.149-0.988-0.304-1.51-0.465
		c-0.54-0.11-1.075-0.253-1.628-0.383c-0.276-0.063-0.55-0.139-0.824-0.218c-0.281-0.063-0.573-0.102-0.862-0.155
		c-0.583-0.089-1.155-0.231-1.742-0.348c-1.207-0.111-2.398-0.37-3.644-0.421c-1.23-0.147-2.486-0.127-3.735-0.186
		c-1.25,0.053-2.503,0.034-3.734,0.174c-1.244,0.054-2.438,0.296-3.644,0.408c-0.587,0.112-1.158,0.255-1.742,0.34
		c-0.289,0.051-0.582,0.088-0.863,0.15c-0.276,0.076-0.548,0.154-0.825,0.215c-0.553,0.127-1.09,0.264-1.629,0.375
		c-0.522,0.158-1.027,0.311-1.512,0.457c-1.013,0.248-1.9,0.589-2.726,0.872c-0.419,0.134-0.807,0.273-1.187,0.383
		c-0.359,0.143-0.689,0.274-0.987,0.394c-1.221,0.465-2.008,0.707-2.008,0.707s0.293-0.716,0.961-1.927
		c0.166-0.305,0.361-0.633,0.582-0.99c0.237-0.336,0.517-0.678,0.811-1.06c0.295-0.381,0.63-0.766,0.981-1.187
		c0.349-0.425,0.791-0.768,1.221-1.187c0.441-0.402,0.916-0.809,1.414-1.23c0.523-0.373,1.084-0.735,1.66-1.123
		c0.573-0.398,1.192-0.748,1.85-1.057c0.648-0.335,1.334-0.629,2.029-0.948c0.711-0.263,1.452-0.49,2.202-0.727
		c0.744-0.271,1.527-0.407,2.318-0.548c1.573-0.371,3.214-0.393,4.846-0.489c1.632,0.104,3.272,0.139,4.843,0.518
		c0.79,0.144,1.571,0.291,2.314,0.562c0.75,0.237,1.487,0.474,2.197,0.739c0.694,0.319,1.377,0.621,2.023,0.958
		c0.656,0.312,1.275,0.661,1.845,1.065c0.574,0.39,1.134,0.752,1.654,1.13c0.496,0.422,0.97,0.83,1.408,1.235
		c0.431,0.423,0.861,0.759,1.223,1.197c0.361,0.432,0.706,0.823,1.004,1.212c0.299,0.387,0.579,0.734,0.815,1.072
		c0.206,0.346,0.387,0.665,0.544,0.963C50.099,19.365,50.411,20.099,50.411,20.099z"/>
</g>
</svg>
