<?xml version="1.0" encoding="utf-8"?>
<!-- Generator: Adobe Illustrator 16.0.4, SVG Export Plug-In . SVG Version: 6.00 Build 0)  -->
<!DOCTYPE svg PUBLIC "-//W3C//DTD SVG 1.1//EN" "http://www.w3.org/Graphics/SVG/1.1/DTD/svg11.dtd">
<svg version="1.1" id="Ebene_3" xmlns="http://www.w3.org/2000/svg" xmlns:xlink="http://www.w3.org/1999/xlink" x="0px" y="0px"
	 width="58.839px" height="56.855px" viewBox="0 0 58.839 56.855" enable-background="new 0 0 58.839 56.855" xml:space="preserve">
<path fill="#0EAD25" stroke="#0EAD25" stroke-width="2" stroke-miterlimit="10" d="M58.839,28.352
	c0,15.651-12.693,28.341-28.346,28.341c-15.652,0-28.348-12.688-28.348-28.341C2.146,12.694,14.843,0,30.494,0
	C46.146,0,58.839,12.694,58.839,28.352z"/>
<g>
	<path fill="none" stroke="#FFFFFF" stroke-width="2.5" stroke-miterlimit="10" d="M18.814,18.101
		c-5.263,3.327-6.593,10.653-2.972,16.38"/>
	<path fill="none" stroke="#FFFFFF" stroke-width="2.5" stroke-miterlimit="10" d="M14.113,13.027
		c-7.896,4.992-9.888,15.98-4.459,24.571"/>
</g>
<g>
	<path fill="none" stroke="#FFFFFF" stroke-width="2.5" stroke-miterlimit="10" d="M42.125,18.105
		c5.266,3.324,6.598,10.651,2.979,16.378"/>
	<path fill="none" stroke="#FFFFFF" stroke-width="2.5" stroke-miterlimit="10" d="M46.825,13.028
		c7.897,4.988,9.895,15.974,4.469,24.567"/>
</g>
<g>
	<path fill="#FFFFFF" d="M39.636,39.929v-6.146c0-4.329-3.01-7.947-7.048-8.898c-0.025-1.137-0.951-2.052-2.094-2.052
		c-1.142,0-2.073,0.918-2.097,2.052c-4.039,0.951-7.048,4.569-7.048,8.898v6.146c-1.523,0-2.755,1.231-2.755,2.754v1.943h23.796
		v-1.943C42.391,41.162,41.159,39.929,39.636,39.929z"/>
	<path fill="#FFFFFF" d="M30.495,48.276c1.824,0,3.35-1.229,3.83-2.9H26.66C27.142,47.048,28.669,48.276,30.495,48.276z"/>
</g>
</svg>
