<?xml version="1.0" encoding="utf-8"?>
<!-- Generator: Adobe Illustrator 16.0.4, SVG Export Plug-In . SVG Version: 6.00 Build 0)  -->
<!DOCTYPE svg PUBLIC "-//W3C//DTD SVG 1.1//EN" "http://www.w3.org/Graphics/SVG/1.1/DTD/svg11.dtd">
<svg version="1.1" id="Ebene_2" xmlns="http://www.w3.org/2000/svg" xmlns:xlink="http://www.w3.org/1999/xlink" x="0px" y="0px"
	 width="58.839px" height="56.855px" viewBox="0 0 58.839 56.855" enable-background="new 0 0 58.839 56.855" xml:space="preserve">
<rect y="0" fill="#FFFFFF" stroke="#FF6E0A" stroke-width="2" stroke-miterlimit="10" width="58.839" height="56.855"/>
<path fill="#FF6E0A" d="M36.344,56.855l6.153-15.525l2.51-13.5V15.677l3.639-6.751L52.271,0h6.568v56.855H36.344L36.344,56.855z"/>
<ellipse fill="#FF6E0A" cx="41.523" cy="9.033" rx="5.516" ry="5.33"/>
<ellipse fill="#FF6E0A" cx="35.395" cy="29.17" rx="5.517" ry="5.33"/>
<ellipse fill="#FF6E0A" cx="29.725" cy="47.377" rx="5.517" ry="5.33"/>
<path fill="#FF6E0A" d="M8.33,34.391l-0.688-0.289l-0.807,0.816l-0.403,1.282v0.704l0.748,1.105l0.979,0.643l0.574,0.119
	l-1.15,0.408l-1.379,0.234l-0.058,1.163l0.403,0.466l0.574,0.585l1.438,0.178l-0.17,0.873l-0.808,0.759l0.233,0.523l1.091,0.231
	l0.459-0.289l0.402-0.123l0.517,0.059c0,0,0.39-0.015,0.52,0c0.249,0.032,1.089-0.166,1.089-0.166s-0.22,3.557-0.281,4.604
	c-0.025,0.351-0.08,1.047-0.115,1.401c-0.065,0.613-0.188,1.842-0.287,2.448c-0.1,0.574-0.266,1.748-0.521,2.279
	c-0.212,0.433-1.206,1.513-1.206,1.513l-1.554,0.582L6.934,56.83l11.055,0.025l-1.61-0.932l-1.265-1.286
	c0,0-0.434-0.722-0.521-0.989c-0.094-0.296-0.144-0.921-0.173-1.221c-0.043-0.517-0.325-1.361-0.343-1.863
	c-0.021-0.563-0.174-1.846-0.228-2.402c-0.08-0.726-0.058-2.914-0.058-2.914l-0.174-1.401l1.264,0.932l1.669,0.589l1.095-1.286
	l0.747-1.228L17.7,41.571l-0.689-1.517l0.632-1.752l0.115-2.391l-0.173-2.099l-0.401-1.401l-1.61-0.585l-1.325,0.759l-2.124,0.23
	l-1.32-0.928l-1.555-0.119l-0.17,1.693L8.33,34.391z"/>
</svg>
