<?xml version="1.0" encoding="utf-8"?>
<!-- Generator: Adobe Illustrator 16.0.4, SVG Export Plug-In . SVG Version: 6.00 Build 0)  -->
<!DOCTYPE svg PUBLIC "-//W3C//DTD SVG 1.1//EN" "http://www.w3.org/Graphics/SVG/1.1/DTD/svg11.dtd">
<svg version="1.1"
	 id="svg9432" sodipodi:docname="A-K2a-III_Grauwacke.svg" inkscape:version="0.92.3 (2405546, 2018-03-11)" xmlns:svg="http://www.w3.org/2000/svg" xmlns:rdf="http://www.w3.org/1999/02/22-rdf-syntax-ns#" xmlns:inkscape="http://www.inkscape.org/namespaces/inkscape" xmlns:dc="http://purl.org/dc/elements/1.1/" xmlns:cc="http://creativecommons.org/ns#" xmlns:sodipodi="http://sodipodi.sourceforge.net/DTD/sodipodi-0.dtd"
	 xmlns="http://www.w3.org/2000/svg" xmlns:xlink="http://www.w3.org/1999/xlink" x="0px" y="0px" width="58.839px"
	 height="56.855px" viewBox="0 0 58.839 56.855" enable-background="new 0 0 58.839 56.855" xml:space="preserve">
<sodipodi:namedview  inkscape:cy="28.738358" showguides="true" inkscape:zoom="7.848108" pagecolor="#ffffff" id="base" bordercolor="#666666" showgrid="true" fit-margin-top="0" inkscape:cx="33.045877" fit-margin-left="0" borderopacity="1.0" inkscape:window-x="1671" inkscape:window-y="-9" inkscape:document-units="px" inkscape:pageopacity="0.0" fit-margin-right="0" inkscape:grid-bbox="true" inkscape:pageshadow="2" fit-margin-bottom="0" inkscape:guide-bbox="true" inkscape:window-width="1680" inkscape:window-height="989" inkscape:window-maximized="1" inkscape:current-layer="layer1" inkscape:snap-global="false">
	</sodipodi:namedview>
<sodipodi:namedview  inkscape:cy="28.738358" showguides="true" inkscape:zoom="7.848108" pagecolor="#ffffff" id="base" bordercolor="#666666" showgrid="true" fit-margin-top="0" inkscape:cx="33.045877" fit-margin-left="0" borderopacity="1.0" inkscape:window-x="1671" inkscape:window-y="-9" inkscape:document-units="px" inkscape:pageopacity="0.0" fit-margin-right="0" inkscape:grid-bbox="true" inkscape:pageshadow="2" fit-margin-bottom="0" inkscape:guide-bbox="true" inkscape:window-width="1680" inkscape:window-height="989" inkscape:window-maximized="1" inkscape:current-layer="layer1" inkscape:snap-global="false">
	</sodipodi:namedview>
<sodipodi:namedview  inkscape:cy="28.738358" showguides="true" inkscape:zoom="7.848108" pagecolor="#ffffff" id="base" bordercolor="#666666" showgrid="true" fit-margin-top="0" inkscape:cx="33.045877" fit-margin-left="0" borderopacity="1.0" inkscape:window-x="1671" inkscape:window-y="-9" inkscape:document-units="px" inkscape:pageopacity="0.0" fit-margin-right="0" inkscape:grid-bbox="true" inkscape:pageshadow="2" fit-margin-bottom="0" inkscape:guide-bbox="true" inkscape:window-width="1680" inkscape:window-height="989" inkscape:window-maximized="1" inkscape:current-layer="layer1" inkscape:snap-global="false">
	</sodipodi:namedview>
<rect y="0.001" fill="#FFFFFF" stroke="#D50000" stroke-width="4" stroke-miterlimit="10" width="58.838" height="56.683"/>
<polygon fill="#D50000" stroke="#D50000" stroke-width="0.5" stroke-miterlimit="10" points="36.341,56.683 42.498,41.205 
	45.011,27.743 45.011,15.632 48.646,8.899 52.273,0.001 58.838,0.001 58.838,56.683 "/>
<polygon fill="#D50000" points="31.864,20.628 29.809,6.987 43.09,12.089 "/>
<g>
	<path fill="#D50000" d="M16.379,44.955l-0.037-0.886c-0.037-1.771,0.552-3.543,2.096-5.314c0.993-1.134,1.986-2.197,1.986-3.225
		c0-0.956-0.699-1.63-2.316-1.7c-1.214,0-2.648,0.39-3.641,1.027l-1.397-4.57c1.397-0.709,3.604-1.453,6.545-1.453
		c5.112,0,7.465,2.622,7.465,5.634c0,2.87-1.912,4.642-3.163,5.917c-1.213,1.24-1.765,2.551-1.765,4.074l-0.037,0.496H16.379z
		 M19.064,53.529c-2.207,0-3.714-1.559-3.714-3.649c0-2.161,1.544-3.649,3.751-3.685c2.243,0,3.751,1.523,3.788,3.685
		c0,2.091-1.508,3.649-3.788,3.649H19.064z"/>
</g>
</svg>
