<?xml version="1.0" encoding="utf-8"?>
<!-- Generator: Adobe Illustrator 16.0.4, SVG Export Plug-In . SVG Version: 6.00 Build 0)  -->
<!DOCTYPE svg PUBLIC "-//W3C//DTD SVG 1.1//EN" "http://www.w3.org/Graphics/SVG/1.1/DTD/svg11.dtd">
<svg version="1.1"
	 id="svg9432" inkscape:version="0.92.3 (2405546, 2018-03-11)" sodipodi:docname="A-K2a-III_Grauwacke.svg" xmlns:sodipodi="http://sodipodi.sourceforge.net/DTD/sodipodi-0.dtd" xmlns:cc="http://creativecommons.org/ns#" xmlns:rdf="http://www.w3.org/1999/02/22-rdf-syntax-ns#" xmlns:inkscape="http://www.inkscape.org/namespaces/inkscape" xmlns:dc="http://purl.org/dc/elements/1.1/" xmlns:svg="http://www.w3.org/2000/svg"
	 xmlns="http://www.w3.org/2000/svg" xmlns:xlink="http://www.w3.org/1999/xlink" x="0px" y="0px" width="58.839px"
	 height="56.855px" viewBox="0 0 58.839 56.855" enable-background="new 0 0 58.839 56.855" xml:space="preserve">
<rect y="0" fill="#A30505" stroke="#A30505" stroke-width="2" stroke-miterlimit="10" width="58.833" height="56.855"/>
<sodipodi:namedview  id="base" inkscape:window-width="1680" inkscape:window-height="989" inkscape:document-units="px" inkscape:guide-bbox="true" fit-margin-right="0" inkscape:window-y="-9" inkscape:snap-global="false" inkscape:window-maximized="1" inkscape:grid-bbox="true" inkscape:current-layer="layer1" inkscape:pageshadow="2" fit-margin-bottom="0" inkscape:pageopacity="0.0" inkscape:window-x="1671" borderopacity="1.0" pagecolor="#ffffff" showgrid="true" showguides="true" inkscape:cx="33.045877" fit-margin-top="0" inkscape:zoom="7.848108" fit-margin-left="0" bordercolor="#666666" inkscape:cy="28.738358">
	</sodipodi:namedview>
<sodipodi:namedview  id="base" inkscape:window-width="1680" inkscape:window-height="989" inkscape:document-units="px" inkscape:guide-bbox="true" fit-margin-right="0" inkscape:window-y="-9" inkscape:snap-global="false" inkscape:window-maximized="1" inkscape:grid-bbox="true" inkscape:current-layer="layer1" inkscape:pageshadow="2" fit-margin-bottom="0" inkscape:pageopacity="0.0" inkscape:window-x="1671" borderopacity="1.0" pagecolor="#ffffff" showgrid="true" showguides="true" inkscape:cx="33.045877" fit-margin-top="0" inkscape:zoom="7.848108" fit-margin-left="0" bordercolor="#666666" inkscape:cy="28.738358">
	</sodipodi:namedview>
<sodipodi:namedview  id="base" inkscape:window-width="1680" inkscape:window-height="989" inkscape:document-units="px" inkscape:guide-bbox="true" fit-margin-right="0" inkscape:window-y="-9" inkscape:snap-global="false" inkscape:window-maximized="1" inkscape:grid-bbox="true" inkscape:current-layer="layer1" inkscape:pageshadow="2" fit-margin-bottom="0" inkscape:pageopacity="0.0" inkscape:window-x="1671" borderopacity="1.0" pagecolor="#ffffff" showgrid="true" showguides="true" inkscape:cx="33.045877" fit-margin-top="0" inkscape:zoom="7.848108" fit-margin-left="0" bordercolor="#666666" inkscape:cy="28.738358">
	</sodipodi:namedview>
<g>
	<polygon fill="#FFFFFF" stroke="#FFFFFF" stroke-width="0.3" stroke-miterlimit="10" points="34.363,13.717 32.33,15.14 
		32.259,18.539 31.494,19.674 31.494,21.485 31.98,22.694 31.56,23.601 31.843,27.755 31.56,28.589 32.117,32.74 31.143,33.644 
		30.793,38.027 29.608,42.105 6.013,42.277 5.323,43.799 53.123,43.799 35.363,13.353 	"/>
	<polygon fill="#FFFFFF" stroke="#FFFFFF" stroke-width="0.3" stroke-miterlimit="10" points="27.995,13.336 30.016,12.909 
		31.061,13.858 31.617,13.434 32.429,14.345 31.582,16.434 30.538,17.545 28.874,17.707 27.472,17.835 26.982,16.532 26.46,15.551 
		27.669,14.641 	"/>
	<polygon fill="#FFFFFF" stroke="#FFFFFF" stroke-width="0.3" stroke-miterlimit="10" points="27.862,22.439 29.362,22.799 
		29.266,24.495 29.752,24.822 29.266,25.472 29.036,26.253 28.317,26.876 27.928,26.712 27.765,27.267 27.438,28.017 26.624,27.562 
		26.067,26.681 26.263,25.667 26.101,24.136 26.493,22.929 	"/>
	<polygon fill="#FFFFFF" stroke="#FFFFFF" stroke-width="0.3" stroke-miterlimit="10" points="24.786,30.222 25.209,30.353 
		25.667,30.123 26.024,30.256 26.122,30.713 26.776,31.398 27.038,32.179 26.514,33.06 26.676,33.517 25.827,34.17 24.883,34.724 
		24.069,34.234 23.578,34.269 23.448,32.703 23.122,31.722 23.937,30.906 	"/>
	<polygon fill="#FFFFFF" stroke="#FFFFFF" stroke-width="0.3" stroke-miterlimit="10" points="18.08,35.24 16.875,36.054 
		15.864,37.818 16.776,39.123 16.776,39.873 17.559,40.851 21.246,40.851 22.093,40.033 23.168,39.609 23.206,38.275 23.43,37.166 
		21.93,35.763 20.233,34.654 19.155,35.439 	"/>
</g>
</svg>
