<?xml version="1.0" encoding="utf-8"?>
<!-- Generator: Adobe Illustrator 16.0.4, SVG Export Plug-In . SVG Version: 6.00 Build 0)  -->
<!DOCTYPE svg PUBLIC "-//W3C//DTD SVG 1.1//EN" "http://www.w3.org/Graphics/SVG/1.1/DTD/svg11.dtd">
<svg version="1.1"
	 id="svg9432" sodipodi:docname="A-K2a-III_Grauwacke.svg" inkscape:version="0.92.3 (2405546, 2018-03-11)" xmlns:sodipodi="http://sodipodi.sourceforge.net/DTD/sodipodi-0.dtd" xmlns:svg="http://www.w3.org/2000/svg" xmlns:dc="http://purl.org/dc/elements/1.1/" xmlns:cc="http://creativecommons.org/ns#" xmlns:rdf="http://www.w3.org/1999/02/22-rdf-syntax-ns#" xmlns:inkscape="http://www.inkscape.org/namespaces/inkscape"
	 xmlns="http://www.w3.org/2000/svg" xmlns:xlink="http://www.w3.org/1999/xlink" x="0px" y="0px" width="58.839px"
	 height="56.855px" viewBox="0 0 58.839 56.855" enable-background="new 0 0 58.839 56.855" xml:space="preserve">
<rect y="0" fill="#FF6E0A" stroke="#FF6E0A" stroke-width="2" stroke-miterlimit="10" width="58.833" height="56.855"/>
<sodipodi:namedview  fit-margin-left="0" pagecolor="#ffffff" showguides="true" inkscape:cx="33.045877" fit-margin-top="0" inkscape:cy="28.738358" inkscape:zoom="7.848108" borderopacity="1.0" showgrid="true" bordercolor="#666666" id="base" fit-margin-bottom="0" inkscape:pageshadow="2" fit-margin-right="0" inkscape:document-units="px" inkscape:window-y="-9" inkscape:window-x="1671" inkscape:grid-bbox="true" inkscape:pageopacity="0.0" inkscape:snap-global="false" inkscape:current-layer="layer1" inkscape:window-maximized="1" inkscape:window-height="989" inkscape:window-width="1680" inkscape:guide-bbox="true">
	</sodipodi:namedview>
<sodipodi:namedview  fit-margin-left="0" pagecolor="#ffffff" showguides="true" inkscape:cx="33.045877" fit-margin-top="0" inkscape:cy="28.738358" inkscape:zoom="7.848108" borderopacity="1.0" showgrid="true" bordercolor="#666666" id="base" fit-margin-bottom="0" inkscape:pageshadow="2" fit-margin-right="0" inkscape:document-units="px" inkscape:window-y="-9" inkscape:window-x="1671" inkscape:grid-bbox="true" inkscape:pageopacity="0.0" inkscape:snap-global="false" inkscape:current-layer="layer1" inkscape:window-maximized="1" inkscape:window-height="989" inkscape:window-width="1680" inkscape:guide-bbox="true">
	</sodipodi:namedview>
<sodipodi:namedview  fit-margin-left="0" pagecolor="#ffffff" showguides="true" inkscape:cx="33.045877" fit-margin-top="0" inkscape:cy="28.738358" inkscape:zoom="7.848108" borderopacity="1.0" showgrid="true" bordercolor="#666666" id="base" fit-margin-bottom="0" inkscape:pageshadow="2" fit-margin-right="0" inkscape:document-units="px" inkscape:window-y="-9" inkscape:window-x="1671" inkscape:grid-bbox="true" inkscape:pageopacity="0.0" inkscape:snap-global="false" inkscape:current-layer="layer1" inkscape:window-maximized="1" inkscape:window-height="989" inkscape:window-width="1680" inkscape:guide-bbox="true">
	</sodipodi:namedview>
<g>
	<polygon fill="#FFFFFF" stroke="#B2B2B1" stroke-width="0.3" stroke-miterlimit="10" points="33.5,14.571 31.464,15.994 
		31.395,19.393 30.628,20.528 30.628,22.339 31.117,23.548 30.696,24.454 30.979,28.609 30.696,29.443 31.251,33.594 30.279,34.499 
		29.929,38.882 28.743,42.96 5.149,43.132 4.459,44.653 52.257,44.653 34.5,14.207 	"/>
	<polygon fill="#FFFFFF" stroke="#B2B2B1" stroke-width="0.3" stroke-miterlimit="10" points="27.131,14.19 29.152,13.763 
		30.197,14.712 30.751,14.288 31.565,15.199 30.716,17.288 29.674,18.399 28.01,18.561 26.608,18.689 26.118,17.385 25.596,16.405 
		26.805,15.495 	"/>
	<polygon fill="#FFFFFF" stroke="#B2B2B1" stroke-width="0.3" stroke-miterlimit="10" points="26.997,23.293 28.497,23.653 
		28.401,25.349 28.889,25.676 28.401,26.326 28.172,27.108 27.453,27.73 27.063,27.566 26.901,28.12 26.574,28.87 25.76,28.415 
		25.203,27.534 25.399,26.521 25.237,24.99 25.628,23.783 	"/>
	<polygon fill="#FFFFFF" stroke="#B2B2B1" stroke-width="0.3" stroke-miterlimit="10" points="23.921,31.077 24.345,31.208 
		24.802,30.977 25.16,31.11 25.257,31.567 25.912,32.253 26.173,33.034 25.65,33.915 25.812,34.372 24.962,35.024 24.02,35.579 
		23.204,35.089 22.713,35.124 22.583,33.557 22.258,32.577 23.073,31.76 	"/>
	<polygon fill="#FFFFFF" stroke="#B2B2B1" stroke-width="0.3" stroke-miterlimit="10" points="17.215,36.094 16.01,36.909 
		15,38.673 15.912,39.977 15.912,40.727 16.694,41.706 20.381,41.706 21.229,40.887 22.304,40.464 22.341,39.13 22.565,38.02 
		21.066,36.618 19.369,35.509 18.291,36.294 	"/>
</g>
</svg>
