<?xml version="1.0" encoding="utf-8"?>
<!-- Generator: Adobe Illustrator 16.0.4, SVG Export Plug-In . SVG Version: 6.00 Build 0)  -->
<!DOCTYPE svg PUBLIC "-//W3C//DTD SVG 1.1//EN" "http://www.w3.org/Graphics/SVG/1.1/DTD/svg11.dtd">
<svg version="1.1"
	 id="svg9432" sodipodi:docname="A-K2a-III_Grauwacke.svg" inkscape:version="0.92.3 (2405546, 2018-03-11)" xmlns:svg="http://www.w3.org/2000/svg" xmlns:rdf="http://www.w3.org/1999/02/22-rdf-syntax-ns#" xmlns:inkscape="http://www.inkscape.org/namespaces/inkscape" xmlns:dc="http://purl.org/dc/elements/1.1/" xmlns:cc="http://creativecommons.org/ns#" xmlns:sodipodi="http://sodipodi.sourceforge.net/DTD/sodipodi-0.dtd"
	 xmlns="http://www.w3.org/2000/svg" xmlns:xlink="http://www.w3.org/1999/xlink" x="0px" y="0px" width="58.839px"
	 height="56.855px" viewBox="0 0 58.839 56.855" enable-background="new 0 0 58.839 56.855" xml:space="preserve">
<rect x="0" y="0" fill="#FFFFFF" stroke="#A30505" stroke-width="4" stroke-miterlimit="10" width="58.834" height="56.855"/>
<sodipodi:namedview  inkscape:cy="28.738358" showguides="true" inkscape:zoom="7.848108" pagecolor="#ffffff" id="base" bordercolor="#666666" showgrid="true" fit-margin-top="0" inkscape:cx="33.045877" fit-margin-left="0" borderopacity="1.0" inkscape:window-x="1671" inkscape:window-y="-9" inkscape:document-units="px" inkscape:pageopacity="0.0" fit-margin-right="0" inkscape:grid-bbox="true" inkscape:pageshadow="2" fit-margin-bottom="0" inkscape:guide-bbox="true" inkscape:window-width="1680" inkscape:window-height="989" inkscape:window-maximized="1" inkscape:current-layer="layer1" inkscape:snap-global="false">
	</sodipodi:namedview>
<sodipodi:namedview  inkscape:cy="28.738358" showguides="true" inkscape:zoom="7.848108" pagecolor="#ffffff" id="base" bordercolor="#666666" showgrid="true" fit-margin-top="0" inkscape:cx="33.045877" fit-margin-left="0" borderopacity="1.0" inkscape:window-x="1671" inkscape:window-y="-9" inkscape:document-units="px" inkscape:pageopacity="0.0" fit-margin-right="0" inkscape:grid-bbox="true" inkscape:pageshadow="2" fit-margin-bottom="0" inkscape:guide-bbox="true" inkscape:window-width="1680" inkscape:window-height="989" inkscape:window-maximized="1" inkscape:current-layer="layer1" inkscape:snap-global="false">
	</sodipodi:namedview>
<sodipodi:namedview  inkscape:cy="28.738358" showguides="true" inkscape:zoom="7.848108" pagecolor="#ffffff" id="base" bordercolor="#666666" showgrid="true" fit-margin-top="0" inkscape:cx="33.045877" fit-margin-left="0" borderopacity="1.0" inkscape:window-x="1671" inkscape:window-y="-9" inkscape:document-units="px" inkscape:pageopacity="0.0" fit-margin-right="0" inkscape:grid-bbox="true" inkscape:pageshadow="2" fit-margin-bottom="0" inkscape:guide-bbox="true" inkscape:window-width="1680" inkscape:window-height="989" inkscape:window-maximized="1" inkscape:current-layer="layer1" inkscape:snap-global="false">
	</sodipodi:namedview>
<path fill="#A30505" d="M0,45.284l3.044-9.568c0,0,1.75-6.827,2.125-7.115s4-4.58,4-4.58s2.098-3.082,2.375-3.597
	c0.75-1.396,3.5-4.371,3.5-4.371s3.875,4.946,4,5.377c0.125,0.432,3.5,2.901,3.5,2.901s4.5,3.938,5.125,4.657
	c0.625,0.72,10,12.555,10,12.555s2.25,1.295,2.875,1.87c0.625,0.576,4,2.722,4.5,3.298c0.5,0.575,3.375,3.178,3.875,3.608
	c0.5,0.432,9.92,6.536,9.92,6.536H0V45.284z"/>
<g>
	<path fill="#A30505" d="M26.063,22.473c0.398,0.224,0.801,0.419,1.194,0.676c0.399,0.244,0.799,0.491,1.17,0.756
		c0.76,0.522,1.495,1.072,2.223,1.631c1.45,1.124,2.886,2.268,4.26,3.476c1.38,1.203,2.748,2.413,4.066,3.691l0.125,0.121
		l0.063,0.062l0.008,0.008l0.004,0.004c-0.098-0.104-0.024-0.027-0.045-0.05l0.016,0.014l0.032,0.028l0.257,0.223l0.514,0.446
		l1.029,0.889c0.686,0.595,1.403,1.157,2.118,1.723l-0.401-0.33c1.388,0.739,2.757,1.506,4.081,2.342
		c1.319,0.844,2.587,1.768,3.824,2.736l0.8,0.627l0.118,0.492c0.024,0.101,0.087,0.309,0.141,0.473l0.187,0.53
		c0.128,0.355,0.262,0.717,0.411,1.07c0.145,0.356,0.293,0.716,0.459,1.063c0.15,0.361,0.335,0.696,0.503,1.053
		c0.186,0.339,0.361,0.694,0.562,1.031c0.096,0.175,0.198,0.344,0.311,0.504l0.327,0.504l0.354,0.49
		c0.119,0.17,0.255,0.312,0.383,0.481c0.257,0.339,0.561,0.614,0.861,0.961l-0.197,0.459c-0.456-0.045-0.946-0.093-1.393-0.241
		c-0.227-0.067-0.474-0.12-0.685-0.22l-0.664-0.283c-0.431-0.206-0.856-0.447-1.249-0.717c-0.411-0.258-0.79-0.55-1.16-0.858
		c-0.729-0.62-1.39-1.314-1.988-2.056c-0.293-0.375-0.581-0.755-0.844-1.156l-0.387-0.613c-0.129-0.222-0.244-0.401-0.383-0.694
		l0.918,1.119c-1.388-0.739-2.745-1.523-4.051-2.389c-1.301-0.872-2.557-1.814-3.794-2.783l-0.373-0.292l-0.028-0.038
		c-0.545-0.73-1.088-1.463-1.663-2.164l-1.763-2.155l-3.355-4.214c-1.143-1.387-2.264-2.8-3.448-4.15
		c-0.591-0.677-1.189-1.348-1.812-1.99c-0.31-0.329-0.614-0.649-0.929-0.958c-0.302-0.321-0.663-0.615-0.995-0.922L26.063,22.473z"
		/>
</g>
</svg>
