<?xml version="1.0" encoding="utf-8"?>
<!-- Generator: Adobe Illustrator 16.0.4, SVG Export Plug-In . SVG Version: 6.00 Build 0)  -->
<!DOCTYPE svg PUBLIC "-//W3C//DTD SVG 1.1//EN" "http://www.w3.org/Graphics/SVG/1.1/DTD/svg11.dtd">
<svg version="1.1"
	 id="svg9432" sodipodi:docname="A-K2a-III_Grauwacke.svg" inkscape:version="0.92.3 (2405546, 2018-03-11)" xmlns:sodipodi="http://sodipodi.sourceforge.net/DTD/sodipodi-0.dtd" xmlns:svg="http://www.w3.org/2000/svg" xmlns:dc="http://purl.org/dc/elements/1.1/" xmlns:cc="http://creativecommons.org/ns#" xmlns:rdf="http://www.w3.org/1999/02/22-rdf-syntax-ns#" xmlns:inkscape="http://www.inkscape.org/namespaces/inkscape"
	 xmlns="http://www.w3.org/2000/svg" xmlns:xlink="http://www.w3.org/1999/xlink" x="0px" y="0px" width="58.839px"
	 height="56.855px" viewBox="0 0 58.839 56.855" enable-background="new 0 0 58.839 56.855" xml:space="preserve">
<rect y="0" fill="#D50000" stroke="#D50000" stroke-width="2" stroke-miterlimit="10" width="58.833" height="56.855"/>
<sodipodi:namedview  fit-margin-left="0" pagecolor="#ffffff" showguides="true" inkscape:cx="33.045877" fit-margin-top="0" inkscape:cy="28.738358" inkscape:zoom="7.848108" borderopacity="1.0" showgrid="true" bordercolor="#666666" id="base" fit-margin-bottom="0" inkscape:pageshadow="2" fit-margin-right="0" inkscape:document-units="px" inkscape:window-y="-9" inkscape:window-x="1671" inkscape:grid-bbox="true" inkscape:pageopacity="0.0" inkscape:snap-global="false" inkscape:current-layer="layer1" inkscape:window-maximized="1" inkscape:window-height="989" inkscape:window-width="1680" inkscape:guide-bbox="true">
	</sodipodi:namedview>
<sodipodi:namedview  fit-margin-left="0" pagecolor="#ffffff" showguides="true" inkscape:cx="33.045877" fit-margin-top="0" inkscape:cy="28.738358" inkscape:zoom="7.848108" borderopacity="1.0" showgrid="true" bordercolor="#666666" id="base" fit-margin-bottom="0" inkscape:pageshadow="2" fit-margin-right="0" inkscape:document-units="px" inkscape:window-y="-9" inkscape:window-x="1671" inkscape:grid-bbox="true" inkscape:pageopacity="0.0" inkscape:snap-global="false" inkscape:current-layer="layer1" inkscape:window-maximized="1" inkscape:window-height="989" inkscape:window-width="1680" inkscape:guide-bbox="true">
	</sodipodi:namedview>
<sodipodi:namedview  fit-margin-left="0" pagecolor="#ffffff" showguides="true" inkscape:cx="33.045877" fit-margin-top="0" inkscape:cy="28.738358" inkscape:zoom="7.848108" borderopacity="1.0" showgrid="true" bordercolor="#666666" id="base" fit-margin-bottom="0" inkscape:pageshadow="2" fit-margin-right="0" inkscape:document-units="px" inkscape:window-y="-9" inkscape:window-x="1671" inkscape:grid-bbox="true" inkscape:pageopacity="0.0" inkscape:snap-global="false" inkscape:current-layer="layer1" inkscape:window-maximized="1" inkscape:window-height="989" inkscape:window-width="1680" inkscape:guide-bbox="true">
	</sodipodi:namedview>
<g>
	<polygon fill="#FFFFFF" stroke="#FFFFFF" stroke-width="0.3" stroke-miterlimit="10" points="34.5,14.196 32.464,15.619 
		32.395,19.018 31.628,20.153 31.628,21.964 32.117,23.173 31.696,24.079 31.979,28.234 31.696,29.068 32.251,33.219 31.279,34.124 
		30.929,38.507 29.743,42.585 6.149,42.757 5.459,44.278 53.257,44.278 35.5,13.832 	"/>
	<polygon fill="#FFFFFF" stroke="#FFFFFF" stroke-width="0.3" stroke-miterlimit="10" points="28.131,13.815 30.152,13.388 
		31.197,14.337 31.751,13.913 32.565,14.824 31.716,16.913 30.673,18.024 29.01,18.186 27.608,18.314 27.118,17.01 26.596,16.03 
		27.805,15.12 	"/>
	<polygon fill="#FFFFFF" stroke="#FFFFFF" stroke-width="0.3" stroke-miterlimit="10" points="27.997,22.918 29.497,23.278 
		29.401,24.974 29.889,25.301 29.401,25.951 29.172,26.732 28.453,27.355 28.063,27.191 27.901,27.746 27.574,28.496 26.76,28.041 
		26.203,27.16 26.399,26.146 26.237,24.615 26.628,23.408 	"/>
	<polygon fill="#FFFFFF" stroke="#FFFFFF" stroke-width="0.3" stroke-miterlimit="10" points="24.921,30.702 25.345,30.833 
		25.802,30.602 26.16,30.735 26.257,31.192 26.912,31.878 27.173,32.659 26.65,33.54 26.812,33.997 25.962,34.649 25.02,35.204 
		24.204,34.714 23.713,34.749 23.583,33.182 23.258,32.202 24.073,31.385 	"/>
	<polygon fill="#FFFFFF" stroke="#FFFFFF" stroke-width="0.3" stroke-miterlimit="10" points="18.215,35.719 17.01,36.534 
		16,38.298 16.912,39.602 16.912,40.352 17.694,41.331 21.381,41.331 22.229,40.512 23.304,40.089 23.341,38.755 23.565,37.645 
		22.066,36.243 20.369,35.134 19.291,35.919 	"/>
</g>
</svg>
