<?xml version="1.0" encoding="utf-8"?>
<!-- Generator: Adobe Illustrator 16.0.4, SVG Export Plug-In . SVG Version: 6.00 Build 0)  -->
<!DOCTYPE svg PUBLIC "-//W3C//DTD SVG 1.1//EN" "http://www.w3.org/Graphics/SVG/1.1/DTD/svg11.dtd">
<svg version="1.1" id="Ebene_2" xmlns="http://www.w3.org/2000/svg" xmlns:xlink="http://www.w3.org/1999/xlink" x="0px" y="0px"
	 width="58.839px" height="56.855px" viewBox="0 0 58.839 56.855" enable-background="new 0 0 58.839 56.855" xml:space="preserve">
<rect y="0" fill="#FFFFFF" stroke="#A30505" stroke-width="2" stroke-miterlimit="10" width="58.839" height="56.855"/>
<path fill="#A30505" d="M42.406,5.293l-9.367,2.64l2.729,9.053l9.369-2.639L42.406,5.293z"/>
<path fill="#A30505" d="M36.794,24.106l-8.834,4.01l4.148,8.536l8.835-4.009L36.794,24.106z"/>
<path fill="#A30505" d="M31.85,43.498l-9.379,2.605l2.696,9.062l9.379-2.604L31.85,43.498L31.85,43.498z"/>
<path fill="#A30505" d="M36.352,56.855L42.5,41.331l2.516-13.503v-12.15l3.633-6.751L52.271,0h6.568v56.855H36.352L36.352,56.855
	L36.352,56.855z"/>
<path fill="#A30505" d="M6.847,29.619l-0.834-0.351l-0.979,0.989l-0.488,1.556v0.854l0.907,1.34l1.187,0.779l0.696,0.145
	l-1.395,0.495L4.268,35.71l-0.07,1.41l0.488,0.564l0.696,0.71l1.743,0.215l-0.206,1.06l-0.979,0.92l0.282,0.635l1.322,0.28
	l0.556-0.351l0.488-0.148l0.626,0.069c0,0,0.473-0.017,0.63,0c0.302,0.04,1.32-0.201,1.32-0.201s-0.267,4.313-0.341,5.583
	c-0.031,0.425-0.097,1.27-0.14,1.699c-0.079,0.743-0.228,2.233-0.348,2.968c-0.121,0.696-0.322,2.119-0.631,2.764
	c-0.256,0.525-1.462,1.835-1.462,1.835l-1.883,0.705l-1.206,0.398l13.403,0.03l-1.953-1.13l-1.533-1.559c0,0-0.525-0.876-0.63-1.199
	c-0.114-0.359-0.175-1.117-0.21-1.48c-0.052-0.627-0.394-1.651-0.416-2.26c-0.026-0.683-0.21-2.237-0.276-2.911
	c-0.096-0.881-0.07-3.534-0.07-3.534l-0.21-1.699l1.533,1.13l2.023,0.713l1.327-1.558l0.906-1.489l-0.84-1.554l-0.836-1.84
	l0.766-2.124l0.14-2.898l-0.21-2.544l-0.486-1.699l-1.953-0.709l-1.607,0.919l-2.575,0.28l-1.601-1.125L7.961,26.44l-0.206,2.053
	L6.847,29.619z"/>
</svg>
