<?xml version="1.0" encoding="utf-8"?>
<!-- Generator: Adobe Illustrator 16.0.4, SVG Export Plug-In . SVG Version: 6.00 Build 0)  -->
<!DOCTYPE svg PUBLIC "-//W3C//DTD SVG 1.1//EN" "http://www.w3.org/Graphics/SVG/1.1/DTD/svg11.dtd">
<svg version="1.1" id="Ebene_3" xmlns="http://www.w3.org/2000/svg" xmlns:xlink="http://www.w3.org/1999/xlink" x="0px" y="0px"
	 width="58.839px" height="56.855px" viewBox="0 0 58.839 56.855" enable-background="new 0 0 58.839 56.855" xml:space="preserve">
<rect y="0" fill="#A30505" stroke="#A30505" stroke-width="2" stroke-miterlimit="10" width="58.839" height="56.855"/>
<circle fill="#FFFFFF" cx="29.415" cy="23.675" r="8.476"/>
<g>
	<path fill="none" stroke="#FFFFFF" stroke-width="2.5" stroke-miterlimit="10" d="M19.78,16.848
		c-3.765,3.449-3.774,9.556-0.02,13.653"/>
	<path fill="none" stroke="#FFFFFF" stroke-width="2.5" stroke-miterlimit="10" d="M15.25,13.434
		c-5.648,5.176-5.662,14.333-0.032,20.479"/>
</g>
<g>
	<path fill="none" stroke="#FFFFFF" stroke-width="2.5" stroke-miterlimit="10" d="M39.811,16.848
		c3.769,3.449,3.775,9.556,0.023,13.653"/>
	<path fill="none" stroke="#FFFFFF" stroke-width="2.5" stroke-miterlimit="10" d="M44.344,13.434
		c5.646,5.176,5.663,14.333,0.03,20.479"/>
</g>
<path fill="#FFFFFF" stroke="#FFFFFF" stroke-width="0.25" stroke-miterlimit="10" d="M35.808,31.969l12.745,11.459h-37.93
	l12.645-11.766c0,0,1.903,1.414,2.632,1.703c0.938,0.369,2.964,0.73,3.974,0.721c0.921-0.01,2.752-0.393,3.614-0.721
	C34.118,33.117,35.808,31.969,35.808,31.969z"/>
</svg>
