<?xml version="1.0" encoding="utf-8"?>
<!-- Generator: Adobe Illustrator 16.0.4, SVG Export Plug-In . SVG Version: 6.00 Build 0)  -->
<!DOCTYPE svg PUBLIC "-//W3C//DTD SVG 1.1//EN" "http://www.w3.org/Graphics/SVG/1.1/DTD/svg11.dtd">
<svg version="1.1"
	 id="svg9432" sodipodi:docname="A-K2a-III_Grauwacke.svg" inkscape:version="0.92.3 (2405546, 2018-03-11)" xmlns:sodipodi="http://sodipodi.sourceforge.net/DTD/sodipodi-0.dtd" xmlns:svg="http://www.w3.org/2000/svg" xmlns:dc="http://purl.org/dc/elements/1.1/" xmlns:cc="http://creativecommons.org/ns#" xmlns:rdf="http://www.w3.org/1999/02/22-rdf-syntax-ns#" xmlns:inkscape="http://www.inkscape.org/namespaces/inkscape"
	 xmlns="http://www.w3.org/2000/svg" xmlns:xlink="http://www.w3.org/1999/xlink" x="0px" y="0px" width="58.839px"
	 height="56.855px" viewBox="0 0 58.839 56.855" enable-background="new 0 0 58.839 56.855" xml:space="preserve">
<sodipodi:namedview  fit-margin-left="0" pagecolor="#ffffff" showguides="true" inkscape:cx="33.045877" fit-margin-top="0" inkscape:cy="28.738358" inkscape:zoom="7.848108" borderopacity="1.0" showgrid="true" bordercolor="#666666" id="base" fit-margin-bottom="0" inkscape:pageshadow="2" fit-margin-right="0" inkscape:document-units="px" inkscape:window-y="-9" inkscape:window-x="1671" inkscape:grid-bbox="true" inkscape:pageopacity="0.0" inkscape:snap-global="false" inkscape:current-layer="layer1" inkscape:window-maximized="1" inkscape:window-height="989" inkscape:window-width="1680" inkscape:guide-bbox="true">
	</sodipodi:namedview>
<sodipodi:namedview  fit-margin-left="0" pagecolor="#ffffff" showguides="true" inkscape:cx="33.045877" fit-margin-top="0" inkscape:cy="28.738358" inkscape:zoom="7.848108" borderopacity="1.0" showgrid="true" bordercolor="#666666" id="base" fit-margin-bottom="0" inkscape:pageshadow="2" fit-margin-right="0" inkscape:document-units="px" inkscape:window-y="-9" inkscape:window-x="1671" inkscape:grid-bbox="true" inkscape:pageopacity="0.0" inkscape:snap-global="false" inkscape:current-layer="layer1" inkscape:window-maximized="1" inkscape:window-height="989" inkscape:window-width="1680" inkscape:guide-bbox="true">
	</sodipodi:namedview>
<sodipodi:namedview  fit-margin-left="0" pagecolor="#ffffff" showguides="true" inkscape:cx="33.045877" fit-margin-top="0" inkscape:cy="28.738358" inkscape:zoom="7.848108" borderopacity="1.0" showgrid="true" bordercolor="#666666" id="base" fit-margin-bottom="0" inkscape:pageshadow="2" fit-margin-right="0" inkscape:document-units="px" inkscape:window-y="-9" inkscape:window-x="1671" inkscape:grid-bbox="true" inkscape:pageopacity="0.0" inkscape:snap-global="false" inkscape:current-layer="layer1" inkscape:window-maximized="1" inkscape:window-height="989" inkscape:window-width="1680" inkscape:guide-bbox="true">
	</sodipodi:namedview>
<polyline fill="#FFFFFF" points="40.672,11.354 40.735,11.37 40.986,11.605 40.696,11.408 40.671,11.355 "/>
<polyline fill="#FFFFFF" points="40.578,11.28 40.515,11.264 40.265,11.028 40.554,11.226 40.579,11.279 "/>
<polygon fill="#FFFFFF" points="40.638,11.34 40.628,11.367 40.616,11.341 40.586,11.355 40.599,11.328 40.568,11.32 40.598,11.309 
	40.583,11.282 40.613,11.294 40.623,11.266 40.634,11.292 40.664,11.279 40.652,11.306 40.683,11.314 40.652,11.325 40.668,11.351 
	"/>
<polyline fill="#FFFFFF" points="40.583,11.359 40.565,11.413 40.298,11.635 40.522,11.379 40.582,11.358 "/>
<polyline fill="#FFFFFF" points="40.667,11.276 40.685,11.22 40.953,10.998 40.728,11.254 40.667,11.276 "/>
<polyline fill="#FFFFFF" points="40.626,11.371 40.657,11.422 40.638,11.745 40.599,11.424 40.625,11.371 "/>
<polyline fill="#FFFFFF" points="40.622,11.26 40.591,11.209 40.609,10.886 40.65,11.207 40.623,11.26 "/>
<polyline fill="#FFFFFF" points="40.564,11.321 40.507,11.348 40.141,11.34 40.504,11.297 40.564,11.32 "/>
<polyline fill="#FFFFFF" points="40.691,11.313 40.748,11.285 41.114,11.293 40.751,11.336 40.691,11.314 "/>
<polyline fill="#FFFFFF" points="40.672,11.354 40.735,11.37 40.986,11.605 40.696,11.408 40.671,11.355 "/>
<polyline fill="#FFFFFF" points="40.578,11.28 40.515,11.264 40.265,11.028 40.554,11.226 40.579,11.279 "/>
<polygon fill="#FFFFFF" points="40.638,11.34 40.628,11.367 40.616,11.341 40.586,11.355 40.599,11.328 40.568,11.32 40.598,11.309 
	40.583,11.282 40.613,11.294 40.623,11.266 40.634,11.292 40.664,11.279 40.652,11.306 40.683,11.314 40.652,11.325 40.668,11.351 
	"/>
<polyline fill="#FFFFFF" points="40.583,11.359 40.565,11.413 40.298,11.635 40.522,11.379 40.582,11.358 "/>
<polyline fill="#FFFFFF" points="40.667,11.276 40.685,11.22 40.953,10.998 40.728,11.254 40.667,11.276 "/>
<polyline fill="#FFFFFF" points="40.626,11.371 40.657,11.422 40.638,11.745 40.599,11.424 40.625,11.371 "/>
<polyline fill="#FFFFFF" points="40.622,11.26 40.591,11.209 40.609,10.886 40.65,11.207 40.623,11.26 "/>
<polyline fill="#FFFFFF" points="40.564,11.321 40.507,11.348 40.141,11.34 40.504,11.297 40.564,11.32 "/>
<polyline fill="#FFFFFF" points="40.691,11.313 40.748,11.285 41.114,11.293 40.751,11.336 40.691,11.314 "/>
<rect y="0" fill-rule="evenodd" clip-rule="evenodd" fill="#62EAFF" width="58.839" height="56.855"/>
<path fill-rule="evenodd" clip-rule="evenodd" fill="#00739B" d="M39.934,9.97c-1.358,1.704-4.229,3.585-5.167,4.677
	c-0.806,0.936-1.82,1.884-2.732,2.716c-1.121,1.022-2.809,2.27-4.184,3.438c-1.573,1.337-3.497,3.079-5.251,4.585
	c-1.746,1.499-3.478,2.785-4.833,3.872c-0.917,0.734-2.37,1.926-3.298,2.646c-1.102,0.855-2.298,2.09-3.106,3.055
	c-0.628,0.75-1.48,1.877-1.742,2.736C9.38,38.486,9.149,39.4,9.146,40.131c-0.002,0.664,0.253,1.539,0.458,1.939
	c0.137,0.266,0.482,0.387,0.773,0.457c0.345,0.082,0.914,0.102,1.297,0.043c0.355-0.055,1.409-0.586,1.743-0.719l3.757-1.484
	l16.1-14.722L44.007,6.9C44.007,6.9,41.355,8.189,39.934,9.97z"/>
<path fill="none" stroke="#00739B" stroke-width="0.24" stroke-linecap="round" stroke-linejoin="round" stroke-miterlimit="10" d="
	M39.934,9.97c-1.358,1.704-4.229,3.585-5.167,4.677c-0.806,0.936-1.82,1.884-2.732,2.716c-1.121,1.022-2.809,2.27-4.184,3.438
	c-1.573,1.337-3.497,3.079-5.251,4.585c-1.746,1.499-3.478,2.785-4.833,3.872c-0.917,0.734-2.37,1.926-3.298,2.646
	c-1.102,0.855-2.298,2.09-3.106,3.055c-0.628,0.75-1.48,1.877-1.742,2.736C9.38,38.486,9.149,39.4,9.146,40.131
	c-0.002,0.664,0.253,1.539,0.458,1.939c0.137,0.266,0.482,0.387,0.773,0.457c0.345,0.082,0.914,0.102,1.297,0.043
	c0.355-0.055,1.409-0.586,1.743-0.719l3.757-1.484l16.1-14.722L44.007,6.9C44.007,6.9,41.355,8.189,39.934,9.97z"/>
<polygon fill="#FFFFFF" points="47.693,3.02 43.483,5.581 42.042,9.249 38.266,14.67 35.46,19.461 33.657,21.654 32.106,23.447 
	30.867,25.354 29.06,27.989 26.54,30.873 11.671,44.679 8.235,47.793 3.618,50.883 2,54.89 56.845,54.89 56.973,2.283 "/>
<g>
	<polyline fill="#FFFFFF" points="13.402,34.918 13.479,34.937 13.784,35.25 13.431,34.988 13.401,34.918 	"/>
	<polyline fill="#FFFFFF" points="13.287,34.818 13.21,34.799 12.905,34.486 13.258,34.748 13.288,34.818 	"/>
	<polygon fill="#FFFFFF" points="13.36,34.898 13.349,34.935 13.333,34.9 13.297,34.918 13.313,34.883 13.274,34.871 13.312,34.857 
		13.292,34.824 13.33,34.838 13.341,34.801 13.356,34.836 13.392,34.818 13.376,34.853 13.415,34.865 13.377,34.879 13.397,34.912 	
		"/>
	<polyline fill="#FFFFFF" points="13.293,34.924 13.271,34.996 12.946,35.289 13.219,34.951 13.292,34.922 	"/>
	<polyline fill="#FFFFFF" points="13.396,34.812 13.418,34.74 13.743,34.447 13.47,34.785 13.396,34.814 	"/>
	<polyline fill="#FFFFFF" points="13.346,34.941 13.383,35.008 13.36,35.433 13.312,35.01 13.345,34.939 	"/>
	<polyline fill="#FFFFFF" points="13.34,34.793 13.303,34.726 13.325,34.299 13.374,34.724 13.341,34.793 	"/>
	<polyline fill="#FFFFFF" points="13.271,34.873 13.201,34.91 12.755,34.898 13.197,34.842 13.271,34.871 	"/>
	<polyline fill="#FFFFFF" points="13.424,34.863 13.494,34.826 13.94,34.838 13.498,34.894 13.425,34.865 	"/>
	<polyline fill="#FFFFFF" points="13.579,37.761 13.631,37.82 13.721,38.246 13.564,37.838 13.578,37.761 	"/>
	<polyline fill="#FFFFFF" points="13.535,37.617 13.482,37.556 13.393,37.131 13.549,37.541 13.536,37.617 	"/>
	<polygon fill="#FFFFFF" points="13.553,37.722 13.524,37.748 13.53,37.709 13.49,37.705 13.522,37.683 13.496,37.654 
		13.535,37.662 13.537,37.623 13.561,37.656 13.59,37.631 13.584,37.668 13.623,37.672 13.591,37.693 13.618,37.724 13.579,37.717 
		13.577,37.756 	"/>
	<polyline fill="#FFFFFF" points="13.484,37.707 13.426,37.756 12.995,37.828 13.406,37.689 13.483,37.707 	"/>
	<polyline fill="#FFFFFF" points="13.63,37.67 13.688,37.621 14.119,37.551 13.707,37.687 13.63,37.672 	"/>
	<polyline fill="#FFFFFF" points="13.519,37.75 13.514,37.826 13.264,38.174 13.453,37.791 13.518,37.75 	"/>
	<polyline fill="#FFFFFF" points="13.593,37.623 13.599,37.547 13.848,37.199 13.66,37.584 13.595,37.625 	"/>
	<polyline fill="#FFFFFF" points="13.492,37.652 13.414,37.646 13.044,37.396 13.447,37.588 13.493,37.652 	"/>
	<polyline fill="#FFFFFF" points="13.626,37.728 13.705,37.734 14.075,37.984 13.672,37.793 13.626,37.728 	"/>
	<polyline fill="#FFFFFF" points="10.811,38.9 10.871,38.953 11.009,39.365 10.806,38.976 10.81,38.9 	"/>
	<polyline fill="#FFFFFF" points="10.75,38.761 10.691,38.709 10.553,38.295 10.756,38.685 10.752,38.761 	"/>
	<polygon fill="#FFFFFF" points="10.781,38.865 10.755,38.892 10.756,38.853 10.717,38.855 10.746,38.83 10.716,38.802 
		10.756,38.806 10.753,38.767 10.781,38.797 10.807,38.769 10.806,38.806 10.845,38.806 10.816,38.832 10.846,38.859 10.806,38.855 
		10.809,38.894 	"/>
	<polyline fill="#FFFFFF" points="10.71,38.857 10.659,38.914 10.239,39.035 10.632,38.849 10.71,38.857 	"/>
	<polyline fill="#FFFFFF" points="10.851,38.804 10.903,38.748 11.323,38.627 10.93,38.812 10.851,38.804 	"/>
	<polyline fill="#FFFFFF" points="10.75,38.896 10.754,38.972 10.547,39.347 10.69,38.943 10.75,38.896 	"/>
	<polyline fill="#FFFFFF" points="10.81,38.761 10.806,38.685 11.013,38.31 10.871,38.715 10.811,38.761 	"/>
	<polyline fill="#FFFFFF" points="10.712,38.802 10.634,38.804 10.237,38.601 10.66,38.742 10.713,38.801 	"/>
	<polyline fill="#FFFFFF" points="10.854,38.861 10.934,38.859 11.33,39.062 10.907,38.922 10.854,38.863 	"/>
	<path fill="none" stroke="#00739B" stroke-linejoin="round" stroke-miterlimit="10" d="M7.388,40.011
		c-0.249,0.783-0.077,2.404,0.64,2.795"/>
	<path fill="none" stroke="#00739B" stroke-linejoin="round" stroke-miterlimit="10" d="M6.516,43.365
		c0.31,0.762,0.694,1.088,1.619,1.336"/>
	<path fill="none" stroke="#00739B" stroke-linejoin="round" stroke-miterlimit="10" d="M6.063,45.385
		c0.37,0.734,0.779,1.029,1.72,1.201"/>
	<path fill="none" stroke="#00739B" stroke-linejoin="round" stroke-miterlimit="10" d="M5.659,40.629
		c-0.469,0.676-0.533,1.176-0.236,2.086"/>
	<polyline fill="#FFFFFF" points="13.636,40.179 13.71,40.154 14.139,40.232 13.7,40.222 13.636,40.181 	"/>
	<polyline fill="#FFFFFF" points="13.485,40.166 13.411,40.193 12.982,40.113 13.421,40.123 13.486,40.164 	"/>
	<polygon fill="#FFFFFF" points="13.591,40.189 13.603,40.226 13.569,40.205 13.551,40.242 13.543,40.203 13.505,40.217 
		13.527,40.183 13.492,40.166 13.531,40.156 13.519,40.121 13.552,40.14 13.571,40.105 13.578,40.142 13.616,40.131 13.594,40.164 
		13.629,40.179 	"/>
	<polyline fill="#FFFFFF" points="13.55,40.248 13.574,40.32 13.476,40.746 13.505,40.312 13.549,40.248 	"/>
	<polyline fill="#FFFFFF" points="13.571,40.099 13.547,40.025 13.646,39.599 13.617,40.033 13.572,40.099 	"/>
	<polyline fill="#FFFFFF" points="13.604,40.232 13.672,40.265 13.898,40.627 13.615,40.308 13.602,40.232 	"/>
	<polyline fill="#FFFFFF" points="13.514,40.115 13.445,40.08 13.218,39.719 13.502,40.037 13.515,40.113 	"/>
	<polyline fill="#FFFFFF" points="13.502,40.219 13.467,40.289 13.096,40.537 13.425,40.236 13.501,40.219 	"/>
	<polyline fill="#FFFFFF" points="13.623,40.123 13.659,40.052 14.03,39.806 13.701,40.105 13.624,40.125 	"/>
	<polyline fill="#FFFFFF" points="11.364,41.326 11.417,41.385 11.504,41.812 11.349,41.4 11.363,41.326 	"/>
	<polyline fill="#FFFFFF" points="11.321,41.181 11.268,41.121 11.181,40.695 11.335,41.105 11.322,41.179 	"/>
	<polygon fill="#FFFFFF" points="11.338,41.287 11.309,41.312 11.315,41.273 11.275,41.269 11.308,41.248 11.281,41.219 
		11.32,41.226 11.323,41.187 11.346,41.219 11.375,41.195 11.37,41.232 11.409,41.236 11.377,41.258 11.403,41.289 11.364,41.281 
		11.362,41.318 	"/>
	<polyline fill="#FFFFFF" points="11.269,41.271 11.211,41.32 10.779,41.388 11.192,41.254 11.269,41.269 	"/>
	<polyline fill="#FFFFFF" points="11.416,41.234 11.473,41.185 11.905,41.117 11.493,41.252 11.415,41.236 	"/>
	<polyline fill="#FFFFFF" points="11.304,41.314 11.299,41.39 11.048,41.736 11.238,41.353 11.303,41.314 	"/>
	<polyline fill="#FFFFFF" points="11.379,41.187 11.385,41.111 11.635,40.765 11.446,41.148 11.38,41.187 	"/>
	<polyline fill="#FFFFFF" points="11.278,41.217 11.199,41.211 10.831,40.959 11.233,41.15 11.278,41.215 	"/>
	<polyline fill="#FFFFFF" points="11.412,41.293 11.49,41.299 11.859,41.551 11.457,41.357 11.412,41.293 	"/>
	<polyline fill="#FFFFFF" points="17.2,31.611 17.276,31.633 17.582,31.943 17.229,31.683 17.199,31.613 	"/>
	<polyline fill="#FFFFFF" points="17.085,31.513 17.008,31.492 16.703,31.181 17.056,31.441 17.086,31.513 	"/>
	<polygon fill="#FFFFFF" points="17.158,31.594 17.146,31.631 17.131,31.594 17.095,31.613 17.111,31.578 17.072,31.566 
		17.109,31.552 17.09,31.517 17.127,31.533 17.139,31.496 17.154,31.531 17.189,31.513 17.174,31.549 17.213,31.56 17.175,31.574 
		17.195,31.607 	"/>
	<polyline fill="#FFFFFF" points="17.091,31.617 17.069,31.691 16.744,31.982 17.017,31.644 17.09,31.617 	"/>
	<polyline fill="#FFFFFF" points="17.194,31.508 17.216,31.435 17.541,31.142 17.268,31.48 17.194,31.508 	"/>
	<polyline fill="#FFFFFF" points="17.144,31.635 17.181,31.703 17.158,32.129 17.11,31.705 17.143,31.635 	"/>
	<polyline fill="#FFFFFF" points="17.138,31.488 17.101,31.42 17.123,30.994 17.172,31.418 17.139,31.488 	"/>
	<polyline fill="#FFFFFF" points="17.068,31.566 16.999,31.605 16.553,31.594 16.995,31.537 17.068,31.566 	"/>
	<polyline fill="#FFFFFF" points="17.222,31.558 17.292,31.521 17.738,31.531 17.295,31.588 17.222,31.558 	"/>
	<polyline fill="#FFFFFF" points="18.766,32.877 18.819,32.935 18.908,33.361 18.751,32.953 18.765,32.877 	"/>
	<polyline fill="#FFFFFF" points="18.722,32.732 18.669,32.674 18.581,32.246 18.737,32.656 18.724,32.732 	"/>
	<polygon fill="#FFFFFF" points="18.74,32.838 18.711,32.863 18.717,32.824 18.677,32.82 18.709,32.799 18.683,32.769 
		18.722,32.777 18.725,32.738 18.748,32.771 18.777,32.746 18.771,32.783 18.811,32.787 18.779,32.808 18.805,32.84 18.766,32.832 
		18.764,32.871 	"/>
	<polyline fill="#FFFFFF" points="18.671,32.822 18.613,32.871 18.182,32.943 18.594,32.804 18.671,32.822 	"/>
	<polyline fill="#FFFFFF" points="18.817,32.785 18.875,32.736 19.307,32.666 18.895,32.802 18.817,32.787 	"/>
	<polyline fill="#FFFFFF" points="18.706,32.865 18.701,32.941 18.452,33.289 18.64,32.906 18.706,32.865 	"/>
	<polyline fill="#FFFFFF" points="18.781,32.738 18.786,32.662 19.035,32.314 18.847,32.699 18.782,32.74 	"/>
	<polyline fill="#FFFFFF" points="18.68,32.767 18.601,32.761 18.231,32.511 18.634,32.703 18.68,32.767 	"/>
	<polyline fill="#FFFFFF" points="18.813,32.844 18.893,32.849 19.262,33.099 18.859,32.908 18.813,32.844 	"/>
	<polyline fill="#FFFFFF" points="16.297,34.498 16.357,34.551 16.496,34.963 16.292,34.574 16.296,34.498 	"/>
	<polyline fill="#FFFFFF" points="16.237,34.359 16.178,34.306 16.039,33.892 16.243,34.283 16.238,34.359 	"/>
	<polygon fill="#FFFFFF" points="16.268,34.463 16.242,34.49 16.243,34.451 16.203,34.453 16.232,34.427 16.203,34.4 16.242,34.404 
		16.24,34.365 16.267,34.394 16.293,34.367 16.292,34.404 16.332,34.404 16.302,34.429 16.332,34.457 16.292,34.453 16.295,34.492 	
		"/>
	<polyline fill="#FFFFFF" points="16.197,34.455 16.145,34.511 15.725,34.633 16.118,34.447 16.196,34.455 	"/>
	<polyline fill="#FFFFFF" points="16.337,34.402 16.389,34.345 16.81,34.224 16.417,34.41 16.337,34.402 	"/>
	<polyline fill="#FFFFFF" points="16.237,34.494 16.241,34.57 16.034,34.945 16.176,34.541 16.236,34.494 	"/>
	<polyline fill="#FFFFFF" points="16.296,34.359 16.292,34.283 16.499,33.908 16.357,34.312 16.297,34.359 	"/>
	<polyline fill="#FFFFFF" points="16.199,34.4 16.12,34.404 15.724,34.199 16.146,34.34 16.199,34.398 	"/>
	<polyline fill="#FFFFFF" points="16.341,34.459 16.42,34.457 16.816,34.66 16.394,34.519 16.341,34.461 	"/>
	<polyline fill="#FFFFFF" points="18.473,35.732 18.547,35.707 18.976,35.785 18.537,35.775 18.472,35.734 	"/>
	<polyline fill="#FFFFFF" points="18.322,35.719 18.247,35.744 17.818,35.666 18.257,35.676 18.322,35.717 	"/>
	<polygon fill="#FFFFFF" points="18.427,35.742 18.439,35.779 18.406,35.758 18.388,35.795 18.38,35.756 18.342,35.769 
		18.364,35.736 18.329,35.719 18.367,35.709 18.356,35.674 18.389,35.693 18.407,35.658 18.415,35.695 18.453,35.683 18.431,35.717 
		18.466,35.732 	"/>
	<polyline fill="#FFFFFF" points="18.387,35.801 18.41,35.873 18.312,36.299 18.341,35.865 18.385,35.801 	"/>
	<polyline fill="#FFFFFF" points="18.408,35.65 18.384,35.578 18.482,35.152 18.453,35.586 18.409,35.652 	"/>
	<polyline fill="#FFFFFF" points="18.44,35.783 18.508,35.818 18.735,36.179 18.452,35.861 18.438,35.785 	"/>
	<polyline fill="#FFFFFF" points="18.351,35.666 18.282,35.633 18.055,35.271 18.338,35.59 18.352,35.666 	"/>
	<polyline fill="#FFFFFF" points="18.339,35.771 18.304,35.842 17.933,36.09 18.262,35.789 18.338,35.771 	"/>
	<polyline fill="#FFFFFF" points="18.459,35.676 18.496,35.605 18.867,35.359 18.537,35.658 18.46,35.676 	"/>
	<polyline fill="#FFFFFF" points="16.2,36.879 16.253,36.937 16.34,37.363 16.186,36.953 16.199,36.879 	"/>
	<polyline fill="#FFFFFF" points="16.157,36.734 16.104,36.674 16.017,36.246 16.172,36.658 16.159,36.732 	"/>
	<polygon fill="#FFFFFF" points="16.175,36.84 16.146,36.865 16.152,36.826 16.112,36.822 16.145,36.801 16.118,36.771 
		16.157,36.779 16.159,36.74 16.183,36.771 16.212,36.748 16.206,36.785 16.246,36.789 16.213,36.81 16.24,36.842 16.201,36.834 
		16.199,36.871 	"/>
	<polyline fill="#FFFFFF" points="16.105,36.824 16.047,36.873 15.616,36.941 16.028,36.806 16.105,36.822 	"/>
	<polyline fill="#FFFFFF" points="16.252,36.787 16.31,36.738 16.742,36.67 16.329,36.804 16.252,36.789 	"/>
	<polyline fill="#FFFFFF" points="16.141,36.867 16.135,36.943 15.885,37.289 16.075,36.906 16.14,36.867 	"/>
	<polyline fill="#FFFFFF" points="16.216,36.74 16.222,36.664 16.472,36.318 16.282,36.701 16.217,36.74 	"/>
	<polyline fill="#FFFFFF" points="16.114,36.769 16.036,36.763 15.667,36.511 16.069,36.703 16.115,36.767 	"/>
	<polyline fill="#FFFFFF" points="16.248,36.845 16.327,36.851 16.695,37.103 16.293,36.91 16.248,36.845 	"/>
	<polyline fill="#FFFFFF" points="22.22,27.504 22.296,27.525 22.602,27.836 22.249,27.574 22.219,27.504 	"/>
	<polyline fill="#FFFFFF" points="22.105,27.404 22.029,27.385 21.724,27.072 22.077,27.334 22.106,27.404 	"/>
	<polygon fill="#FFFFFF" points="22.178,27.484 22.167,27.521 22.151,27.486 22.116,27.504 22.131,27.469 22.093,27.457 
		22.13,27.443 22.11,27.41 22.147,27.424 22.159,27.386 22.175,27.422 22.21,27.404 22.194,27.439 22.233,27.451 22.196,27.465 
		22.215,27.5 	"/>
	<polyline fill="#FFFFFF" points="22.111,27.51 22.089,27.582 21.764,27.875 22.037,27.537 22.11,27.508 	"/>
	<polyline fill="#FFFFFF" points="22.214,27.4 22.236,27.326 22.561,27.033 22.289,27.371 22.214,27.4 	"/>
	<polyline fill="#FFFFFF" points="22.164,27.527 22.201,27.594 22.179,28.019 22.13,27.595 22.163,27.525 	"/>
	<polyline fill="#FFFFFF" points="22.158,27.379 22.122,27.312 22.144,26.885 22.192,27.31 22.159,27.379 	"/>
	<polyline fill="#FFFFFF" points="22.089,27.459 22.02,27.496 21.573,27.486 22.016,27.427 22.088,27.457 	"/>
	<polyline fill="#FFFFFF" points="22.242,27.449 22.312,27.412 22.758,27.424 22.316,27.48 22.243,27.451 	"/>
	<polyline fill="#FFFFFF" points="23.569,28.515 23.622,28.574 23.711,29 23.555,28.592 23.568,28.515 	"/>
	<polyline fill="#FFFFFF" points="23.525,28.371 23.473,28.312 23.384,27.885 23.54,28.295 23.527,28.371 	"/>
	<polygon fill="#FFFFFF" points="23.543,28.476 23.515,28.502 23.521,28.463 23.48,28.459 23.513,28.437 23.486,28.408 
		23.525,28.416 23.528,28.377 23.551,28.41 23.581,28.385 23.575,28.422 23.614,28.426 23.582,28.447 23.608,28.478 23.569,28.47 
		23.567,28.51 	"/>
	<polyline fill="#FFFFFF" points="23.474,28.461 23.417,28.511 22.985,28.582 23.397,28.445 23.474,28.461 	"/>
	<polyline fill="#FFFFFF" points="23.62,28.424 23.678,28.375 24.11,28.304 23.698,28.441 23.62,28.426 	"/>
	<polyline fill="#FFFFFF" points="23.51,28.504 23.504,28.58 23.255,28.927 23.443,28.545 23.509,28.504 	"/>
	<polyline fill="#FFFFFF" points="23.584,28.377 23.589,28.301 23.838,27.953 23.65,28.338 23.585,28.379 	"/>
	<polyline fill="#FFFFFF" points="23.483,28.406 23.404,28.4 23.035,28.15 23.438,28.342 23.483,28.406 	"/>
	<polyline fill="#FFFFFF" points="23.617,28.482 23.696,28.488 24.065,28.738 23.662,28.547 23.617,28.482 	"/>
	<polyline fill="#FFFFFF" points="20.008,29.931 20.067,29.984 20.206,30.396 20.002,30.008 20.007,29.931 	"/>
	<polyline fill="#FFFFFF" points="19.948,29.793 19.888,29.74 19.75,29.328 19.953,29.717 19.949,29.793 	"/>
	<polygon fill="#FFFFFF" points="19.978,29.896 19.952,29.924 19.954,29.886 19.914,29.886 19.943,29.861 19.913,29.834 
		19.953,29.838 19.951,29.799 19.978,29.828 20.004,29.801 20.002,29.84 20.042,29.838 20.013,29.863 20.042,29.89 20.002,29.886 
		20.005,29.926 	"/>
	<polyline fill="#FFFFFF" points="19.908,29.888 19.856,29.945 19.436,30.066 19.829,29.881 19.907,29.888 	"/>
	<polyline fill="#FFFFFF" points="20.048,29.836 20.1,29.779 20.52,29.658 20.127,29.844 20.048,29.836 	"/>
	<polyline fill="#FFFFFF" points="19.948,29.927 19.951,30.004 19.745,30.379 19.887,29.974 19.946,29.927 	"/>
	<polyline fill="#FFFFFF" points="20.006,29.793 20.003,29.717 20.209,29.342 20.068,29.746 20.008,29.793 	"/>
	<polyline fill="#FFFFFF" points="19.91,29.834 19.831,29.838 19.434,29.633 19.857,29.773 19.91,29.832 	"/>
	<polyline fill="#FFFFFF" points="20.051,29.892 20.13,29.89 20.527,30.095 20.104,29.953 20.051,29.894 	"/>
	<polyline fill="#FFFFFF" points="23.493,31.625 23.567,31.597 23.996,31.677 23.557,31.666 23.493,31.625 	"/>
	<polyline fill="#FFFFFF" points="23.342,31.609 23.268,31.636 22.839,31.556 23.278,31.568 23.343,31.609 	"/>
	<polygon fill="#FFFFFF" points="23.448,31.633 23.459,31.67 23.426,31.65 23.408,31.685 23.4,31.646 23.362,31.66 23.384,31.627 
		23.349,31.611 23.388,31.601 23.376,31.564 23.409,31.584 23.427,31.549 23.435,31.588 23.473,31.574 23.451,31.607 23.486,31.623 
			"/>
	<polyline fill="#FFFFFF" points="23.407,31.691 23.431,31.763 23.333,32.189 23.362,31.758 23.406,31.691 	"/>
	<polyline fill="#FFFFFF" points="23.428,31.543 23.404,31.47 23.502,31.045 23.473,31.478 23.429,31.543 	"/>
	<polyline fill="#FFFFFF" points="23.46,31.676 23.529,31.709 23.755,32.072 23.472,31.752 23.459,31.676 	"/>
	<polyline fill="#FFFFFF" points="23.371,31.558 23.302,31.523 23.075,31.162 23.359,31.482 23.372,31.556 	"/>
	<polyline fill="#FFFFFF" points="23.359,31.664 23.324,31.734 22.953,31.98 23.282,31.679 23.358,31.662 	"/>
	<polyline fill="#FFFFFF" points="23.48,31.568 23.516,31.498 23.887,31.25 23.558,31.551 23.481,31.568 	"/>
	<polyline fill="#FFFFFF" points="21.221,32.769 21.273,32.828 21.361,33.256 21.206,32.845 21.22,32.769 	"/>
	<polyline fill="#FFFFFF" points="21.178,32.625 21.125,32.566 21.038,32.138 21.192,32.549 21.179,32.625 	"/>
	<polygon fill="#FFFFFF" points="21.195,32.73 21.166,32.756 21.172,32.717 21.132,32.713 21.165,32.693 21.138,32.662 
		21.177,32.67 21.18,32.631 21.203,32.664 21.232,32.638 21.227,32.677 21.266,32.681 21.234,32.703 21.26,32.732 21.221,32.724 
		21.219,32.763 	"/>
	<polyline fill="#FFFFFF" points="21.126,32.715 21.068,32.763 20.636,32.834 21.049,32.697 21.126,32.715 	"/>
	<polyline fill="#FFFFFF" points="21.272,32.679 21.33,32.629 21.762,32.56 21.35,32.697 21.272,32.679 	"/>
	<polyline fill="#FFFFFF" points="21.161,32.758 21.156,32.834 20.905,33.181 21.095,32.799 21.16,32.758 	"/>
	<polyline fill="#FFFFFF" points="21.236,32.631 21.242,32.554 21.492,32.209 21.302,32.592 21.237,32.633 	"/>
	<polyline fill="#FFFFFF" points="21.135,32.66 21.056,32.654 20.688,32.402 21.09,32.595 21.135,32.66 	"/>
	<polyline fill="#FFFFFF" points="21.269,32.736 21.347,32.742 21.716,32.994 21.313,32.802 21.269,32.738 	"/>
	<polyline fill="#FFFFFF" points="27.057,23.056 27.133,23.078 27.438,23.388 27.085,23.127 27.056,23.056 	"/>
	<polyline fill="#FFFFFF" points="26.942,22.957 26.865,22.937 26.56,22.625 26.913,22.886 26.943,22.957 	"/>
	<polygon fill="#FFFFFF" points="27.015,23.037 27.003,23.074 26.988,23.039 26.952,23.056 26.968,23.021 26.929,23.01 
		26.966,22.996 26.947,22.963 26.984,22.976 26.996,22.939 27.011,22.974 27.046,22.957 27.031,22.992 27.07,23.004 27.032,23.017 
		27.052,23.051 	"/>
	<polyline fill="#FFFFFF" points="26.948,23.062 26.926,23.135 26.601,23.427 26.873,23.09 26.947,23.06 	"/>
	<polyline fill="#FFFFFF" points="27.051,22.951 27.073,22.879 27.397,22.586 27.125,22.924 27.051,22.953 	"/>
	<polyline fill="#FFFFFF" points="27.001,23.08 27.038,23.146 27.015,23.572 26.967,23.148 27,23.078 	"/>
	<polyline fill="#FFFFFF" points="26.995,22.931 26.958,22.865 26.98,22.437 27.029,22.863 26.996,22.931 	"/>
	<polyline fill="#FFFFFF" points="26.925,23.011 26.856,23.049 26.41,23.037 26.852,22.98 26.925,23.01 	"/>
	<polyline fill="#FFFFFF" points="27.079,23.002 27.148,22.965 27.595,22.976 27.152,23.033 27.079,23.004 	"/>
	<polyline fill="#FFFFFF" points="28.272,24.758 28.325,24.816 28.414,25.244 28.258,24.834 28.271,24.758 	"/>
	<polyline fill="#FFFFFF" points="28.229,24.613 28.176,24.554 28.087,24.127 28.243,24.537 28.229,24.613 	"/>
	<polygon fill="#FFFFFF" points="28.247,24.72 28.217,24.744 28.223,24.705 28.184,24.703 28.216,24.681 28.189,24.65 
		28.229,24.658 28.23,24.619 28.254,24.652 28.283,24.627 28.277,24.666 28.317,24.67 28.285,24.691 28.312,24.72 28.272,24.713 
		28.271,24.752 	"/>
	<polyline fill="#FFFFFF" points="28.177,24.705 28.119,24.754 27.688,24.824 28.1,24.687 28.177,24.703 	"/>
	<polyline fill="#FFFFFF" points="28.323,24.668 28.381,24.617 28.812,24.547 28.4,24.683 28.323,24.668 	"/>
	<polyline fill="#FFFFFF" points="28.212,24.748 28.207,24.824 27.958,25.17 28.146,24.787 28.211,24.746 	"/>
	<polyline fill="#FFFFFF" points="28.287,24.619 28.292,24.543 28.542,24.197 28.353,24.58 28.288,24.621 	"/>
	<polyline fill="#FFFFFF" points="28.186,24.65 28.107,24.642 27.737,24.392 28.141,24.584 28.186,24.648 	"/>
	<polyline fill="#FFFFFF" points="28.32,24.724 28.398,24.73 28.768,24.98 28.365,24.789 28.32,24.726 	"/>
	<polyline fill="#FFFFFF" points="25.504,25.896 25.564,25.949 25.703,26.361 25.499,25.972 25.503,25.896 	"/>
	<polyline fill="#FFFFFF" points="25.444,25.758 25.385,25.705 25.246,25.293 25.45,25.681 25.445,25.758 	"/>
	<polygon fill="#FFFFFF" points="25.475,25.861 25.449,25.89 25.45,25.851 25.41,25.851 25.439,25.826 25.41,25.801 25.45,25.802 
		25.447,25.763 25.474,25.793 25.5,25.765 25.499,25.804 25.539,25.802 25.509,25.828 25.539,25.855 25.499,25.851 25.502,25.89 	
		"/>
	<polyline fill="#FFFFFF" points="25.404,25.855 25.352,25.91 24.932,26.031 25.325,25.845 25.404,25.853 	"/>
	<polyline fill="#FFFFFF" points="25.544,25.801 25.596,25.744 26.017,25.623 25.624,25.808 25.545,25.801 	"/>
	<polyline fill="#FFFFFF" points="25.444,25.892 25.448,25.969 25.241,26.344 25.383,25.941 25.443,25.892 	"/>
	<polyline fill="#FFFFFF" points="25.503,25.758 25.5,25.681 25.706,25.308 25.564,25.711 25.504,25.758 	"/>
	<polyline fill="#FFFFFF" points="25.406,25.799 25.327,25.802 24.931,25.597 25.354,25.74 25.406,25.799 	"/>
	<polyline fill="#FFFFFF" points="25.548,25.857 25.627,25.855 26.023,26.06 25.601,25.918 25.548,25.859 	"/>
	<polyline fill="#FFFFFF" points="27.952,26.978 28.026,26.951 28.455,27.031 28.016,27.019 27.952,26.978 	"/>
	<polyline fill="#FFFFFF" points="27.801,26.963 27.727,26.99 27.298,26.91 27.737,26.922 27.802,26.963 	"/>
	<polygon fill="#FFFFFF" points="27.907,26.988 27.918,27.023 27.885,27.004 27.867,27.039 27.859,27.002 27.821,27.013 
		27.843,26.98 27.808,26.965 27.847,26.955 27.835,26.918 27.868,26.937 27.886,26.902 27.894,26.941 27.932,26.927 27.91,26.961 
		27.945,26.976 	"/>
	<polyline fill="#FFFFFF" points="27.866,27.045 27.89,27.117 27.792,27.543 27.821,27.111 27.864,27.045 	"/>
	<polyline fill="#FFFFFF" points="27.887,26.896 27.863,26.824 27.961,26.398 27.932,26.832 27.888,26.896 	"/>
	<polyline fill="#FFFFFF" points="27.919,27.029 27.988,27.062 28.214,27.426 27.931,27.105 27.918,27.029 	"/>
	<polyline fill="#FFFFFF" points="27.83,26.912 27.761,26.879 27.534,26.515 27.818,26.836 27.831,26.912 	"/>
	<polyline fill="#FFFFFF" points="27.818,27.017 27.783,27.088 27.412,27.334 27.741,27.033 27.817,27.015 	"/>
	<polyline fill="#FFFFFF" points="27.939,26.922 27.975,26.851 28.346,26.603 28.017,26.904 27.94,26.922 	"/>
	<polyline fill="#FFFFFF" points="25.867,28.627 25.919,28.685 26.007,29.113 25.852,28.703 25.866,28.627 	"/>
	<polyline fill="#FFFFFF" points="25.824,28.482 25.771,28.422 25.684,27.996 25.838,28.406 25.825,28.482 	"/>
	<polygon fill="#FFFFFF" points="25.841,28.588 25.812,28.613 25.818,28.574 25.778,28.57 25.811,28.549 25.785,28.519 
		25.823,28.527 25.826,28.488 25.849,28.521 25.878,28.496 25.873,28.535 25.912,28.539 25.88,28.558 25.906,28.59 25.867,28.582 
		25.865,28.621 	"/>
	<polyline fill="#FFFFFF" points="25.772,28.572 25.714,28.621 25.283,28.691 25.695,28.554 25.772,28.572 	"/>
	<polyline fill="#FFFFFF" points="25.918,28.537 25.977,28.486 26.408,28.418 25.996,28.554 25.918,28.537 	"/>
	<polyline fill="#FFFFFF" points="25.807,28.615 25.802,28.691 25.551,29.039 25.741,28.656 25.806,28.615 	"/>
	<polyline fill="#FFFFFF" points="25.882,28.488 25.888,28.412 26.138,28.066 25.949,28.449 25.883,28.49 	"/>
	<polyline fill="#FFFFFF" points="25.781,28.517 25.702,28.511 25.333,28.26 25.736,28.453 25.781,28.517 	"/>
	<polyline fill="#FFFFFF" points="25.915,28.594 25.993,28.599 26.362,28.851 25.96,28.66 25.915,28.595 	"/>
	<polyline fill="#FFFFFF" points="34.898,15.732 34.974,15.752 35.279,16.062 34.926,15.802 34.897,15.732 	"/>
	<polyline fill="#FFFFFF" points="34.783,15.633 34.707,15.611 34.401,15.301 34.753,15.562 34.784,15.633 	"/>
	<polygon fill="#FFFFFF" points="34.855,15.713 34.844,15.75 34.829,15.715 34.792,15.732 34.808,15.697 34.77,15.685 
		34.807,15.672 34.789,15.638 34.826,15.652 34.836,15.615 34.852,15.65 34.887,15.633 34.873,15.668 34.911,15.679 34.873,15.693 
		34.892,15.726 	"/>
	<polyline fill="#FFFFFF" points="34.789,15.738 34.767,15.81 34.442,16.103 34.714,15.765 34.788,15.736 	"/>
	<polyline fill="#FFFFFF" points="34.892,15.627 34.914,15.554 35.239,15.261 34.966,15.599 34.892,15.629 	"/>
	<polyline fill="#FFFFFF" points="34.841,15.754 34.878,15.822 34.856,16.248 34.808,15.824 34.84,15.754 	"/>
	<polyline fill="#FFFFFF" points="34.835,15.607 34.798,15.541 34.822,15.113 34.87,15.537 34.837,15.607 	"/>
	<polyline fill="#FFFFFF" points="34.766,15.687 34.697,15.724 34.25,15.713 34.693,15.656 34.766,15.685 	"/>
	<polyline fill="#FFFFFF" points="34.919,15.677 34.99,15.64 35.435,15.65 34.994,15.709 34.92,15.677 	"/>
	<polyline fill="#FFFFFF" points="32.044,18.654 32.097,18.715 32.187,19.14 32.031,18.73 32.044,18.654 	"/>
	<polyline fill="#FFFFFF" points="32.001,18.51 31.949,18.451 31.859,18.023 32.015,18.433 32.002,18.51 	"/>
	<polygon fill="#FFFFFF" points="32.019,18.617 31.99,18.64 31.996,18.603 31.957,18.599 31.989,18.578 31.962,18.547 
		32.001,18.554 32.003,18.517 32.027,18.549 32.056,18.523 32.05,18.562 32.089,18.566 32.058,18.588 32.083,18.617 32.044,18.609 
		32.042,18.648 	"/>
	<polyline fill="#FFFFFF" points="31.951,18.601 31.892,18.65 31.46,18.72 31.873,18.584 31.95,18.599 	"/>
	<polyline fill="#FFFFFF" points="32.096,18.564 32.154,18.515 32.585,18.443 32.173,18.582 32.096,18.564 	"/>
	<polyline fill="#FFFFFF" points="31.986,18.644 31.98,18.72 31.73,19.068 31.919,18.683 31.984,18.642 	"/>
	<polyline fill="#FFFFFF" points="32.06,18.517 32.066,18.441 32.314,18.094 32.126,18.476 32.061,18.517 	"/>
	<polyline fill="#FFFFFF" points="31.958,18.547 31.88,18.541 31.51,18.291 31.914,18.48 31.958,18.545 	"/>
	<polyline fill="#FFFFFF" points="32.093,18.621 32.171,18.629 32.541,18.877 32.138,18.687 32.092,18.623 	"/>
	<polyline fill="#FFFFFF" points="33.025,20.183 33.083,20.236 33.222,20.65 33.019,20.261 33.024,20.185 	"/>
	<polyline fill="#FFFFFF" points="32.964,20.047 32.905,19.994 32.767,19.58 32.97,19.969 32.966,20.045 	"/>
	<polygon fill="#FFFFFF" points="32.996,20.15 32.968,20.177 32.97,20.138 32.93,20.14 32.96,20.115 32.93,20.088 32.97,20.092 
		32.967,20.052 32.994,20.082 33.021,20.052 33.019,20.092 33.058,20.092 33.029,20.115 33.06,20.142 33.019,20.14 33.023,20.177 	
		"/>
	<polyline fill="#FFFFFF" points="32.924,20.142 32.873,20.197 32.453,20.318 32.845,20.135 32.923,20.14 	"/>
	<polyline fill="#FFFFFF" points="33.065,20.088 33.117,20.033 33.537,19.912 33.144,20.095 33.065,20.09 	"/>
	<polyline fill="#FFFFFF" points="32.964,20.181 32.968,20.258 32.761,20.631 32.904,20.228 32.963,20.179 	"/>
	<polyline fill="#FFFFFF" points="33.023,20.045 33.02,19.969 33.226,19.595 33.084,19.998 33.025,20.047 	"/>
	<polyline fill="#FFFFFF" points="32.926,20.086 32.847,20.09 32.451,19.885 32.874,20.027 32.926,20.086 	"/>
	<polyline fill="#FFFFFF" points="33.068,20.146 33.147,20.142 33.543,20.347 33.121,20.205 33.068,20.146 	"/>
	<polyline fill="#FFFFFF" points="31.597,21.439 31.656,21.492 31.794,21.906 31.591,21.517 31.595,21.441 	"/>
	<polyline fill="#FFFFFF" points="31.537,21.301 31.477,21.25 31.339,20.836 31.542,21.224 31.538,21.301 	"/>
	<polygon fill="#FFFFFF" points="31.567,21.404 31.541,21.433 31.542,21.394 31.502,21.394 31.533,21.371 31.501,21.344 
		31.542,21.345 31.54,21.308 31.566,21.338 31.593,21.308 31.591,21.347 31.63,21.345 31.601,21.371 31.631,21.398 31.591,21.394 
		31.594,21.433 	"/>
	<polyline fill="#FFFFFF" points="31.497,21.398 31.445,21.453 31.025,21.574 31.417,21.39 31.496,21.396 	"/>
	<polyline fill="#FFFFFF" points="31.637,21.344 31.689,21.287 32.109,21.168 31.716,21.351 31.637,21.345 	"/>
	<polyline fill="#FFFFFF" points="31.537,21.437 31.541,21.513 31.333,21.886 31.476,21.484 31.535,21.435 	"/>
	<polyline fill="#FFFFFF" points="31.595,21.301 31.591,21.224 31.798,20.851 31.657,21.254 31.597,21.302 	"/>
	<polyline fill="#FFFFFF" points="31.499,21.342 31.419,21.345 31.023,21.14 31.446,21.283 31.499,21.342 	"/>
	<polyline fill="#FFFFFF" points="31.64,21.402 31.719,21.398 32.116,21.603 31.693,21.461 31.64,21.402 	"/>
	<polyline fill="#FFFFFF" points="29.991,20.795 30.066,20.767 30.494,20.847 30.055,20.836 29.99,20.795 	"/>
	<polyline fill="#FFFFFF" points="29.839,20.779 29.765,20.806 29.337,20.726 29.775,20.738 29.84,20.779 	"/>
	<polygon fill="#FFFFFF" points="29.946,20.802 29.958,20.84 29.923,20.82 29.906,20.855 29.898,20.816 29.86,20.83 29.882,20.797 
		29.847,20.779 29.886,20.771 29.875,20.734 29.907,20.754 29.925,20.719 29.933,20.756 29.971,20.744 29.949,20.777 29.984,20.793 
			"/>
	<polyline fill="#FFFFFF" points="29.905,20.861 29.929,20.933 29.83,21.359 29.859,20.926 29.904,20.861 	"/>
	<polyline fill="#FFFFFF" points="29.925,20.713 29.902,20.64 30,20.215 29.971,20.646 29.927,20.713 	"/>
	<polyline fill="#FFFFFF" points="29.958,20.845 30.027,20.879 30.253,21.242 29.97,20.922 29.957,20.845 	"/>
	<polyline fill="#FFFFFF" points="29.869,20.728 29.8,20.693 29.574,20.332 29.857,20.652 29.87,20.726 	"/>
	<polyline fill="#FFFFFF" points="29.857,20.832 29.822,20.904 29.451,21.15 29.78,20.849 29.857,20.832 	"/>
	<polyline fill="#FFFFFF" points="29.978,20.738 30.013,20.666 30.384,20.42 30.056,20.72 29.978,20.738 	"/>
	<polyline fill="#FFFFFF" points="30.003,23.318 30.056,23.377 30.144,23.802 29.99,23.392 30.003,23.318 	"/>
	<polyline fill="#FFFFFF" points="29.96,23.172 29.908,23.113 29.821,22.685 29.976,23.097 29.962,23.172 	"/>
	<polygon fill="#FFFFFF" points="29.978,23.279 29.949,23.304 29.955,23.265 29.916,23.261 29.948,23.24 29.921,23.211 
		29.96,23.219 29.962,23.179 29.986,23.211 30.015,23.187 30.009,23.224 30.048,23.228 30.017,23.25 30.043,23.281 30.003,23.273 
		30.001,23.31 	"/>
	<polyline fill="#FFFFFF" points="29.91,23.263 29.851,23.312 29.419,23.381 29.832,23.246 29.909,23.261 	"/>
	<polyline fill="#FFFFFF" points="30.055,23.226 30.113,23.177 30.545,23.109 30.132,23.244 30.055,23.228 	"/>
	<polyline fill="#FFFFFF" points="29.945,23.306 29.939,23.383 29.688,23.728 29.878,23.345 29.943,23.304 	"/>
	<polyline fill="#FFFFFF" points="30.019,23.179 30.025,23.103 30.275,22.758 30.085,23.14 30.021,23.179 	"/>
	<polyline fill="#FFFFFF" points="29.917,23.209 29.839,23.203 29.471,22.951 29.873,23.142 29.918,23.207 	"/>
	<polyline fill="#FFFFFF" points="30.052,23.285 30.13,23.291 30.5,23.543 30.097,23.349 30.052,23.285 	"/>
	<polyline fill="#FFFFFF" points="36.125,14.135 36.178,14.193 36.267,14.621 36.111,14.211 36.125,14.135 	"/>
	<polyline fill="#FFFFFF" points="36.082,13.99 36.029,13.931 35.94,13.504 36.096,13.914 36.083,13.99 	"/>
	<polygon fill="#FFFFFF" points="36.1,14.097 36.071,14.121 36.077,14.082 36.037,14.08 36.07,14.058 36.042,14.027 36.082,14.035 
		36.083,13.996 36.107,14.029 36.136,14.004 36.13,14.043 36.17,14.047 36.138,14.066 36.165,14.097 36.125,14.09 36.124,14.129 	
		"/>
	<polyline fill="#FFFFFF" points="36.031,14.08 35.972,14.131 35.542,14.201 35.953,14.064 36.031,14.08 	"/>
	<polyline fill="#FFFFFF" points="36.177,14.045 36.234,13.994 36.666,13.924 36.253,14.06 36.177,14.045 	"/>
	<polyline fill="#FFFFFF" points="36.066,14.125 36.06,14.201 35.811,14.547 36,14.164 36.065,14.123 	"/>
	<polyline fill="#FFFFFF" points="36.14,13.996 36.146,13.92 36.395,13.574 36.207,13.957 36.142,13.998 	"/>
	<polyline fill="#FFFFFF" points="36.039,14.025 35.96,14.019 35.591,13.769 35.994,13.961 36.04,14.025 	"/>
	<polyline fill="#FFFFFF" points="36.173,14.101 36.251,14.107 36.622,14.357 36.218,14.166 36.173,14.103 	"/>
	<polyline fill="#FFFFFF" points="38.193,12.873 38.253,12.926 38.392,13.34 38.188,12.951 38.193,12.875 	"/>
	<polyline fill="#FFFFFF" points="38.132,12.734 38.074,12.683 37.935,12.269 38.138,12.658 38.134,12.734 	"/>
	<polygon fill="#FFFFFF" points="38.164,12.84 38.138,12.867 38.138,12.828 38.099,12.828 38.128,12.804 38.099,12.777 
		38.138,12.779 38.136,12.742 38.164,12.771 38.189,12.742 38.188,12.781 38.228,12.781 38.199,12.804 38.228,12.832 38.188,12.83 
		38.191,12.867 	"/>
	<polyline fill="#FFFFFF" points="38.093,12.832 38.041,12.886 37.621,13.008 38.013,12.824 38.092,12.83 	"/>
	<polyline fill="#FFFFFF" points="38.234,12.777 38.285,12.722 38.706,12.601 38.312,12.785 38.234,12.779 	"/>
	<polyline fill="#FFFFFF" points="38.132,12.871 38.136,12.947 37.929,13.32 38.072,12.918 38.132,12.869 	"/>
	<polyline fill="#FFFFFF" points="38.192,12.734 38.189,12.658 38.395,12.285 38.253,12.687 38.193,12.736 	"/>
	<polyline fill="#FFFFFF" points="38.095,12.775 38.016,12.779 37.62,12.574 38.042,12.717 38.095,12.775 	"/>
	<polyline fill="#FFFFFF" points="38.237,12.836 38.316,12.832 38.712,13.037 38.29,12.894 38.237,12.836 	"/>
	<polyline fill="#FFFFFF" points="36.183,16.554 36.257,16.527 36.685,16.607 36.248,16.595 36.183,16.554 	"/>
	<polyline fill="#FFFFFF" points="36.033,16.539 35.958,16.566 35.529,16.486 35.968,16.498 36.033,16.539 	"/>
	<polygon fill="#FFFFFF" points="36.138,16.562 36.15,16.599 36.117,16.58 36.097,16.615 36.09,16.576 36.052,16.59 36.074,16.556 
		36.039,16.539 36.078,16.531 36.066,16.494 36.099,16.513 36.118,16.478 36.125,16.515 36.164,16.504 36.141,16.537 36.176,16.552 
			"/>
	<polyline fill="#FFFFFF" points="36.097,16.621 36.121,16.693 36.023,17.119 36.052,16.685 36.095,16.621 	"/>
	<polyline fill="#FFFFFF" points="36.119,16.472 36.094,16.4 36.193,15.974 36.164,16.406 36.119,16.472 	"/>
	<polyline fill="#FFFFFF" points="36.15,16.605 36.218,16.638 36.445,17.002 36.162,16.681 36.149,16.605 	"/>
	<polyline fill="#FFFFFF" points="36.06,16.488 35.992,16.453 35.765,16.092 36.048,16.412 36.062,16.486 	"/>
	<polyline fill="#FFFFFF" points="36.05,16.592 36.014,16.664 35.642,16.91 35.972,16.609 36.048,16.592 	"/>
	<polyline fill="#FFFFFF" points="36.169,16.498 36.206,16.426 36.578,16.179 36.248,16.48 36.171,16.498 	"/>
	<polyline fill="#FFFFFF" points="34.396,18.34 34.449,18.398 34.537,18.826 34.381,18.416 34.395,18.34 	"/>
	<polyline fill="#FFFFFF" points="34.353,18.195 34.3,18.136 34.212,17.709 34.368,18.119 34.355,18.195 	"/>
	<polygon fill="#FFFFFF" points="34.371,18.301 34.341,18.326 34.347,18.287 34.308,18.283 34.34,18.263 34.314,18.232 
		34.353,18.24 34.355,18.201 34.378,18.234 34.408,18.209 34.402,18.248 34.441,18.252 34.41,18.271 34.435,18.302 34.396,18.295 
		34.394,18.334 	"/>
	<polyline fill="#FFFFFF" points="34.301,18.285 34.244,18.334 33.812,18.404 34.224,18.267 34.301,18.285 	"/>
	<polyline fill="#FFFFFF" points="34.448,18.25 34.505,18.199 34.937,18.131 34.525,18.267 34.448,18.25 	"/>
	<polyline fill="#FFFFFF" points="34.336,18.328 34.332,18.404 34.081,18.752 34.271,18.369 34.335,18.328 	"/>
	<polyline fill="#FFFFFF" points="34.412,18.201 34.417,18.125 34.667,17.779 34.478,18.162 34.413,18.203 	"/>
	<polyline fill="#FFFFFF" points="34.31,18.23 34.232,18.224 33.863,17.972 34.265,18.166 34.31,18.23 	"/>
	<polyline fill="#FFFFFF" points="34.444,18.306 34.523,18.312 34.891,18.564 34.49,18.373 34.444,18.308 	"/>
	<polyline fill="#FFFFFF" points="13.402,34.918 13.479,34.937 13.784,35.25 13.431,34.988 13.401,34.918 	"/>
	<polyline fill="#FFFFFF" points="13.287,34.818 13.21,34.799 12.905,34.486 13.258,34.748 13.288,34.818 	"/>
	<polygon fill="#FFFFFF" points="13.36,34.898 13.349,34.935 13.333,34.9 13.297,34.918 13.313,34.883 13.274,34.871 13.312,34.857 
		13.292,34.824 13.33,34.838 13.341,34.801 13.356,34.836 13.392,34.818 13.376,34.853 13.415,34.865 13.377,34.879 13.397,34.912 	
		"/>
	<polyline fill="#FFFFFF" points="13.293,34.924 13.271,34.996 12.946,35.289 13.219,34.951 13.292,34.922 	"/>
	<polyline fill="#FFFFFF" points="13.396,34.812 13.418,34.74 13.743,34.447 13.47,34.785 13.396,34.814 	"/>
	<polyline fill="#FFFFFF" points="13.346,34.941 13.383,35.008 13.36,35.433 13.312,35.01 13.345,34.939 	"/>
	<polyline fill="#FFFFFF" points="13.34,34.793 13.303,34.726 13.325,34.299 13.374,34.724 13.341,34.793 	"/>
	<polyline fill="#FFFFFF" points="13.271,34.873 13.201,34.91 12.755,34.898 13.197,34.842 13.271,34.871 	"/>
	<polyline fill="#FFFFFF" points="13.424,34.863 13.494,34.826 13.94,34.838 13.498,34.894 13.425,34.865 	"/>
	<polyline fill="#FFFFFF" points="13.579,37.761 13.631,37.82 13.721,38.246 13.564,37.838 13.578,37.761 	"/>
	<polyline fill="#FFFFFF" points="13.535,37.617 13.482,37.556 13.393,37.131 13.549,37.541 13.536,37.617 	"/>
	<polygon fill="#FFFFFF" points="13.553,37.722 13.524,37.748 13.53,37.709 13.49,37.705 13.522,37.683 13.496,37.654 
		13.535,37.662 13.537,37.623 13.561,37.656 13.59,37.631 13.584,37.668 13.623,37.672 13.591,37.693 13.618,37.724 13.579,37.717 
		13.577,37.756 	"/>
	<polyline fill="#FFFFFF" points="13.484,37.707 13.426,37.756 12.995,37.828 13.406,37.689 13.483,37.707 	"/>
	<polyline fill="#FFFFFF" points="13.63,37.67 13.688,37.621 14.119,37.551 13.707,37.687 13.63,37.672 	"/>
	<polyline fill="#FFFFFF" points="13.519,37.75 13.514,37.826 13.264,38.174 13.453,37.791 13.518,37.75 	"/>
	<polyline fill="#FFFFFF" points="13.593,37.623 13.599,37.547 13.848,37.199 13.66,37.584 13.595,37.625 	"/>
	<polyline fill="#FFFFFF" points="13.492,37.652 13.414,37.646 13.044,37.396 13.447,37.588 13.493,37.652 	"/>
	<polyline fill="#FFFFFF" points="13.626,37.728 13.705,37.734 14.075,37.984 13.672,37.793 13.626,37.728 	"/>
	<polyline fill="#FFFFFF" points="10.811,38.9 10.871,38.953 11.009,39.365 10.806,38.976 10.81,38.9 	"/>
	<polyline fill="#FFFFFF" points="10.75,38.761 10.691,38.709 10.553,38.295 10.756,38.685 10.752,38.761 	"/>
	<polygon fill="#FFFFFF" points="10.781,38.865 10.755,38.892 10.756,38.853 10.717,38.855 10.746,38.83 10.716,38.802 
		10.756,38.806 10.753,38.767 10.781,38.797 10.807,38.769 10.806,38.806 10.845,38.806 10.816,38.832 10.846,38.859 10.806,38.855 
		10.809,38.894 	"/>
	<polyline fill="#FFFFFF" points="10.71,38.857 10.659,38.914 10.239,39.035 10.632,38.849 10.71,38.857 	"/>
	<polyline fill="#FFFFFF" points="10.851,38.804 10.903,38.748 11.323,38.627 10.93,38.812 10.851,38.804 	"/>
	<polyline fill="#FFFFFF" points="10.75,38.896 10.754,38.972 10.547,39.347 10.69,38.943 10.75,38.896 	"/>
	<polyline fill="#FFFFFF" points="10.81,38.761 10.806,38.685 11.013,38.31 10.871,38.715 10.811,38.761 	"/>
	<polyline fill="#FFFFFF" points="10.712,38.802 10.634,38.804 10.237,38.601 10.66,38.742 10.713,38.801 	"/>
	<polyline fill="#FFFFFF" points="10.854,38.861 10.934,38.859 11.33,39.062 10.907,38.922 10.854,38.863 	"/>
	<polyline fill="#FFFFFF" points="13.636,40.179 13.71,40.154 14.139,40.232 13.7,40.222 13.636,40.181 	"/>
	<polyline fill="#FFFFFF" points="13.485,40.166 13.411,40.193 12.982,40.113 13.421,40.123 13.486,40.164 	"/>
	<polygon fill="#FFFFFF" points="13.591,40.189 13.603,40.226 13.569,40.205 13.551,40.242 13.543,40.203 13.505,40.217 
		13.527,40.183 13.492,40.166 13.531,40.156 13.519,40.121 13.552,40.14 13.571,40.105 13.578,40.142 13.616,40.131 13.594,40.164 
		13.629,40.179 	"/>
	<polyline fill="#FFFFFF" points="13.55,40.248 13.574,40.32 13.476,40.746 13.505,40.312 13.549,40.248 	"/>
	<polyline fill="#FFFFFF" points="13.571,40.099 13.547,40.025 13.646,39.599 13.617,40.033 13.572,40.099 	"/>
	<polyline fill="#FFFFFF" points="13.604,40.232 13.672,40.265 13.898,40.627 13.615,40.308 13.602,40.232 	"/>
	<polyline fill="#FFFFFF" points="13.514,40.115 13.445,40.08 13.218,39.719 13.502,40.037 13.515,40.113 	"/>
	<polyline fill="#FFFFFF" points="13.502,40.219 13.467,40.289 13.096,40.537 13.425,40.236 13.501,40.219 	"/>
	<polyline fill="#FFFFFF" points="13.623,40.123 13.659,40.052 14.03,39.806 13.701,40.105 13.624,40.125 	"/>
	<polyline fill="#FFFFFF" points="11.364,41.326 11.417,41.385 11.504,41.812 11.349,41.4 11.363,41.326 	"/>
	<polyline fill="#FFFFFF" points="11.321,41.181 11.268,41.121 11.181,40.695 11.335,41.105 11.322,41.179 	"/>
	<polygon fill="#FFFFFF" points="11.338,41.287 11.309,41.312 11.315,41.273 11.275,41.269 11.308,41.248 11.281,41.219 
		11.32,41.226 11.323,41.187 11.346,41.219 11.375,41.195 11.37,41.232 11.409,41.236 11.377,41.258 11.403,41.289 11.364,41.281 
		11.362,41.318 	"/>
	<polyline fill="#FFFFFF" points="11.269,41.271 11.211,41.32 10.779,41.388 11.192,41.254 11.269,41.269 	"/>
	<polyline fill="#FFFFFF" points="11.416,41.234 11.473,41.185 11.905,41.117 11.493,41.252 11.415,41.236 	"/>
	<polyline fill="#FFFFFF" points="11.304,41.314 11.299,41.39 11.048,41.736 11.238,41.353 11.303,41.314 	"/>
	<polyline fill="#FFFFFF" points="11.379,41.187 11.385,41.111 11.635,40.765 11.446,41.148 11.38,41.187 	"/>
	<polyline fill="#FFFFFF" points="11.278,41.217 11.199,41.211 10.831,40.959 11.233,41.15 11.278,41.215 	"/>
	<polyline fill="#FFFFFF" points="11.412,41.293 11.49,41.299 11.859,41.551 11.457,41.357 11.412,41.293 	"/>
	<polyline fill="#FFFFFF" points="17.2,31.611 17.276,31.633 17.582,31.943 17.229,31.683 17.199,31.613 	"/>
	<polyline fill="#FFFFFF" points="17.085,31.513 17.008,31.492 16.703,31.181 17.056,31.441 17.086,31.513 	"/>
	<polygon fill="#FFFFFF" points="17.158,31.594 17.146,31.631 17.131,31.594 17.095,31.613 17.111,31.578 17.072,31.566 
		17.109,31.552 17.09,31.517 17.127,31.533 17.139,31.496 17.154,31.531 17.189,31.513 17.174,31.549 17.213,31.56 17.175,31.574 
		17.195,31.607 	"/>
	<polyline fill="#FFFFFF" points="17.091,31.617 17.069,31.691 16.744,31.982 17.017,31.644 17.09,31.617 	"/>
	<polyline fill="#FFFFFF" points="17.194,31.508 17.216,31.435 17.541,31.142 17.268,31.48 17.194,31.508 	"/>
	<polyline fill="#FFFFFF" points="17.144,31.635 17.181,31.703 17.158,32.129 17.11,31.705 17.143,31.635 	"/>
	<polyline fill="#FFFFFF" points="17.138,31.488 17.101,31.42 17.123,30.994 17.172,31.418 17.139,31.488 	"/>
	<polyline fill="#FFFFFF" points="17.068,31.566 16.999,31.605 16.553,31.594 16.995,31.537 17.068,31.566 	"/>
	<polyline fill="#FFFFFF" points="17.222,31.558 17.292,31.521 17.738,31.531 17.295,31.588 17.222,31.558 	"/>
	<polyline fill="#FFFFFF" points="18.766,32.877 18.819,32.935 18.908,33.361 18.751,32.953 18.765,32.877 	"/>
	<polyline fill="#FFFFFF" points="18.722,32.732 18.669,32.674 18.581,32.246 18.737,32.656 18.724,32.732 	"/>
	<polygon fill="#FFFFFF" points="18.74,32.838 18.711,32.863 18.717,32.824 18.677,32.82 18.709,32.799 18.683,32.769 
		18.722,32.777 18.725,32.738 18.748,32.771 18.777,32.746 18.771,32.783 18.811,32.787 18.779,32.808 18.805,32.84 18.766,32.832 
		18.764,32.871 	"/>
	<polyline fill="#FFFFFF" points="18.671,32.822 18.613,32.871 18.182,32.943 18.594,32.804 18.671,32.822 	"/>
	<polyline fill="#FFFFFF" points="18.817,32.785 18.875,32.736 19.307,32.666 18.895,32.802 18.817,32.787 	"/>
	<polyline fill="#FFFFFF" points="18.706,32.865 18.701,32.941 18.452,33.289 18.64,32.906 18.706,32.865 	"/>
	<polyline fill="#FFFFFF" points="18.781,32.738 18.786,32.662 19.035,32.314 18.847,32.699 18.782,32.74 	"/>
	<polyline fill="#FFFFFF" points="18.68,32.767 18.601,32.761 18.231,32.511 18.634,32.703 18.68,32.767 	"/>
	<polyline fill="#FFFFFF" points="18.813,32.844 18.893,32.849 19.262,33.099 18.859,32.908 18.813,32.844 	"/>
	<polyline fill="#FFFFFF" points="16.297,34.498 16.357,34.551 16.496,34.963 16.292,34.574 16.296,34.498 	"/>
	<polyline fill="#FFFFFF" points="16.237,34.359 16.178,34.306 16.039,33.892 16.243,34.283 16.238,34.359 	"/>
	<polygon fill="#FFFFFF" points="16.268,34.463 16.242,34.49 16.243,34.451 16.203,34.453 16.232,34.427 16.203,34.4 16.242,34.404 
		16.24,34.365 16.267,34.394 16.293,34.367 16.292,34.404 16.332,34.404 16.302,34.429 16.332,34.457 16.292,34.453 16.295,34.492 	
		"/>
	<polyline fill="#FFFFFF" points="16.197,34.455 16.145,34.511 15.725,34.633 16.118,34.447 16.196,34.455 	"/>
	<polyline fill="#FFFFFF" points="16.337,34.402 16.389,34.345 16.81,34.224 16.417,34.41 16.337,34.402 	"/>
	<polyline fill="#FFFFFF" points="16.237,34.494 16.241,34.57 16.034,34.945 16.176,34.541 16.236,34.494 	"/>
	<polyline fill="#FFFFFF" points="16.296,34.359 16.292,34.283 16.499,33.908 16.357,34.312 16.297,34.359 	"/>
	<polyline fill="#FFFFFF" points="16.199,34.4 16.12,34.404 15.724,34.199 16.146,34.34 16.199,34.398 	"/>
	<polyline fill="#FFFFFF" points="16.341,34.459 16.42,34.457 16.816,34.66 16.394,34.519 16.341,34.461 	"/>
	<polyline fill="#FFFFFF" points="18.473,35.732 18.547,35.707 18.976,35.785 18.537,35.775 18.472,35.734 	"/>
	<polyline fill="#FFFFFF" points="18.322,35.719 18.247,35.744 17.818,35.666 18.257,35.676 18.322,35.717 	"/>
	<polygon fill="#FFFFFF" points="18.427,35.742 18.439,35.779 18.406,35.758 18.388,35.795 18.38,35.756 18.342,35.769 
		18.364,35.736 18.329,35.719 18.367,35.709 18.356,35.674 18.389,35.693 18.407,35.658 18.415,35.695 18.453,35.683 18.431,35.717 
		18.466,35.732 	"/>
	<polyline fill="#FFFFFF" points="18.387,35.801 18.41,35.873 18.312,36.299 18.341,35.865 18.385,35.801 	"/>
	<polyline fill="#FFFFFF" points="18.408,35.65 18.384,35.578 18.482,35.152 18.453,35.586 18.409,35.652 	"/>
	<polyline fill="#FFFFFF" points="18.44,35.783 18.508,35.818 18.735,36.179 18.452,35.861 18.438,35.785 	"/>
	<polyline fill="#FFFFFF" points="18.351,35.666 18.282,35.633 18.055,35.271 18.338,35.59 18.352,35.666 	"/>
	<polyline fill="#FFFFFF" points="18.339,35.771 18.304,35.842 17.933,36.09 18.262,35.789 18.338,35.771 	"/>
	<polyline fill="#FFFFFF" points="18.459,35.676 18.496,35.605 18.867,35.359 18.537,35.658 18.46,35.676 	"/>
	<polyline fill="#FFFFFF" points="16.2,36.879 16.253,36.937 16.34,37.363 16.186,36.953 16.199,36.879 	"/>
	<polyline fill="#FFFFFF" points="16.157,36.734 16.104,36.674 16.017,36.246 16.172,36.658 16.159,36.732 	"/>
	<polygon fill="#FFFFFF" points="16.175,36.84 16.146,36.865 16.152,36.826 16.112,36.822 16.145,36.801 16.118,36.771 
		16.157,36.779 16.159,36.74 16.183,36.771 16.212,36.748 16.206,36.785 16.246,36.789 16.213,36.81 16.24,36.842 16.201,36.834 
		16.199,36.871 	"/>
	<polyline fill="#FFFFFF" points="16.105,36.824 16.047,36.873 15.616,36.941 16.028,36.806 16.105,36.822 	"/>
	<polyline fill="#FFFFFF" points="16.252,36.787 16.31,36.738 16.742,36.67 16.329,36.804 16.252,36.789 	"/>
	<polyline fill="#FFFFFF" points="16.141,36.867 16.135,36.943 15.885,37.289 16.075,36.906 16.14,36.867 	"/>
	<polyline fill="#FFFFFF" points="16.216,36.74 16.222,36.664 16.472,36.318 16.282,36.701 16.217,36.74 	"/>
	<polyline fill="#FFFFFF" points="16.114,36.769 16.036,36.763 15.667,36.511 16.069,36.703 16.115,36.767 	"/>
	<polyline fill="#FFFFFF" points="16.248,36.845 16.327,36.851 16.695,37.103 16.293,36.91 16.248,36.845 	"/>
	<polyline fill="#FFFFFF" points="22.22,27.504 22.296,27.525 22.602,27.836 22.249,27.574 22.219,27.504 	"/>
	<polyline fill="#FFFFFF" points="22.105,27.404 22.029,27.385 21.724,27.072 22.077,27.334 22.106,27.404 	"/>
	<polygon fill="#FFFFFF" points="22.178,27.484 22.167,27.521 22.151,27.486 22.116,27.504 22.131,27.469 22.093,27.457 
		22.13,27.443 22.11,27.41 22.147,27.424 22.159,27.386 22.175,27.422 22.21,27.404 22.194,27.439 22.233,27.451 22.196,27.465 
		22.215,27.5 	"/>
	<polyline fill="#FFFFFF" points="22.111,27.51 22.089,27.582 21.764,27.875 22.037,27.537 22.11,27.508 	"/>
	<polyline fill="#FFFFFF" points="22.214,27.4 22.236,27.326 22.561,27.033 22.289,27.371 22.214,27.4 	"/>
	<polyline fill="#FFFFFF" points="22.164,27.527 22.201,27.594 22.179,28.019 22.13,27.595 22.163,27.525 	"/>
	<polyline fill="#FFFFFF" points="22.158,27.379 22.122,27.312 22.144,26.885 22.192,27.31 22.159,27.379 	"/>
	<polyline fill="#FFFFFF" points="22.089,27.459 22.02,27.496 21.573,27.486 22.016,27.427 22.088,27.457 	"/>
	<polyline fill="#FFFFFF" points="22.242,27.449 22.312,27.412 22.758,27.424 22.316,27.48 22.243,27.451 	"/>
	<polyline fill="#FFFFFF" points="23.569,28.515 23.622,28.574 23.711,29 23.555,28.592 23.568,28.515 	"/>
	<polyline fill="#FFFFFF" points="23.525,28.371 23.473,28.312 23.384,27.885 23.54,28.295 23.527,28.371 	"/>
	<polygon fill="#FFFFFF" points="23.543,28.476 23.515,28.502 23.521,28.463 23.48,28.459 23.513,28.437 23.486,28.408 
		23.525,28.416 23.528,28.377 23.551,28.41 23.581,28.385 23.575,28.422 23.614,28.426 23.582,28.447 23.608,28.478 23.569,28.47 
		23.567,28.51 	"/>
	<polyline fill="#FFFFFF" points="23.474,28.461 23.417,28.511 22.985,28.582 23.397,28.445 23.474,28.461 	"/>
	<polyline fill="#FFFFFF" points="23.62,28.424 23.678,28.375 24.11,28.304 23.698,28.441 23.62,28.426 	"/>
	<polyline fill="#FFFFFF" points="23.51,28.504 23.504,28.58 23.255,28.927 23.443,28.545 23.509,28.504 	"/>
	<polyline fill="#FFFFFF" points="23.584,28.377 23.589,28.301 23.838,27.953 23.65,28.338 23.585,28.379 	"/>
	<polyline fill="#FFFFFF" points="23.483,28.406 23.404,28.4 23.035,28.15 23.438,28.342 23.483,28.406 	"/>
	<polyline fill="#FFFFFF" points="23.617,28.482 23.696,28.488 24.065,28.738 23.662,28.547 23.617,28.482 	"/>
	<polyline fill="#FFFFFF" points="20.008,29.931 20.067,29.984 20.206,30.396 20.002,30.008 20.007,29.931 	"/>
	<polyline fill="#FFFFFF" points="19.948,29.793 19.888,29.74 19.75,29.328 19.953,29.717 19.949,29.793 	"/>
	<polygon fill="#FFFFFF" points="19.978,29.896 19.952,29.924 19.954,29.886 19.914,29.886 19.943,29.861 19.913,29.834 
		19.953,29.838 19.951,29.799 19.978,29.828 20.004,29.801 20.002,29.84 20.042,29.838 20.013,29.863 20.042,29.89 20.002,29.886 
		20.005,29.926 	"/>
	<polyline fill="#FFFFFF" points="19.908,29.888 19.856,29.945 19.436,30.066 19.829,29.881 19.907,29.888 	"/>
	<polyline fill="#FFFFFF" points="20.048,29.836 20.1,29.779 20.52,29.658 20.127,29.844 20.048,29.836 	"/>
	<polyline fill="#FFFFFF" points="19.948,29.927 19.951,30.004 19.745,30.379 19.887,29.974 19.946,29.927 	"/>
	<polyline fill="#FFFFFF" points="20.006,29.793 20.003,29.717 20.209,29.342 20.068,29.746 20.008,29.793 	"/>
	<polyline fill="#FFFFFF" points="19.91,29.834 19.831,29.838 19.434,29.633 19.857,29.773 19.91,29.832 	"/>
	<polyline fill="#FFFFFF" points="20.051,29.892 20.13,29.89 20.527,30.095 20.104,29.953 20.051,29.894 	"/>
	<polyline fill="#FFFFFF" points="23.493,31.625 23.567,31.597 23.996,31.677 23.557,31.666 23.493,31.625 	"/>
	<polyline fill="#FFFFFF" points="23.342,31.609 23.268,31.636 22.839,31.556 23.278,31.568 23.343,31.609 	"/>
	<polygon fill="#FFFFFF" points="23.448,31.633 23.459,31.67 23.426,31.65 23.408,31.685 23.4,31.646 23.362,31.66 23.384,31.627 
		23.349,31.611 23.388,31.601 23.376,31.564 23.409,31.584 23.427,31.549 23.435,31.588 23.473,31.574 23.451,31.607 23.486,31.623 
			"/>
	<polyline fill="#FFFFFF" points="23.407,31.691 23.431,31.763 23.333,32.189 23.362,31.758 23.406,31.691 	"/>
	<polyline fill="#FFFFFF" points="23.428,31.543 23.404,31.47 23.502,31.045 23.473,31.478 23.429,31.543 	"/>
	<polyline fill="#FFFFFF" points="23.46,31.676 23.529,31.709 23.755,32.072 23.472,31.752 23.459,31.676 	"/>
	<polyline fill="#FFFFFF" points="23.371,31.558 23.302,31.523 23.075,31.162 23.359,31.482 23.372,31.556 	"/>
	<polyline fill="#FFFFFF" points="23.359,31.664 23.324,31.734 22.953,31.98 23.282,31.679 23.358,31.662 	"/>
	<polyline fill="#FFFFFF" points="23.48,31.568 23.516,31.498 23.887,31.25 23.558,31.551 23.481,31.568 	"/>
	<polyline fill="#FFFFFF" points="21.221,32.769 21.273,32.828 21.361,33.256 21.206,32.845 21.22,32.769 	"/>
	<polyline fill="#FFFFFF" points="21.178,32.625 21.125,32.566 21.038,32.138 21.192,32.549 21.179,32.625 	"/>
	<polygon fill="#FFFFFF" points="21.195,32.73 21.166,32.756 21.172,32.717 21.132,32.713 21.165,32.693 21.138,32.662 
		21.177,32.67 21.18,32.631 21.203,32.664 21.232,32.638 21.227,32.677 21.266,32.681 21.234,32.703 21.26,32.732 21.221,32.724 
		21.219,32.763 	"/>
	<polyline fill="#FFFFFF" points="21.126,32.715 21.068,32.763 20.636,32.834 21.049,32.697 21.126,32.715 	"/>
	<polyline fill="#FFFFFF" points="21.272,32.679 21.33,32.629 21.762,32.56 21.35,32.697 21.272,32.679 	"/>
	<polyline fill="#FFFFFF" points="21.161,32.758 21.156,32.834 20.905,33.181 21.095,32.799 21.16,32.758 	"/>
	<polyline fill="#FFFFFF" points="21.236,32.631 21.242,32.554 21.492,32.209 21.302,32.592 21.237,32.633 	"/>
	<polyline fill="#FFFFFF" points="21.135,32.66 21.056,32.654 20.688,32.402 21.09,32.595 21.135,32.66 	"/>
	<polyline fill="#FFFFFF" points="21.269,32.736 21.347,32.742 21.716,32.994 21.313,32.802 21.269,32.738 	"/>
	<polyline fill="#FFFFFF" points="27.057,23.056 27.133,23.078 27.438,23.388 27.085,23.127 27.056,23.056 	"/>
	<polyline fill="#FFFFFF" points="26.942,22.957 26.865,22.937 26.56,22.625 26.913,22.886 26.943,22.957 	"/>
	<polygon fill="#FFFFFF" points="27.015,23.037 27.003,23.074 26.988,23.039 26.952,23.056 26.968,23.021 26.929,23.01 
		26.966,22.996 26.947,22.963 26.984,22.976 26.996,22.939 27.011,22.974 27.046,22.957 27.031,22.992 27.07,23.004 27.032,23.017 
		27.052,23.051 	"/>
	<polyline fill="#FFFFFF" points="26.948,23.062 26.926,23.135 26.601,23.427 26.873,23.09 26.947,23.06 	"/>
	<polyline fill="#FFFFFF" points="27.051,22.951 27.073,22.879 27.397,22.586 27.125,22.924 27.051,22.953 	"/>
	<polyline fill="#FFFFFF" points="27.001,23.08 27.038,23.146 27.015,23.572 26.967,23.148 27,23.078 	"/>
	<polyline fill="#FFFFFF" points="26.995,22.931 26.958,22.865 26.98,22.437 27.029,22.863 26.996,22.931 	"/>
	<polyline fill="#FFFFFF" points="26.925,23.011 26.856,23.049 26.41,23.037 26.852,22.98 26.925,23.01 	"/>
	<polyline fill="#FFFFFF" points="27.079,23.002 27.148,22.965 27.595,22.976 27.152,23.033 27.079,23.004 	"/>
	<polyline fill="#FFFFFF" points="28.272,24.758 28.325,24.816 28.414,25.244 28.258,24.834 28.271,24.758 	"/>
	<polyline fill="#FFFFFF" points="28.229,24.613 28.176,24.554 28.087,24.127 28.243,24.537 28.229,24.613 	"/>
	<polygon fill="#FFFFFF" points="28.247,24.72 28.217,24.744 28.223,24.705 28.184,24.703 28.216,24.681 28.189,24.65 
		28.229,24.658 28.23,24.619 28.254,24.652 28.283,24.627 28.277,24.666 28.317,24.67 28.285,24.691 28.312,24.72 28.272,24.713 
		28.271,24.752 	"/>
	<polyline fill="#FFFFFF" points="28.177,24.705 28.119,24.754 27.688,24.824 28.1,24.687 28.177,24.703 	"/>
	<polyline fill="#FFFFFF" points="28.323,24.668 28.381,24.617 28.812,24.547 28.4,24.683 28.323,24.668 	"/>
	<polyline fill="#FFFFFF" points="28.212,24.748 28.207,24.824 27.958,25.17 28.146,24.787 28.211,24.746 	"/>
	<polyline fill="#FFFFFF" points="28.287,24.619 28.292,24.543 28.542,24.197 28.353,24.58 28.288,24.621 	"/>
	<polyline fill="#FFFFFF" points="28.186,24.65 28.107,24.642 27.737,24.392 28.141,24.584 28.186,24.648 	"/>
	<polyline fill="#FFFFFF" points="28.32,24.724 28.398,24.73 28.768,24.98 28.365,24.789 28.32,24.726 	"/>
	<polyline fill="#FFFFFF" points="25.504,25.896 25.564,25.949 25.703,26.361 25.499,25.972 25.503,25.896 	"/>
	<polyline fill="#FFFFFF" points="25.444,25.758 25.385,25.705 25.246,25.293 25.45,25.681 25.445,25.758 	"/>
	<polygon fill="#FFFFFF" points="25.475,25.861 25.449,25.89 25.45,25.851 25.41,25.851 25.439,25.826 25.41,25.801 25.45,25.802 
		25.447,25.763 25.474,25.793 25.5,25.765 25.499,25.804 25.539,25.802 25.509,25.828 25.539,25.855 25.499,25.851 25.502,25.89 	
		"/>
	<polyline fill="#FFFFFF" points="25.404,25.855 25.352,25.91 24.932,26.031 25.325,25.845 25.404,25.853 	"/>
	<polyline fill="#FFFFFF" points="25.544,25.801 25.596,25.744 26.017,25.623 25.624,25.808 25.545,25.801 	"/>
	<polyline fill="#FFFFFF" points="25.444,25.892 25.448,25.969 25.241,26.344 25.383,25.941 25.443,25.892 	"/>
	<polyline fill="#FFFFFF" points="25.503,25.758 25.5,25.681 25.706,25.308 25.564,25.711 25.504,25.758 	"/>
	<polyline fill="#FFFFFF" points="25.406,25.799 25.327,25.802 24.931,25.597 25.354,25.74 25.406,25.799 	"/>
	<polyline fill="#FFFFFF" points="25.548,25.857 25.627,25.855 26.023,26.06 25.601,25.918 25.548,25.859 	"/>
	<polyline fill="#FFFFFF" points="27.952,26.978 28.026,26.951 28.455,27.031 28.016,27.019 27.952,26.978 	"/>
	<polyline fill="#FFFFFF" points="27.801,26.963 27.727,26.99 27.298,26.91 27.737,26.922 27.802,26.963 	"/>
	<polygon fill="#FFFFFF" points="27.907,26.988 27.918,27.023 27.885,27.004 27.867,27.039 27.859,27.002 27.821,27.013 
		27.843,26.98 27.808,26.965 27.847,26.955 27.835,26.918 27.868,26.937 27.886,26.902 27.894,26.941 27.932,26.927 27.91,26.961 
		27.945,26.976 	"/>
	<polyline fill="#FFFFFF" points="27.866,27.045 27.89,27.117 27.792,27.543 27.821,27.111 27.864,27.045 	"/>
	<polyline fill="#FFFFFF" points="27.887,26.896 27.863,26.824 27.961,26.398 27.932,26.832 27.888,26.896 	"/>
	<polyline fill="#FFFFFF" points="27.919,27.029 27.988,27.062 28.214,27.426 27.931,27.105 27.918,27.029 	"/>
	<polyline fill="#FFFFFF" points="27.83,26.912 27.761,26.879 27.534,26.515 27.818,26.836 27.831,26.912 	"/>
	<polyline fill="#FFFFFF" points="27.818,27.017 27.783,27.088 27.412,27.334 27.741,27.033 27.817,27.015 	"/>
	<polyline fill="#FFFFFF" points="27.939,26.922 27.975,26.851 28.346,26.603 28.017,26.904 27.94,26.922 	"/>
	<polyline fill="#FFFFFF" points="25.867,28.627 25.919,28.685 26.007,29.113 25.852,28.703 25.866,28.627 	"/>
	<polyline fill="#FFFFFF" points="25.824,28.482 25.771,28.422 25.684,27.996 25.838,28.406 25.825,28.482 	"/>
	<polygon fill="#FFFFFF" points="25.841,28.588 25.812,28.613 25.818,28.574 25.778,28.57 25.811,28.549 25.785,28.519 
		25.823,28.527 25.826,28.488 25.849,28.521 25.878,28.496 25.873,28.535 25.912,28.539 25.88,28.558 25.906,28.59 25.867,28.582 
		25.865,28.621 	"/>
	<polyline fill="#FFFFFF" points="25.772,28.572 25.714,28.621 25.283,28.691 25.695,28.554 25.772,28.572 	"/>
	<polyline fill="#FFFFFF" points="25.918,28.537 25.977,28.486 26.408,28.418 25.996,28.554 25.918,28.537 	"/>
	<polyline fill="#FFFFFF" points="25.807,28.615 25.802,28.691 25.551,29.039 25.741,28.656 25.806,28.615 	"/>
	<polyline fill="#FFFFFF" points="25.882,28.488 25.888,28.412 26.138,28.066 25.949,28.449 25.883,28.49 	"/>
	<polyline fill="#FFFFFF" points="25.781,28.517 25.702,28.511 25.333,28.26 25.736,28.453 25.781,28.517 	"/>
	<polyline fill="#FFFFFF" points="25.915,28.594 25.993,28.599 26.362,28.851 25.96,28.66 25.915,28.595 	"/>
	<polyline fill="#FFFFFF" points="34.898,15.732 34.974,15.752 35.279,16.062 34.926,15.802 34.897,15.732 	"/>
	<polyline fill="#FFFFFF" points="34.783,15.633 34.707,15.611 34.401,15.301 34.753,15.562 34.784,15.633 	"/>
	<polygon fill="#FFFFFF" points="34.855,15.713 34.844,15.75 34.829,15.715 34.792,15.732 34.808,15.697 34.77,15.685 
		34.807,15.672 34.789,15.638 34.826,15.652 34.836,15.615 34.852,15.65 34.887,15.633 34.873,15.668 34.911,15.679 34.873,15.693 
		34.892,15.726 	"/>
	<polyline fill="#FFFFFF" points="34.789,15.738 34.767,15.81 34.442,16.103 34.714,15.765 34.788,15.736 	"/>
	<polyline fill="#FFFFFF" points="34.892,15.627 34.914,15.554 35.239,15.261 34.966,15.599 34.892,15.629 	"/>
	<polyline fill="#FFFFFF" points="34.841,15.754 34.878,15.822 34.856,16.248 34.808,15.824 34.84,15.754 	"/>
	<polyline fill="#FFFFFF" points="34.835,15.607 34.798,15.541 34.822,15.113 34.87,15.537 34.837,15.607 	"/>
	<polyline fill="#FFFFFF" points="34.766,15.687 34.697,15.724 34.25,15.713 34.693,15.656 34.766,15.685 	"/>
	<polyline fill="#FFFFFF" points="34.919,15.677 34.99,15.64 35.435,15.65 34.994,15.709 34.92,15.677 	"/>
	<polyline fill="#FFFFFF" points="32.044,18.654 32.097,18.715 32.187,19.14 32.031,18.73 32.044,18.654 	"/>
	<polyline fill="#FFFFFF" points="32.001,18.51 31.949,18.451 31.859,18.023 32.015,18.433 32.002,18.51 	"/>
	<polygon fill="#FFFFFF" points="32.019,18.617 31.99,18.64 31.996,18.603 31.957,18.599 31.989,18.578 31.962,18.547 
		32.001,18.554 32.003,18.517 32.027,18.549 32.056,18.523 32.05,18.562 32.089,18.566 32.058,18.588 32.083,18.617 32.044,18.609 
		32.042,18.648 	"/>
	<polyline fill="#FFFFFF" points="31.951,18.601 31.892,18.65 31.46,18.72 31.873,18.584 31.95,18.599 	"/>
	<polyline fill="#FFFFFF" points="32.096,18.564 32.154,18.515 32.585,18.443 32.173,18.582 32.096,18.564 	"/>
	<polyline fill="#FFFFFF" points="31.986,18.644 31.98,18.72 31.73,19.068 31.919,18.683 31.984,18.642 	"/>
	<polyline fill="#FFFFFF" points="32.06,18.517 32.066,18.441 32.314,18.094 32.126,18.476 32.061,18.517 	"/>
	<polyline fill="#FFFFFF" points="31.958,18.547 31.88,18.541 31.51,18.291 31.914,18.48 31.958,18.545 	"/>
	<polyline fill="#FFFFFF" points="32.093,18.621 32.171,18.629 32.541,18.877 32.138,18.687 32.092,18.623 	"/>
	<polyline fill="#FFFFFF" points="33.025,20.183 33.083,20.236 33.222,20.65 33.019,20.261 33.024,20.185 	"/>
	<polyline fill="#FFFFFF" points="32.964,20.047 32.905,19.994 32.767,19.58 32.97,19.969 32.966,20.045 	"/>
	<polygon fill="#FFFFFF" points="32.996,20.15 32.968,20.177 32.97,20.138 32.93,20.14 32.96,20.115 32.93,20.088 32.97,20.092 
		32.967,20.052 32.994,20.082 33.021,20.052 33.019,20.092 33.058,20.092 33.029,20.115 33.06,20.142 33.019,20.14 33.023,20.177 	
		"/>
	<polyline fill="#FFFFFF" points="32.924,20.142 32.873,20.197 32.453,20.318 32.845,20.135 32.923,20.14 	"/>
	<polyline fill="#FFFFFF" points="33.065,20.088 33.117,20.033 33.537,19.912 33.144,20.095 33.065,20.09 	"/>
	<polyline fill="#FFFFFF" points="32.964,20.181 32.968,20.258 32.761,20.631 32.904,20.228 32.963,20.179 	"/>
	<polyline fill="#FFFFFF" points="33.023,20.045 33.02,19.969 33.226,19.595 33.084,19.998 33.025,20.047 	"/>
	<polyline fill="#FFFFFF" points="32.926,20.086 32.847,20.09 32.451,19.885 32.874,20.027 32.926,20.086 	"/>
	<polyline fill="#FFFFFF" points="33.068,20.146 33.147,20.142 33.543,20.347 33.121,20.205 33.068,20.146 	"/>
	<polyline fill="#FFFFFF" points="31.597,21.439 31.656,21.492 31.794,21.906 31.591,21.517 31.595,21.441 	"/>
	<polyline fill="#FFFFFF" points="31.537,21.301 31.477,21.25 31.339,20.836 31.542,21.224 31.538,21.301 	"/>
	<polygon fill="#FFFFFF" points="31.567,21.404 31.541,21.433 31.542,21.394 31.502,21.394 31.533,21.371 31.501,21.344 
		31.542,21.345 31.54,21.308 31.566,21.338 31.593,21.308 31.591,21.347 31.63,21.345 31.601,21.371 31.631,21.398 31.591,21.394 
		31.594,21.433 	"/>
	<polyline fill="#FFFFFF" points="31.497,21.398 31.445,21.453 31.025,21.574 31.417,21.39 31.496,21.396 	"/>
	<polyline fill="#FFFFFF" points="31.637,21.344 31.689,21.287 32.109,21.168 31.716,21.351 31.637,21.345 	"/>
	<polyline fill="#FFFFFF" points="31.537,21.437 31.541,21.513 31.333,21.886 31.476,21.484 31.535,21.435 	"/>
	<polyline fill="#FFFFFF" points="31.595,21.301 31.591,21.224 31.798,20.851 31.657,21.254 31.597,21.302 	"/>
	<polyline fill="#FFFFFF" points="31.499,21.342 31.419,21.345 31.023,21.14 31.446,21.283 31.499,21.342 	"/>
	<polyline fill="#FFFFFF" points="31.64,21.402 31.719,21.398 32.116,21.603 31.693,21.461 31.64,21.402 	"/>
	<polyline fill="#FFFFFF" points="29.991,20.795 30.066,20.767 30.494,20.847 30.055,20.836 29.99,20.795 	"/>
	<polyline fill="#FFFFFF" points="29.839,20.779 29.765,20.806 29.337,20.726 29.775,20.738 29.84,20.779 	"/>
	<polygon fill="#FFFFFF" points="29.946,20.802 29.958,20.84 29.923,20.82 29.906,20.855 29.898,20.816 29.86,20.83 29.882,20.797 
		29.847,20.779 29.886,20.771 29.875,20.734 29.907,20.754 29.925,20.719 29.933,20.756 29.971,20.744 29.949,20.777 29.984,20.793 
			"/>
	<polyline fill="#FFFFFF" points="29.905,20.861 29.929,20.933 29.83,21.359 29.859,20.926 29.904,20.861 	"/>
	<polyline fill="#FFFFFF" points="29.925,20.713 29.902,20.64 30,20.215 29.971,20.646 29.927,20.713 	"/>
	<polyline fill="#FFFFFF" points="29.958,20.845 30.027,20.879 30.253,21.242 29.97,20.922 29.957,20.845 	"/>
	<polyline fill="#FFFFFF" points="29.869,20.728 29.8,20.693 29.574,20.332 29.857,20.652 29.87,20.726 	"/>
	<polyline fill="#FFFFFF" points="29.857,20.832 29.822,20.904 29.451,21.15 29.78,20.849 29.857,20.832 	"/>
	<polyline fill="#FFFFFF" points="29.978,20.738 30.013,20.666 30.384,20.42 30.056,20.72 29.978,20.738 	"/>
	<polyline fill="#FFFFFF" points="30.003,23.318 30.056,23.377 30.144,23.802 29.99,23.392 30.003,23.318 	"/>
	<polyline fill="#FFFFFF" points="29.96,23.172 29.908,23.113 29.821,22.685 29.976,23.097 29.962,23.172 	"/>
	<polygon fill="#FFFFFF" points="29.978,23.279 29.949,23.304 29.955,23.265 29.916,23.261 29.948,23.24 29.921,23.211 
		29.96,23.219 29.962,23.179 29.986,23.211 30.015,23.187 30.009,23.224 30.048,23.228 30.017,23.25 30.043,23.281 30.003,23.273 
		30.001,23.31 	"/>
	<polyline fill="#FFFFFF" points="29.91,23.263 29.851,23.312 29.419,23.381 29.832,23.246 29.909,23.261 	"/>
	<polyline fill="#FFFFFF" points="30.055,23.226 30.113,23.177 30.545,23.109 30.132,23.244 30.055,23.228 	"/>
	<polyline fill="#FFFFFF" points="29.945,23.306 29.939,23.383 29.688,23.728 29.878,23.345 29.943,23.304 	"/>
	<polyline fill="#FFFFFF" points="30.019,23.179 30.025,23.103 30.275,22.758 30.085,23.14 30.021,23.179 	"/>
	<polyline fill="#FFFFFF" points="29.917,23.209 29.839,23.203 29.471,22.951 29.873,23.142 29.918,23.207 	"/>
	<polyline fill="#FFFFFF" points="30.052,23.285 30.13,23.291 30.5,23.543 30.097,23.349 30.052,23.285 	"/>
	<polyline fill="#FFFFFF" points="36.125,14.135 36.178,14.193 36.267,14.621 36.111,14.211 36.125,14.135 	"/>
	<polyline fill="#FFFFFF" points="36.082,13.99 36.029,13.931 35.94,13.504 36.096,13.914 36.083,13.99 	"/>
	<polygon fill="#FFFFFF" points="36.1,14.097 36.071,14.121 36.077,14.082 36.037,14.08 36.07,14.058 36.042,14.027 36.082,14.035 
		36.083,13.996 36.107,14.029 36.136,14.004 36.13,14.043 36.17,14.047 36.138,14.066 36.165,14.097 36.125,14.09 36.124,14.129 	
		"/>
	<polyline fill="#FFFFFF" points="36.031,14.08 35.972,14.131 35.542,14.201 35.953,14.064 36.031,14.08 	"/>
	<polyline fill="#FFFFFF" points="36.177,14.045 36.234,13.994 36.666,13.924 36.253,14.06 36.177,14.045 	"/>
	<polyline fill="#FFFFFF" points="36.066,14.125 36.06,14.201 35.811,14.547 36,14.164 36.065,14.123 	"/>
	<polyline fill="#FFFFFF" points="36.14,13.996 36.146,13.92 36.395,13.574 36.207,13.957 36.142,13.998 	"/>
	<polyline fill="#FFFFFF" points="36.039,14.025 35.96,14.019 35.591,13.769 35.994,13.961 36.04,14.025 	"/>
	<polyline fill="#FFFFFF" points="36.173,14.101 36.251,14.107 36.622,14.357 36.218,14.166 36.173,14.103 	"/>
	<polyline fill="#FFFFFF" points="38.193,12.873 38.253,12.926 38.392,13.34 38.188,12.951 38.193,12.875 	"/>
	<polyline fill="#FFFFFF" points="38.132,12.734 38.074,12.683 37.935,12.269 38.138,12.658 38.134,12.734 	"/>
	<polygon fill="#FFFFFF" points="38.164,12.84 38.138,12.867 38.138,12.828 38.099,12.828 38.128,12.804 38.099,12.777 
		38.138,12.779 38.136,12.742 38.164,12.771 38.189,12.742 38.188,12.781 38.228,12.781 38.199,12.804 38.228,12.832 38.188,12.83 
		38.191,12.867 	"/>
	<polyline fill="#FFFFFF" points="38.093,12.832 38.041,12.886 37.621,13.008 38.013,12.824 38.092,12.83 	"/>
	<polyline fill="#FFFFFF" points="38.234,12.777 38.285,12.722 38.706,12.601 38.312,12.785 38.234,12.779 	"/>
	<polyline fill="#FFFFFF" points="38.132,12.871 38.136,12.947 37.929,13.32 38.072,12.918 38.132,12.869 	"/>
	<polyline fill="#FFFFFF" points="38.192,12.734 38.189,12.658 38.395,12.285 38.253,12.687 38.193,12.736 	"/>
	<polyline fill="#FFFFFF" points="38.095,12.775 38.016,12.779 37.62,12.574 38.042,12.717 38.095,12.775 	"/>
	<polyline fill="#FFFFFF" points="38.237,12.836 38.316,12.832 38.712,13.037 38.29,12.894 38.237,12.836 	"/>
	<polyline fill="#FFFFFF" points="36.183,16.554 36.257,16.527 36.685,16.607 36.248,16.595 36.183,16.554 	"/>
	<polyline fill="#FFFFFF" points="36.033,16.539 35.958,16.566 35.529,16.486 35.968,16.498 36.033,16.539 	"/>
	<polygon fill="#FFFFFF" points="36.138,16.562 36.15,16.599 36.117,16.58 36.097,16.615 36.09,16.576 36.052,16.59 36.074,16.556 
		36.039,16.539 36.078,16.531 36.066,16.494 36.099,16.513 36.118,16.478 36.125,16.515 36.164,16.504 36.141,16.537 36.176,16.552 
			"/>
	<polyline fill="#FFFFFF" points="36.097,16.621 36.121,16.693 36.023,17.119 36.052,16.685 36.095,16.621 	"/>
	<polyline fill="#FFFFFF" points="36.119,16.472 36.094,16.4 36.193,15.974 36.164,16.406 36.119,16.472 	"/>
	<polyline fill="#FFFFFF" points="36.15,16.605 36.218,16.638 36.445,17.002 36.162,16.681 36.149,16.605 	"/>
	<polyline fill="#FFFFFF" points="36.06,16.488 35.992,16.453 35.765,16.092 36.048,16.412 36.062,16.486 	"/>
	<polyline fill="#FFFFFF" points="36.05,16.592 36.014,16.664 35.642,16.91 35.972,16.609 36.048,16.592 	"/>
	<polyline fill="#FFFFFF" points="36.169,16.498 36.206,16.426 36.578,16.179 36.248,16.48 36.171,16.498 	"/>
	<polyline fill="#FFFFFF" points="34.396,18.34 34.449,18.398 34.537,18.826 34.381,18.416 34.395,18.34 	"/>
	<polyline fill="#FFFFFF" points="34.353,18.195 34.3,18.136 34.212,17.709 34.368,18.119 34.355,18.195 	"/>
	<polygon fill="#FFFFFF" points="34.371,18.301 34.341,18.326 34.347,18.287 34.308,18.283 34.34,18.263 34.314,18.232 
		34.353,18.24 34.355,18.201 34.378,18.234 34.408,18.209 34.402,18.248 34.441,18.252 34.41,18.271 34.435,18.302 34.396,18.295 
		34.394,18.334 	"/>
	<polyline fill="#FFFFFF" points="34.301,18.285 34.244,18.334 33.812,18.404 34.224,18.267 34.301,18.285 	"/>
	<polyline fill="#FFFFFF" points="34.448,18.25 34.505,18.199 34.937,18.131 34.525,18.267 34.448,18.25 	"/>
	<polyline fill="#FFFFFF" points="34.336,18.328 34.332,18.404 34.081,18.752 34.271,18.369 34.335,18.328 	"/>
	<polyline fill="#FFFFFF" points="34.412,18.201 34.417,18.125 34.667,17.779 34.478,18.162 34.413,18.203 	"/>
	<polyline fill="#FFFFFF" points="34.31,18.23 34.232,18.224 33.863,17.972 34.265,18.166 34.31,18.23 	"/>
	<polyline fill="#FFFFFF" points="34.444,18.306 34.523,18.312 34.891,18.564 34.49,18.373 34.444,18.308 	"/>
</g>
</svg>
