<?xml version="1.0" encoding="utf-8"?>
<!-- Generator: Adobe Illustrator 16.0.4, SVG Export Plug-In . SVG Version: 6.00 Build 0)  -->
<!DOCTYPE svg PUBLIC "-//W3C//DTD SVG 1.1//EN" "http://www.w3.org/Graphics/SVG/1.1/DTD/svg11.dtd">
<svg version="1.1"
	 id="svg9432" sodipodi:docname="A-K2a-III_Grauwacke.svg" inkscape:version="0.92.3 (2405546, 2018-03-11)" xmlns:svg="http://www.w3.org/2000/svg" xmlns:rdf="http://www.w3.org/1999/02/22-rdf-syntax-ns#" xmlns:inkscape="http://www.inkscape.org/namespaces/inkscape" xmlns:dc="http://purl.org/dc/elements/1.1/" xmlns:cc="http://creativecommons.org/ns#" xmlns:sodipodi="http://sodipodi.sourceforge.net/DTD/sodipodi-0.dtd"
	 xmlns="http://www.w3.org/2000/svg" xmlns:xlink="http://www.w3.org/1999/xlink" x="0px" y="0px" width="58.839px"
	 height="56.855px" viewBox="0 0 58.839 56.855" enable-background="new 0 0 58.839 56.855" xml:space="preserve">
<sodipodi:namedview  inkscape:cy="28.738358" showguides="true" inkscape:zoom="7.848108" pagecolor="#ffffff" id="base" bordercolor="#666666" showgrid="true" fit-margin-top="0" inkscape:cx="33.045877" fit-margin-left="0" borderopacity="1.0" inkscape:window-x="1671" inkscape:window-y="-9" inkscape:document-units="px" inkscape:pageopacity="0.0" fit-margin-right="0" inkscape:grid-bbox="true" inkscape:pageshadow="2" fit-margin-bottom="0" inkscape:guide-bbox="true" inkscape:window-width="1680" inkscape:window-height="989" inkscape:window-maximized="1" inkscape:current-layer="layer1" inkscape:snap-global="false">
	</sodipodi:namedview>
<sodipodi:namedview  inkscape:cy="28.738358" showguides="true" inkscape:zoom="7.848108" pagecolor="#ffffff" id="base" bordercolor="#666666" showgrid="true" fit-margin-top="0" inkscape:cx="33.045877" fit-margin-left="0" borderopacity="1.0" inkscape:window-x="1671" inkscape:window-y="-9" inkscape:document-units="px" inkscape:pageopacity="0.0" fit-margin-right="0" inkscape:grid-bbox="true" inkscape:pageshadow="2" fit-margin-bottom="0" inkscape:guide-bbox="true" inkscape:window-width="1680" inkscape:window-height="989" inkscape:window-maximized="1" inkscape:current-layer="layer1" inkscape:snap-global="false">
	</sodipodi:namedview>
<sodipodi:namedview  inkscape:cy="28.738358" showguides="true" inkscape:zoom="7.848108" pagecolor="#ffffff" id="base" bordercolor="#666666" showgrid="true" fit-margin-top="0" inkscape:cx="33.045877" fit-margin-left="0" borderopacity="1.0" inkscape:window-x="1671" inkscape:window-y="-9" inkscape:document-units="px" inkscape:pageopacity="0.0" fit-margin-right="0" inkscape:grid-bbox="true" inkscape:pageshadow="2" fit-margin-bottom="0" inkscape:guide-bbox="true" inkscape:window-width="1680" inkscape:window-height="989" inkscape:window-maximized="1" inkscape:current-layer="layer1" inkscape:snap-global="false">
	</sodipodi:namedview>
<rect y="0" fill="#8F8D0E" stroke="#8F8D0E" stroke-width="1.2" stroke-miterlimit="10" width="58.839" height="56.855"/>
<g>
	<line fill="#E60000" x1="29.316" y1="21.273" x2="29.316" y2="52.255"/>
	<g>
		<line fill="none" stroke="#FFFFFF" stroke-width="4" stroke-miterlimit="10" x1="29.316" y1="21.273" x2="29.316" y2="43.843"/>
		<g>
			<polygon fill="#FFFFFF" points="39.035,42.539 19.597,42.539 29.314,52.255 			"/>
		</g>
	</g>
</g>
<g>
	<path fill="#FFFFFF" d="M50.411,20.099c0,0-0.764-0.229-2.012-0.729c-0.307-0.129-0.647-0.272-1.018-0.428
		c-0.363-0.117-0.756-0.244-1.175-0.379c-0.812-0.276-1.664-0.599-2.687-0.86c-0.484-0.149-0.988-0.304-1.51-0.465
		c-0.54-0.11-1.075-0.253-1.628-0.383c-0.276-0.063-0.55-0.139-0.824-0.218c-0.281-0.063-0.573-0.102-0.862-0.155
		c-0.583-0.089-1.155-0.231-1.742-0.348c-1.207-0.111-2.398-0.37-3.644-0.421c-1.23-0.147-2.486-0.127-3.735-0.186
		c-1.25,0.053-2.503,0.034-3.734,0.174c-1.244,0.054-2.438,0.296-3.644,0.408c-0.587,0.112-1.158,0.255-1.742,0.34
		c-0.289,0.051-0.582,0.088-0.863,0.15c-0.276,0.076-0.548,0.154-0.825,0.215c-0.553,0.127-1.09,0.264-1.629,0.375
		c-0.522,0.158-1.027,0.311-1.512,0.457c-1.013,0.248-1.9,0.589-2.726,0.872c-0.419,0.134-0.807,0.273-1.187,0.383
		c-0.359,0.143-0.689,0.274-0.987,0.394c-1.221,0.465-2.008,0.707-2.008,0.707s0.293-0.716,0.961-1.927
		c0.166-0.305,0.361-0.633,0.582-0.99c0.237-0.336,0.517-0.678,0.811-1.06c0.295-0.381,0.63-0.766,0.981-1.187
		c0.349-0.425,0.791-0.768,1.221-1.187c0.441-0.402,0.916-0.809,1.414-1.23c0.523-0.373,1.084-0.735,1.66-1.123
		c0.573-0.398,1.192-0.748,1.85-1.057c0.648-0.335,1.334-0.629,2.029-0.948c0.711-0.263,1.452-0.49,2.202-0.727
		c0.744-0.271,1.527-0.407,2.318-0.548c1.573-0.371,3.214-0.393,4.846-0.489c1.632,0.104,3.272,0.139,4.843,0.518
		c0.79,0.144,1.571,0.291,2.314,0.562c0.75,0.237,1.487,0.474,2.197,0.739c0.694,0.319,1.377,0.621,2.023,0.958
		c0.656,0.312,1.275,0.661,1.845,1.065c0.574,0.39,1.134,0.752,1.654,1.13c0.496,0.422,0.97,0.83,1.408,1.235
		c0.431,0.423,0.861,0.759,1.223,1.197c0.361,0.432,0.706,0.823,1.004,1.212c0.299,0.387,0.579,0.734,0.815,1.072
		c0.206,0.346,0.387,0.665,0.544,0.963C50.099,19.365,50.411,20.099,50.411,20.099z"/>
</g>
<g>
	<path fill="#FFFFFF" stroke="#FFFFFF" stroke-width="0.1984" stroke-miterlimit="10" d="M16.432,29.416
		c-0.939-0.111-3.063,0.213-3.659,0.826c-0.508,0.512-0.173,2.319,0.488,2.599c0.667,0.271,2.477,1.106,3.34,0.956
		c0.483-0.09,1.143-0.803,1.5-1.101c0.408-0.349,1.355-1.026,1.496-1.496c0.103-0.345-0.018-1.136-0.341-1.37
		c-0.369-0.272-1.503-0.045-1.99-0.136C17.043,29.647,16.658,29.443,16.432,29.416z"/>
	<path fill="#FFFFFF" stroke="#FFFFFF" stroke-width="0.2142" stroke-miterlimit="10" d="M48.255,29.714
		c-1.019-0.124-2.471,0.379-3.122,1.028c-0.539,0.557,0.721,2.22,1.442,2.512c0.721,0.3,1.767,1.499,2.701,1.335
		c0.525-0.096,0.635-1.106,1.018-1.427c0.443-0.378,2.063-0.878,2.216-1.386c0.111-0.362-0.011-1.22-0.368-1.477
		c-0.389-0.289-1.804,0.492-2.327,0.395C49.155,30.563,48.92,29.793,48.255,29.714z"/>
	<polygon fill="#FFFFFF" stroke="#FFFFFF" stroke-width="0.2142" stroke-miterlimit="10" points="48.869,42.067 46.72,44.197 
		49.451,45.842 52.595,45.949 52.658,44.293 53.808,42.214 52.631,41.054 50.814,42.317 	"/>
	<polygon fill="#FFFFFF" stroke="#FFFFFF" stroke-width="0.2083" stroke-miterlimit="10" points="11.214,37.011 7.378,37.879 
		7.9,40.603 11.391,41.61 12.156,40.127 14.546,38.878 14.19,37.439 12.096,37.294 	"/>
	<path fill="#FFFFFF" stroke="#FFFFFF" stroke-width="0.1454" stroke-miterlimit="10" d="M42.503,21.994
		c-0.7,0.359-2.012,1.473-2.142,2.026c-0.112,0.475,0.955,1.196,1.548,1.028c0.573-0.167,2.205-0.571,2.73-1.035
		c0.3-0.257,0.423-0.892,0.536-1.192c0.123-0.35,0.448-1.098,0.334-1.392c-0.09-0.21-0.534-0.538-0.87-0.506
		c-0.385,0.036-1.054,0.657-1.437,0.828C43.033,21.826,42.666,21.904,42.503,21.994z"/>
	<path fill="#FFFFFF" stroke="#FFFFFF" stroke-width="0.1454" stroke-miterlimit="10" d="M46.864,52.575
		c-0.749-0.274-2.608-0.561-3.241-0.339c-0.552,0.189-0.679,1.32-0.179,1.627c0.485,0.315,1.806,1.191,2.553,1.299
		c0.43,0.058,1.153-0.208,1.508-0.307c0.425-0.109,1.372-0.3,1.601-0.542c0.164-0.175,0.247-0.657,0.032-0.868
		c-0.251-0.241-1.247-0.359-1.633-0.523C47.333,52.845,47.043,52.643,46.864,52.575z"/>
	<polygon fill="#FFFFFF" stroke="#FFFFFF" stroke-width="0.1454" stroke-miterlimit="10" points="11.513,24.152 8.855,22.585 
		7.76,23.949 9.262,26.089 10.762,26.407 12.486,26.553 13.021,25.804 11.883,24.698 	"/>
	<polygon fill="#FFFFFF" stroke="#FFFFFF" stroke-width="0.1454" stroke-miterlimit="10" points="13.138,51.429 9.888,51.092 
		9.706,52.721 12.278,54.013 13.773,53.707 15.372,53.165 15.407,52.293 13.773,51.765 	"/>
</g>
</svg>
