<?xml version="1.0" encoding="utf-8"?>
<!-- Generator: Adobe Illustrator 16.0.4, SVG Export Plug-In . SVG Version: 6.00 Build 0)  -->
<!DOCTYPE svg PUBLIC "-//W3C//DTD SVG 1.1//EN" "http://www.w3.org/Graphics/SVG/1.1/DTD/svg11.dtd">
<svg version="1.1" id="Ebene_3" xmlns="http://www.w3.org/2000/svg" xmlns:xlink="http://www.w3.org/1999/xlink" x="0px" y="0px"
	 width="58.839px" height="56.855px" viewBox="0 0 58.839 56.855" enable-background="new 0 0 58.839 56.855" xml:space="preserve">
<rect y="0" fill="#FFFFFF" stroke="#A30505" stroke-width="2" stroke-miterlimit="10" width="58.839" height="56.855"/>
<g>
	<circle fill="#A30505" cx="29.564" cy="23.123" r="10.336"/>
	<g>
		<path fill="none" stroke="#A30505" stroke-width="2.5" stroke-miterlimit="10" d="M17.815,14.8
			c-4.591,4.206-4.603,11.652-0.025,16.647"/>
		<path fill="none" stroke="#A30505" stroke-width="2.5" stroke-miterlimit="10" d="M12.29,10.637
			c-6.887,6.311-6.903,17.477-0.039,24.972"/>
	</g>
	<g>
		<path fill="none" stroke="#A30505" stroke-width="2.5" stroke-miterlimit="10" d="M42.242,14.8
			c4.592,4.206,4.602,11.652,0.025,16.647"/>
		<path fill="none" stroke="#A30505" stroke-width="2.5" stroke-miterlimit="10" d="M47.767,10.637
			c6.887,6.311,6.902,17.477,0.037,24.972"/>
	</g>
	<path fill="#A30505" stroke="#A30505" stroke-width="0.25" stroke-miterlimit="10" d="M37.358,33.238l15.543,13.971H6.649
		L22.067,32.86c0,0,2.321,1.726,3.209,2.077c1.145,0.453,3.614,0.892,4.845,0.881c1.123-0.01,3.357-0.477,4.404-0.881
		C35.297,34.638,37.358,33.238,37.358,33.238z"/>
</g>
</svg>
