<?xml version="1.0" encoding="utf-8"?>
<!-- Generator: Adobe Illustrator 16.0.4, SVG Export Plug-In . SVG Version: 6.00 Build 0)  -->
<!DOCTYPE svg PUBLIC "-//W3C//DTD SVG 1.1//EN" "http://www.w3.org/Graphics/SVG/1.1/DTD/svg11.dtd">
<svg version="1.1"
	 id="svg9432" inkscape:version="0.92.3 (2405546, 2018-03-11)" sodipodi:docname="A-K2a-III_Grauwacke.svg" xmlns:cc="http://creativecommons.org/ns#" xmlns:svg="http://www.w3.org/2000/svg" xmlns:rdf="http://www.w3.org/1999/02/22-rdf-syntax-ns#" xmlns:sodipodi="http://sodipodi.sourceforge.net/DTD/sodipodi-0.dtd" xmlns:inkscape="http://www.inkscape.org/namespaces/inkscape" xmlns:dc="http://purl.org/dc/elements/1.1/"
	 xmlns="http://www.w3.org/2000/svg" xmlns:xlink="http://www.w3.org/1999/xlink" x="0px" y="0px" width="58.839px"
	 height="56.855px" viewBox="0 0 58.839 56.855" enable-background="new 0 0 58.839 56.855" xml:space="preserve">
<circle fill="#FFFFFF" stroke="#BC730A" stroke-width="4" stroke-miterlimit="10" cx="29.702" cy="28.457" r="26.221"/>
<g>
	<g>
		<polygon fill="#BC730A" stroke="#BC730A" stroke-width="0.25" stroke-miterlimit="10" points="30.091,2.177 34.563,2.177 
			32.328,8.145 30.091,14.112 27.855,8.145 25.619,2.177 		"/>
		<polygon fill="#BC730A" stroke="#BC730A" stroke-width="0.25" stroke-miterlimit="10" points="30.089,54.737 25.619,54.737 
			27.855,48.77 30.089,42.802 32.328,48.77 34.563,54.737 		"/>
	</g>
	<g>
		<polygon fill="#BC730A" stroke="#BC730A" stroke-width="0.25" stroke-miterlimit="10" points="55.871,28.458 55.871,32.929 
			49.904,30.693 43.936,28.458 49.904,26.221 55.871,23.985 		"/>
		<polygon fill="#BC730A" stroke="#BC730A" stroke-width="0.25" stroke-miterlimit="10" points="3.311,28.457 3.311,23.985 
			9.278,26.221 15.246,28.457 9.278,30.693 3.311,32.929 		"/>
	</g>
	<g>
		<polygon fill="#BC730A" stroke="#BC730A" stroke-width="0.25" stroke-miterlimit="10" points="48.425,10.126 51.587,13.287 
			45.787,15.926 39.986,18.564 42.625,12.763 45.263,6.963 		"/>
		<polygon fill="#BC730A" stroke="#BC730A" stroke-width="0.25" stroke-miterlimit="10" points="11.259,47.291 8.097,44.129 
			13.898,41.49 19.699,38.851 17.06,44.652 14.421,50.453 		"/>
	</g>
	<g>
		<polygon fill="#BC730A" stroke="#BC730A" stroke-width="0.25" stroke-miterlimit="10" points="48.505,46.789 45.343,49.951 
			42.705,44.15 40.066,38.349 45.867,40.988 51.667,43.626 		"/>
		<polygon fill="#BC730A" stroke="#BC730A" stroke-width="0.25" stroke-miterlimit="10" points="11.34,9.623 14.502,6.461 
			17.14,12.26 19.779,18.062 13.978,15.424 8.177,12.785 		"/>
	</g>
</g>
<polygon fill="#BC730A" stroke="#BC730A" stroke-width="0.5" points="12.015,20.987 9.429,19.884 11.677,18.196 "/>
<polygon fill="#BC730A" stroke="#BC730A" stroke-width="0.5" points="35.303,11.118 35.939,7.724 38.563,9.972 "/>
<polygon fill="#BC730A" stroke="#BC730A" stroke-width="0.5" points="28.198,32.81 24.745,29.828 29.054,28.326 "/>
<polygon fill="#BC730A" stroke="#BC730A" stroke-width="0.5" points="48.349,37.358 45.686,33.484 50.369,33.11 "/>
<polygon fill="#BC730A" stroke="#BC730A" stroke-width="0.5" points="22.194,38.539 21.95,35.867 24.382,36.994 "/>
<polygon fill="#BC730A" stroke="#BC730A" stroke-width="0.5" points="15.855,35.744 12.617,35.01 14.871,32.574 "/>
<polygon fill="#BC730A" stroke="#BC730A" stroke-width="0.5" points="14.446,24.94 14.154,23.484 15.564,23.957 "/>
<polygon fill="#BC730A" stroke="#BC730A" stroke-width="0.5" points="36.477,18.194 33.731,17.184 35.979,15.31 "/>
<polygon fill="#BC730A" stroke="#BC730A" stroke-width="0.5" points="45.76,22.32 44.384,20.304 46.819,20.116 "/>
<polygon fill="#BC730A" stroke="#BC730A" stroke-width="0.5" points="11.279,40.079 10.177,38.55 12.052,38.363 "/>
<polygon fill="#BC730A" stroke="#BC730A" stroke-width="0.5" points="35.106,40.108 31.29,39.496 33.725,36.495 "/>
<polygon fill="#BC730A" stroke="#BC730A" stroke-width="0.5" points="35.888,34.31 37.627,28.33 41.942,32.826 "/>
<polygon fill="#BC730A" stroke="#BC730A" stroke-width="0.5" points="21.984,25.178 23.724,19.197 28.038,23.693 "/>
<polygon fill="#BC730A" stroke="#BC730A" stroke-width="0.5" points="23.729,46.91 20.276,43.929 24.585,42.427 "/>
<polygon fill="#BC730A" stroke="#BC730A" stroke-width="0.5" points="38.807,48.923 36.144,45.05 40.827,44.676 "/>
<polygon fill="#BC730A" stroke="#BC730A" stroke-width="0.5" points="39.274,26.28 38.172,24.751 40.047,24.564 "/>
<polygon fill="#BC730A" stroke="#BC730A" stroke-width="0.5" points="25.838,15.864 26.078,13.192 23.681,14.319 "/>
<polygon fill="#BC730A" stroke="#BC730A" stroke-width="0.5" points="20.22,11.376 23.982,10.764 21.582,7.763 "/>
</svg>
