<?xml version="1.0" encoding="utf-8"?>
<!-- Generator: Adobe Illustrator 16.0.4, SVG Export Plug-In . SVG Version: 6.00 Build 0)  -->
<!DOCTYPE svg PUBLIC "-//W3C//DTD SVG 1.1//EN" "http://www.w3.org/Graphics/SVG/1.1/DTD/svg11.dtd">
<svg version="1.1"
	 id="svg9432" sodipodi:docname="A-K2a-III_Grauwacke.svg" inkscape:version="0.92.3 (2405546, 2018-03-11)" xmlns:svg="http://www.w3.org/2000/svg" xmlns:rdf="http://www.w3.org/1999/02/22-rdf-syntax-ns#" xmlns:inkscape="http://www.inkscape.org/namespaces/inkscape" xmlns:dc="http://purl.org/dc/elements/1.1/" xmlns:cc="http://creativecommons.org/ns#" xmlns:sodipodi="http://sodipodi.sourceforge.net/DTD/sodipodi-0.dtd"
	 xmlns="http://www.w3.org/2000/svg" xmlns:xlink="http://www.w3.org/1999/xlink" x="0px" y="0px" width="58.839px"
	 height="56.855px" viewBox="0 0 58.839 56.855" enable-background="new 0 0 58.839 56.855" xml:space="preserve">
<rect x="-0.001" y="0.001" fill="#FFFFFF" stroke="#FF6E0A" stroke-width="4" stroke-miterlimit="10" width="58.84" height="56.432"/>
<polygon fill="#FF6E0A" points="45.163,56.433 40.68,33.177 40.911,27.115 44.358,13.117 39.072,10.582 52.158,0.001 58.838,0.001 
	58.838,56.433 "/>
<polygon fill="#FF6E0A" points="31.472,52.404 29.533,56.433 13.642,49.393 15.584,45.378 "/>
<polygon fill="#FF6E0A" points="8.876,50.792 5.134,48.188 15.434,34.61 19.166,37.221 "/>
<path fill="none" stroke="#FFFFFF" stroke-width="0.6" stroke-miterlimit="10" d="M31.566,40.265"/>
<path fill="none" stroke="#FFFFFF" stroke-width="1.5" stroke-miterlimit="10" d="M48.38,8.157"/>
<path fill="none" stroke="#FFFFFF" stroke-width="1.5" stroke-miterlimit="10" d="M44.128,56.433"/>
<g>
	<polygon fill="#FF6E0A" points="38.402,56.855 31.586,35.594 36.919,34.26 44.585,56.855 	"/>
</g>
<g>
	<polygon fill="#FF6E0A" points="45.085,11.927 36.919,34.26 31.086,32.76 39.253,10.511 	"/>
</g>
</svg>
