<?xml version="1.0" encoding="utf-8"?>
<!-- Generator: Adobe Illustrator 16.0.4, SVG Export Plug-In . SVG Version: 6.00 Build 0)  -->
<!DOCTYPE svg PUBLIC "-//W3C//DTD SVG 1.1//EN" "http://www.w3.org/Graphics/SVG/1.1/DTD/svg11.dtd">
<svg version="1.1"
	 id="svg9432" sodipodi:docname="A-K2a-III_Grauwacke.svg" inkscape:version="0.92.3 (2405546, 2018-03-11)" xmlns:svg="http://www.w3.org/2000/svg" xmlns:rdf="http://www.w3.org/1999/02/22-rdf-syntax-ns#" xmlns:inkscape="http://www.inkscape.org/namespaces/inkscape" xmlns:dc="http://purl.org/dc/elements/1.1/" xmlns:cc="http://creativecommons.org/ns#" xmlns:sodipodi="http://sodipodi.sourceforge.net/DTD/sodipodi-0.dtd"
	 xmlns="http://www.w3.org/2000/svg" xmlns:xlink="http://www.w3.org/1999/xlink" x="0px" y="0px" width="58.839px"
	 height="56.855px" viewBox="0 0 58.839 56.855" enable-background="new 0 0 58.839 56.855" xml:space="preserve">
<sodipodi:namedview  inkscape:cy="28.738358" showguides="true" inkscape:zoom="7.848108" pagecolor="#ffffff" id="base" bordercolor="#666666" showgrid="true" fit-margin-top="0" inkscape:cx="33.045877" fit-margin-left="0" borderopacity="1.0" inkscape:window-x="1671" inkscape:window-y="-9" inkscape:document-units="px" inkscape:pageopacity="0.0" fit-margin-right="0" inkscape:grid-bbox="true" inkscape:pageshadow="2" fit-margin-bottom="0" inkscape:guide-bbox="true" inkscape:window-width="1680" inkscape:window-height="989" inkscape:window-maximized="1" inkscape:current-layer="layer1" inkscape:snap-global="false">
	</sodipodi:namedview>
<sodipodi:namedview  inkscape:cy="28.738358" showguides="true" inkscape:zoom="7.848108" pagecolor="#ffffff" id="base" bordercolor="#666666" showgrid="true" fit-margin-top="0" inkscape:cx="33.045877" fit-margin-left="0" borderopacity="1.0" inkscape:window-x="1671" inkscape:window-y="-9" inkscape:document-units="px" inkscape:pageopacity="0.0" fit-margin-right="0" inkscape:grid-bbox="true" inkscape:pageshadow="2" fit-margin-bottom="0" inkscape:guide-bbox="true" inkscape:window-width="1680" inkscape:window-height="989" inkscape:window-maximized="1" inkscape:current-layer="layer1" inkscape:snap-global="false">
	</sodipodi:namedview>
<sodipodi:namedview  inkscape:cy="28.738358" showguides="true" inkscape:zoom="7.848108" pagecolor="#ffffff" id="base" bordercolor="#666666" showgrid="true" fit-margin-top="0" inkscape:cx="33.045877" fit-margin-left="0" borderopacity="1.0" inkscape:window-x="1671" inkscape:window-y="-9" inkscape:document-units="px" inkscape:pageopacity="0.0" fit-margin-right="0" inkscape:grid-bbox="true" inkscape:pageshadow="2" fit-margin-bottom="0" inkscape:guide-bbox="true" inkscape:window-width="1680" inkscape:window-height="989" inkscape:window-maximized="1" inkscape:current-layer="layer1" inkscape:snap-global="false">
	</sodipodi:namedview>
<rect y="0" fill="#8F8D0E" stroke="#8F8D0E" stroke-width="1.2" stroke-miterlimit="10" width="58.839" height="56.855"/>
<g>
	<line fill="#E60000" x1="21.597" y1="19.273" x2="21.597" y2="50.255"/>
	<g>
		<line fill="none" stroke="#FFFFFF" stroke-width="4" stroke-miterlimit="10" x1="21.597" y1="19.273" x2="21.597" y2="41.843"/>
		<g>
			<polygon fill="#FFFFFF" points="31.316,40.539 11.878,40.539 21.595,50.255 			"/>
		</g>
	</g>
</g>
<g>
	<path fill="#FFFFFF" d="M42.691,18.099c0,0-0.764-0.229-2.012-0.729c-0.307-0.129-0.646-0.272-1.018-0.428
		c-0.363-0.117-0.756-0.244-1.174-0.379c-0.812-0.276-1.664-0.599-2.688-0.86c-0.484-0.149-0.988-0.304-1.51-0.465
		c-0.539-0.11-1.074-0.253-1.627-0.383c-0.277-0.063-0.551-0.139-0.824-0.218c-0.281-0.063-0.574-0.102-0.863-0.155
		c-0.582-0.089-1.155-0.231-1.742-0.348c-1.207-0.111-2.398-0.37-3.644-0.421c-1.23-0.147-2.486-0.127-3.735-0.186
		c-1.25,0.053-2.503,0.034-3.734,0.174c-1.244,0.054-2.438,0.296-3.644,0.408c-0.587,0.112-1.158,0.255-1.742,0.34
		c-0.289,0.051-0.582,0.088-0.863,0.15c-0.276,0.076-0.548,0.154-0.825,0.215c-0.553,0.127-1.09,0.264-1.629,0.375
		c-0.522,0.158-1.027,0.311-1.512,0.457c-1.013,0.248-1.9,0.589-2.726,0.872c-0.419,0.134-0.807,0.273-1.187,0.383
		c-0.359,0.143-0.689,0.274-0.987,0.394C1.787,17.76,1,18.002,1,18.002s0.293-0.716,0.961-1.927c0.166-0.305,0.361-0.633,0.582-0.99
		c0.237-0.336,0.517-0.678,0.811-1.06c0.295-0.381,0.63-0.766,0.981-1.187c0.349-0.425,0.791-0.768,1.221-1.187
		c0.441-0.402,0.916-0.809,1.414-1.23c0.523-0.373,1.084-0.735,1.66-1.123c0.573-0.398,1.192-0.748,1.85-1.057
		c0.648-0.335,1.334-0.629,2.029-0.948c0.711-0.263,1.452-0.49,2.202-0.727c0.744-0.271,1.527-0.407,2.318-0.548
		c1.573-0.371,3.214-0.393,4.846-0.489c1.632,0.104,3.272,0.139,4.843,0.518c0.79,0.144,1.571,0.291,2.314,0.562
		c0.75,0.237,1.487,0.474,2.198,0.739c0.693,0.319,1.377,0.621,2.023,0.958c0.656,0.312,1.275,0.661,1.844,1.065
		c0.574,0.39,1.135,0.752,1.654,1.13c0.496,0.422,0.971,0.83,1.408,1.235c0.432,0.423,0.861,0.759,1.223,1.197
		c0.361,0.432,0.707,0.823,1.004,1.212c0.299,0.387,0.58,0.734,0.816,1.072c0.205,0.346,0.387,0.665,0.543,0.963
		C42.38,17.365,42.691,18.099,42.691,18.099z"/>
</g>
<g>
	<path fill="#FFFFFF" d="M40.712,44.003c0.76,0.455,2.242,0.987,3.533,0.987c1.103,0,1.71-0.38,1.71-1.216
		c0-0.798-0.569-1.216-2.09-2.052c-3.306-1.785-3.799-3.875-3.799-5.395c0-3.496,2.47-6.231,6.572-6.231
		c1.597,0,2.888,0.342,3.99,0.836l-0.912,4.255c-0.722-0.38-1.634-0.722-2.66-0.722c-1.14,0-1.634,0.57-1.634,1.254
		c0,0.646,0.418,1.025,2.128,1.976c3.002,1.634,3.724,3.686,3.724,5.585c0,3.876-2.812,6.041-7.029,6.041
		c-1.634,0-3.609-0.418-4.483-1.063L40.712,44.003z"/>
</g>
</svg>
