<?xml version="1.0" encoding="utf-8"?>
<!-- Generator: Adobe Illustrator 16.0.4, SVG Export Plug-In . SVG Version: 6.00 Build 0)  -->
<!DOCTYPE svg PUBLIC "-//W3C//DTD SVG 1.1//EN" "http://www.w3.org/Graphics/SVG/1.1/DTD/svg11.dtd">
<svg version="1.1" id="Ebene_3" xmlns="http://www.w3.org/2000/svg" xmlns:xlink="http://www.w3.org/1999/xlink" x="0px" y="0px"
	 width="58.839px" height="56.855px" viewBox="0 0 58.839 56.855" enable-background="new 0 0 58.839 56.855" xml:space="preserve">
<path fill="#0EAD25" d="M58.839,28.352c0,15.652-12.693,28.341-28.346,28.341c-15.651,0-28.347-12.688-28.347-28.341
	C2.146,12.694,14.843,0,30.494,0C46.146,0,58.839,12.694,58.839,28.352z"/>
<g>
	<circle fill="#FFFFFF" cx="30.302" cy="23.675" r="8.477"/>
	<path fill="none" stroke="#FFFFFF" stroke-width="2.5" stroke-miterlimit="10" d="M20.667,16.848
		c-3.765,3.449-3.774,9.556-0.02,13.653"/>
	<path fill="none" stroke="#FFFFFF" stroke-width="2.5" stroke-miterlimit="10" d="M16.137,13.434
		c-5.648,5.176-5.662,14.333-0.032,20.479"/>
	<path fill="none" stroke="#FFFFFF" stroke-width="2.5" stroke-miterlimit="10" d="M40.699,16.848
		c3.768,3.449,3.775,9.556,0.023,13.653"/>
	<path fill="none" stroke="#FFFFFF" stroke-width="2.5" stroke-miterlimit="10" d="M45.232,13.434
		c5.646,5.176,5.662,14.333,0.029,20.479"/>
	<path fill="#FFFFFF" stroke="#FFFFFF" stroke-width="0.25" stroke-miterlimit="10" d="M36.695,31.969l12.746,11.459H11.51
		l12.645-11.766c0,0,1.903,1.414,2.632,1.703c0.938,0.369,2.964,0.73,3.973,0.721c0.922-0.01,2.754-0.393,3.615-0.721
		C35.005,33.117,36.695,31.969,36.695,31.969z"/>
</g>
</svg>
